<svg height="504" viewBox="0 0 504 504" width="504" xmlns="http://www.w3.org/2000/svg"><circle cx="252" cy="252" fill="#d8e9f7" r="220"/><path d="m377.47 48.81-170.9-32.28c-14.54-2.75-28.6 6.84-31.34 21.38l-72.81 385.42c-2.75 14.54 6.84 28.6 21.38 31.34l170.9 32.28c14.54 2.75 28.6-6.84 31.34-21.38l72.81-385.42c2.75-14.54-6.84-28.6-21.38-31.34zm-56.88 415.74c-2.18 11.53-13.33 19.14-24.86 16.96l-170.9-32.28c-11.53-2.18-19.14-13.33-16.96-24.86l72.82-385.43c2.18-11.53 13.33-19.14 24.86-16.96l29.09 5.5c1.51.28 2.5 1.74 2.21 3.24l-2.46 13.01c-.44 2.35 1.11 4.63 3.46 5.07l95.1 17.97c2.35.44 4.63-1.11 5.07-3.46l2.46-13.01c.28-1.51 1.74-2.5 3.24-2.21l32.72 6.18c11.53 2.18 19.14 13.33 16.96 24.86l-72.81 385.43z" fill="#555556"/><path d="m375.41 59.72-30-5.67-1.94 10.28c-1.01 5.36-6.2 8.89-11.55 7.88l-95.1-17.97c-5.36-1.01-8.89-6.2-7.88-11.55l1.94-10.28-26.36-4.98c-8.52-1.61-16.76 4.01-18.37 12.53l-72.82 385.43c-1.61 8.52 4.01 16.76 12.53 18.37l170.9 32.28c8.52 1.61 16.76-4.01 18.37-12.53l72.81-385.42c1.61-8.52-4.01-16.76-12.53-18.37z" fill="#85c3e9"/><path d="m378.5 43.36-170.9-32.29c-2.68-.51-5.34-.63-7.94-.47l80.59 479.28 13.42 2.54c17.54 3.31 34.51-8.26 37.83-25.81l72.81-385.43c3.31-17.54-8.26-34.51-25.81-37.83z" fill="#e6e7e8" opacity=".15"/><rect fill="none" height="451.45" rx="29.6" stroke="#3e4147" stroke-linecap="round" stroke-linejoin="round" stroke-width="5.74" transform="matrix(.9826128 .18566662 -.18566662 .9826128 51.09 -42.15)" width="233.13" x="134.07" y="26.02"/><path d="m343.2 50.81 32.72 6.18c10.02 1.89 16.64 11.59 14.75 21.61l-72.81 385.43c-1.89 10.02-11.59 16.64-21.61 14.75l-170.9-32.28c-10.02-1.89-16.64-11.59-14.75-21.61l72.81-385.44c1.89-10.02 11.59-16.64 21.61-14.75l29.09 5.49" fill="none" stroke="#3e4147" stroke-linecap="round" stroke-linejoin="round" stroke-width="5.74"/><path d="m343.2 50.81-2.46 13.01c-.73 3.86-4.45 6.4-8.31 5.67l-95.1-17.97c-3.86-.73-6.4-4.45-5.67-8.31l2.46-13.01" fill="none" stroke="#3e4147" stroke-linecap="round" stroke-linejoin="round" stroke-width="5.74"/><g fill="#fff"><path d="m297.51 254.23-26.4-4.99c-.56-.11-1.33.16-1.71.58l-20.76 23.15c-.38.43-.85.33-1.05-.2l-10.72-29.09c-.2-.54-.82-1.06-1.38-1.17l-26.52-5.01c-.56-.11-.84.24-.61.76l22.46 52.58c.22.53.32 1.41.22 1.98l-5.29 28.02c-.11.56.27 1.11.83 1.21l23.72 4.48c.56.11 1.11-.27 1.21-.83l5.29-28.02c.11-.56.52-1.35.92-1.76l40.1-40.77c.4-.41.27-.83-.29-.93z"/><path d="m259.05 205.14c.62.51 1.22.95 1.58 1.02s.98-.03 1.83-.37c16.76-6.75 6.54-20.86 3.16-26.08-5.05 3.63-19.71 13.03-6.58 25.44z"/><path d="m236.72 237.11c.86.09 1.67.12 2.03-.03s.87-.62 1.43-1.44c11.04-16.16-6.65-22.72-12.83-25.4-2.37 6.31-9.93 23.6 9.37 26.87z"/><path d="m212.95 228.63c.81-.32 1.54-.68 1.78-.98.25-.3.48-.96.59-1.94 2.21-19.45-16.5-16.98-23.21-16.46.85 6.69 2.26 25.5 20.84 19.37z"/><path d="m209.93 261.37c.46-.74.83-1.46.85-1.85s-.19-1.05-.68-1.91c-9.79-16.95-23.36-3.85-28.45.57 4.66 4.87 16.97 19.17 28.28 3.19z"/><path d="m259.84 210.33c-4 3.1-15.61 11.14-5.43 21.4.48.42.95.78 1.23.84s.77-.04 1.44-.33c13.22-5.84 5.35-17.56 2.76-21.9z"/><path d="m215.06 270.82c-.16-.17-.54-.34-1.13-.45-11.71-2.26-11.89 9.38-12.17 13.55 4.17-.22 15.82-.21 13.75-11.95-.13-.51-.28-.98-.44-1.14z"/><path d="m249.57 257.35c.48.42.95.78 1.23.84s.77-.04 1.44-.33c13.22-5.84 5.35-17.56 2.76-21.9-4 3.1-15.61 11.14-5.43 21.4z"/><path d="m201.34 242.03c.46-.44.87-.88.94-1.15.08-.27.03-.77-.2-1.47-4.63-13.69-17.01-6.9-21.57-4.71 2.73 4.26 9.7 16.54 20.83 7.32z"/><path d="m219.84 210.23c.63.07 1.23.1 1.48-.01.26-.12.61-.47 1-1.1 7.53-12.34-5.62-17.47-10.23-19.56-1.52 4.83-6.46 18.05 7.75 20.67z"/><path d="m239.84 209.58c.67.25 1.31.44 1.62.39.31-.06.79-.35 1.38-.92 11.52-11.38-1.39-20.52-5.84-24.04-2.96 4.84-11.9 17.89 2.85 24.57z"/><path d="m269.78 242.94c.28.27 1.04.54 1.88.77 19.16 3.99 18.43-14.86 18.53-21.6-6.73.24-25.6-.11-21.21 18.97.23.96.53 1.59.81 1.86z"/><path d="m295.74 240.9c-.25.96-.28 1.65-.16 2.02s.67.97 1.3 1.56c15.07 12.48 23.24-4.52 26.47-10.44-6.06-2.94-22.58-12.06-27.62 6.85z"/><path d="m288.96 272.51c-.77.62-1.2 1.16-1.33 1.53s-.04 1.17.12 2.03c4.7 19 21.38 10.18 27.49 7.35-3.13-5.97-10.99-23.12-26.28-10.91z"/><path d="m280.75 282.99c-.59-.11-1.01-.09-1.22 0s-.52.47-.83.9c-6.21 10.18 4.64 14.42 8.44 16.14 1.25-3.98 5.33-14.89-6.39-17.06z"/><path d="m303.07 258.49c-.47.56-.69 1.01-.72 1.29s.19.83.46 1.41c7 12.64 17.97 3.76 22.06.78-3.45-3.71-12.49-14.54-21.8-3.48z"/><path d="m295.81 224.29c.2.2.76.39 1.38.55 14.19 2.75 14.41-11.37 14.76-16.42-5.05.26-19.17.25-16.66 14.48.13.72.33 1.18.53 1.38z"/><path d="m277.15 216.71c.27.17.93.22 1.65.23 16.17-.85 12.6-16.26 11.61-21.84-5.43 1.65-20.78 5.45-14.21 20.25.34.75.68 1.2.95 1.36z"/></g></svg>