<svg height="504" viewBox="0 0 504 504" width="504" xmlns="http://www.w3.org/2000/svg"><circle cx="252" cy="252" fill="#d8e9f7" r="220"/><ellipse cx="252" cy="252" fill="#fdbe2a" rx="170.61" ry="173.4"/><path d="m252.91 104.77c89.89.57 163.05 71.71 169.08 161.4.34-4.32.59-8.68.61-13.08.59-95.77-75.31-173.89-169.54-174.49-94.22-.6-171.08 76.55-171.67 172.32-.03 4.41.16 8.76.45 13.09 7.14-89.6 81.17-159.8 171.06-159.23z" fill="#fdcb55"/><path d="m251.1 398.77c-89.81-.57-162.92-71.59-169.07-161.17-.36 4.4-.61 8.83-.63 13.31-.59 95.77 75.31 173.89 169.54 174.49 94.22.6 171.08-76.55 171.67-172.32.03-4.49-.17-8.92-.47-13.32-7.25 89.49-81.23 159.57-171.04 159z" fill="#e8a91b"/><ellipse cx="252" cy="252" fill="none" rx="170.61" ry="173.4" stroke="#3e4147" stroke-linecap="round" stroke-linejoin="round" stroke-width="4.8"/><path d="m251.38 351.94c76.86.49 86.82-66.19 86.82-66.19s-43.23 4.62-86.43 4.35-86.37-5.45-86.37-5.45 9.14 66.8 85.99 67.29z" fill="#fff" stroke="#3e4147" stroke-linecap="round" stroke-linejoin="round" stroke-width="4.8"/><path d="m185.33 192.63c17.65.11 37.77 15.78 41.59 45.57 2.26-37.63-13.16-59.62-41.5-59.8s-48.14 27.71-42.23 59.26c2.81-29.75 24.05-45.15 42.15-45.04z" fill="#e8a91b"/><path d="m143.19 237.67c.14-23.5 19.01-42.43 42.13-42.29 23.12.15 41.75 19.32 41.6 42.82" fill="none" stroke="#3e4147" stroke-linecap="round" stroke-linejoin="round" stroke-width="4.8"/><path d="m319.39 193.48c-17.65-.11-37.96 15.3-42.14 45.04-1.8-37.65 13.9-59.44 42.23-59.26 29 .18 47.8 28.32 41.5 59.8-2.45-29.78-23.5-45.46-41.59-45.57z" fill="#e8a91b"/><path d="m360.98 239.05c.14-23.5-18.48-42.67-41.6-42.82s-41.98 18.78-42.13 42.29" fill="none" stroke="#3e4147" stroke-linecap="round" stroke-linejoin="round" stroke-width="4.8"/></svg>