<svg height="504" viewBox="0 0 504 504" width="504" xmlns="http://www.w3.org/2000/svg"><circle cx="252" cy="252" fill="#d8e9f7" r="220"/><path d="m248.6 384.05c-15.02 10.86-40.93 24.03-78.12 39.73-35.77 15.1-71.71 28.07-85.25 32.86 17.83 3.32 79.98 6.74 167.2 7.34 98.49.66 153.12-2.84 167.65-6.86-23.46-7.66-128.19-42.75-170.95-72.52-.21-.15-.38-.33-.51-.54z" fill="#fff"/><path d="m329.73 252.32c46.81.36 70.96 1.69 83.49 3.21-17.12-10.68-51.43-31.86-84.06-50.58.1 8.96.2 17.89.31 26.75.09 6.97.17 13.82.25 20.62z" fill="#fff"/><path d="m176.07 204.98c-35.17 19.98-72.3 42.77-88.15 52.58 20.1-1.7 64.78-3.01 88.11-3.61.05-16.4.06-32.86.04-48.97z" fill="#fff"/><path d="m329.77 256.38c63.01.49 83.89 2.79 90.76 4.35-12.3 5.52-51.1 23.07-90.44 42.35-.01-15.53-.14-30.97-.32-46.7zm-153.76 1.63c-47.53 1.21-77.03 2.61-89.49 3.68 16.3 6.71 53.24 22.29 89.25 39.98.11-14.29.19-28.94.23-43.66z" fill="#fff"/><path d="m168.74 300.65v-95.67l17.12-7.19v111.31z" fill="#e7e7e8"/><path d="m337.73 300.65v-95.67l-17.12-4.71v108.83z" fill="#e7e7e8"/><path d="m175.78 301.67c.02-2.64.03-5.34.05-8-14-3.21-27.47-6.89-39.45-10.48 12.53 5.64 26.03 11.92 39.4 18.48z" fill="#e7e7e8"/><path d="m376.33 280.99c-12.7 3.58-28.78 7.77-46.28 11.53.01 3.52.04 7.03.04 10.55 16.1-7.89 32.1-15.48 46.24-22.09z" fill="#e7e7e8"/><path d="m237.59 217.5c-2.03-.12-4.09-.24-6.11-.28-.11.82-.18 1.65-.16 2.49 0 .5.07 1.03.17 1.58 6.48.35 13.03.57 19.61.66.1-.58.19-1.17.28-1.76.12-.77.26-1.55.39-2.33-2.53-.02-4.88-.03-6.85-.03-2.41 0-4.91-.16-7.34-.31z" fill="#cedd3e"/><path d="m238.5 231.95c2.33 1.42 4.64 1.57 6.88.45 2.69-1.34 4.02-3.66 4.84-6.43-5.79-.09-11.56-.25-17.29-.53 1.27 2.58 3.2 5.06 5.57 6.5z" fill="#cedd3e"/><path d="m255.88 217.88c-.18.94-.33 1.92-.49 2.93-.06.39-.13.78-.19 1.18 6.25.05 12.5.06 18.67.05-.16-1.3-.49-2.65-.97-3.98-5.05-.06-11.27-.12-17.02-.17z" fill="#cedd3e"/><path d="m253.07 174.42c-24.02 0-43.57 20.93-43.57 46.65s19.54 46.65 43.57 46.65 43.57-20.93 43.57-46.65-19.55-46.65-43.57-46.65zm32.05 41.75c-.01 1.11-.92 2-2.03 2h-.03c-.08 0-2.41-.03-5.91-.07.39 1.33.64 2.65.77 3.92h5.22c1.12 0 2.03.9 2.03 2.02s-.91 2.03-2.03 2.03h-5.35c-.82 4.67-4.08 7.48-9.16 7.74-1.1.09-2.07-.81-2.13-1.92-.06-1.12.81-2.07 1.92-2.13 2.85-.14 4.56-1.36 5.22-3.67-2.68 0-5.36.01-8.06.01-3.72 0-7.46-.02-11.2-.05-1 4.02-2.8 7.81-7.21 10-1.57.78-3.18 1.17-4.8 1.17-2.01 0-4.03-.6-5.99-1.79-3.49-2.12-6.45-6.09-7.99-10.23-1.23-.08-2.48-.13-3.71-.21-1.12-.08-1.96-1.05-1.87-2.17s1.08-1.94 2.17-1.87c.79.06 1.6.08 2.4.13-.05-.43-.12-.86-.13-1.28-.02-.83.04-1.65.12-2.47-.47.03-.95.04-1.41.09-1.12.15-2.11-.68-2.24-1.8-.12-1.11.68-2.11 1.8-2.23.89-.1 1.8-.15 2.71-.19.96-3 2.57-5.67 4.7-7.56 2.9-2.58 6.52-3.65 10.47-3.11 1.11.15 1.88 1.18 1.73 2.28-.15 1.11-1.19 1.87-2.28 1.73-2.79-.39-5.22.33-7.23 2.12-1.31 1.16-2.36 2.74-3.1 4.53 1.77.06 3.54.16 5.29.26 2.37.15 4.82.3 7.1.3 2.21 0 4.88.02 7.78.04 0-.02 0-.04.01-.06 3.37-10.31 8.82-10.88 11.77-10.3 4.52.89 8.61 5.39 11.09 10.59 4.41.05 7.45.09 7.53.09 1.12.01 2.01.93 2 2.05z" fill="#cedd3e"/><path d="m325.43 231.75c-.12-9.71-.24-19.5-.35-29.34-.46-.63-.55-1.49-.14-2.21.03-.05.08-.08.11-.12-.32-29.39-2.96-139.72-3.34-155.68l-142.5-4.38c.16 15.8 1.16 117.13.87 215.86s0 0 0 0c-.05 16.13-.13 32.18-.25 47.78 4.06 2.02 8.09 4.05 12.07 6.11v-236.04c0-.8.47-1.52 1.19-1.85 14.91-6.75 16.03-15.83 16.07-16.22.11-1.03.98-1.83 2.02-1.83h74.56c.96 0 1.79.67 1.99 1.62 3.37 16.3 21.56 19.33 21.75 19.36.98.15 1.7.99 1.71 1.98l2.5 234.42c4.1-2.05 8.23-4.11 12.36-6.14 0-24.21-.3-48.07-.61-73.31z" fill="#cedd3e"/><path d="m263.72 207.42c-3.28-.63-5.41 2.9-6.72 6.42 4.72.04 9.67.09 14 .14-1.99-3.38-4.71-6.05-7.28-6.56z" fill="#cedd3e"/><path d="m284.13 57.89h-71.32c-1 3.49-4.54 11.18-16.86 17.13v236.86c22.26 11.64 42.49 23.62 55.05 34.19.12-.49.42-.93.88-1.22 14.65-9.2 35.55-20.39 57.77-31.61l-2.51-234.8c-4.92-1.24-19.08-6.01-23.01-20.55zm-31.06 213.88c-26.26 0-47.62-22.75-47.62-50.7s21.36-50.71 47.62-50.71 47.62 22.75 47.62 50.71-21.37 50.7-47.62 50.7z" fill="#cedd3e"/><path d="m260.2 364.97c.51-6.33-10.47-22.7-89.64-61.19-40.77-19.82-82.22-36.96-90.78-40.46-2.46 7.34-5.36 46.05-5.89 95.4-.63 58.25 2.42 89.55 5.72 95.59 50.93-17.61 178.77-66.58 180.59-89.34z" fill="#fff"/><path d="m254.03 348.28c-.11.07-.22.1-.34.15 6.97 6.33 10.92 12.09 10.54 16.86-.37 4.66-4.48 10.07-12.35 16.28 45.08 31.11 158.4 68.14 172.63 72.72 4.33-8.45 6.41-44.77 5.44-96.47-.83-44.9-3.63-84.21-5.86-94.24-16.36 7.32-124.16 55.87-170.07 84.71z" fill="#fff"/><g fill="none" stroke="#3e4147" stroke-linejoin="round" stroke-width="5.29"><ellipse cx="253.07" cy="221.07" rx="45.6" ry="48.68"/><path d="m268.54 231.78c19.72-.98-4.88-44.96-13.89-17.41-2.12 6.49-.84 16.12-8.37 19.85-8.7 4.32-16.85-7.13-16.99-14.48-.15-7.95 4.95-16.43 13.85-15.21" stroke-linecap="round"/><path d="m283.09 216.14s-25.98-.33-38.16-.35c-6.26-.01-13.15-1.05-19.17-.39" stroke-linecap="round"/><path d="m283.15 224.04c-19.28 0-39.21.3-58.3-1.09" stroke-linecap="round"/><path d="m327.73 254.34c53.97.38 95.77 2.2 97.66 6.44 5.42 12.17 12.19 181.19 0 195.92s-334.77 10.07-346.47 0-7.05-191.53 0-195.92c2.46-1.53 44.82-3.48 99.14-4.85" stroke-linecap="round"/><path d="m326.71 201.21c47.2 26.93 98.68 59.57 98.68 59.57s-122.24 54.25-172.43 85.79" stroke-linecap="round"/><path d="m78.91 456.7s180.96-62.24 183.31-91.56c2.34-29.32-183.31-104.36-183.31-104.36s50.33-31.57 97.32-58.22" stroke-linecap="round"/><path d="m250.28 382.92c48.37 33.68 175.11 73.77 175.11 73.77" stroke-linecap="round"/></g><path d="m313.68 311.21c4.1-2.05 8.23-4.11 12.36-6.14 0-5.49-.02-10.96-.05-16.43l-12.48 6.89z" fill="#b5c933"/><path d="m191.89 294.46-11.96-7.02c-.03 5.45-.07 10.88-.11 16.23 4.06 2.02 8.09 4.05 12.07 6.11z" fill="#b5c933"/><path d="m195.95 296.84v15.04c22.26 11.64 42.49 23.62 55.05 34.19.12-.49.42-.93.88-1.22 14.65-9.2 35.55-20.39 57.77-31.61l-.17-15.48-57.7 31.87z" fill="#b5c933"/><path d="m249.12 384.59c-.21-.15-.38-.33-.51-.54-15.02 10.86-40.93 24.03-78.12 39.73-35.77 15.1-71.71 28.07-85.25 32.86 2.57.48 6.1.96 10.46 1.43 34.08-12.45 112-42.42 156.48-71.44-1.03-.68-2.07-1.36-3.04-2.04z" fill="#e7e7e8"/><path d="m248.6 384.05c-1.64 1.19-3.43 2.4-5.33 3.64v.21s93.34 54.89 171.1 70.41c2.31-.39 4.22-.8 5.7-1.21-23.46-7.66-128.19-42.75-170.95-72.52-.21-.15-.38-.33-.51-.54z" fill="#e7e7e8"/><path d="m328.07 306.31c0-34.77-.61-69.78-.98-105.77-.32-31.16-3.4-158.11-3.4-158.11l-146.53-4.51s1.62 146.55.63 267.15" fill="none" stroke="#3e4147" stroke-linejoin="round" stroke-width="5.29"/><path d="m311.68 314.46-2.54-237.65s-19.72-3.08-23.41-20.95h-74.56s-.9 10.47-17.25 17.87v239.5" fill="none" stroke="#3e4147" stroke-linejoin="round" stroke-width="5.29"/></svg>