<svg height="110" viewBox="0 0 110 110" width="110" xmlns="http://www.w3.org/2000/svg"><g fill="#f3783c"><path d="m71.47 28.68c-8.38.97-16.22 5-22.7 11.7-5.76 5.97-10.35 14-12.88 22.63-1.12 3.82-3.72 14.59-2.35 19.16 7.81 1.78 16.86 1.73 22.8.91 2.96-.41 5.8-.87 8.49-1.39 9.13-3.31 15.52-6.44 23.58-11.55 10.37-6.55 16.15-13.91 17.2-21.84-1.13-2.24-2.76-5.3-4.73-8.62-2.97-3.83-15.83-12.55-29.42-10.99z"/><path d="m59.99 26.17c-12.53 5.26-22.08 16.73-28.44 34.08-2.5 6.83-3.62 13.05-3.63 20.17 1.57.64 3.24 1.17 5 1.59-.52-2.09-.41-5.38.32-9.8.61-3.65 1.52-7.31 2.12-9.37 2.57-8.71 7.18-16.83 13.01-22.85 6.55-6.79 14.52-10.89 23.03-11.87 12.11-1.39 23.33 4.99 28.15 9.35-1.36-2.21-2.87-4.48-4.45-6.66-8.64-7.97-22.72-9.85-35.11-4.65z"/><path d="m18.82 44.69c0 1.98.08 3.98.14 5.92.19 5.03.35 9.74-.61 14.63-.85 4.33.11 7.99 2.83 10.89 1.58 1.69 3.73 3.02 6.18 4.09.04-7.09 1.18-13.32 3.66-20.14 1.58-4.34 3.39-8.34 5.38-11.95-.41-.67-4.21-4.05-7.27-6.39-2.83-2.18-4.66-3.35-6.29-4.4-1.18-.75-2.22-1.42-3.4-2.31-.87 2.1-.78 4.78-.68 7.37.04.74.06 1.53.06 2.29z"/><path d="m17.58 69.61c-.15-1.42-.08-2.9.24-4.51.96-4.81.78-9.51.59-14.49-.07-1.92-.14-3.94-.14-5.93 0-.65-.02-1.3-.04-1.98-1.26 3-2.44 6.91-3.5 10.39-.46 1.51-.88 2.94-1.31 4.23-.11.34-.2.68-.28 1.01 0 .05 0 .11-.04.15-1 4.48.66 8.63 4.48 11.11z"/><path d="m29.48 41.27c1.5 1.17 3.35 2.71 4.85 4.03 1.39 1.23 2.05 1.9 2.36 2.29 5.98-10.65 13.71-18 23.07-21.94 11.73-4.93 25-3.6 33.86 3.21-3-3.87-6.29-7.35-9.64-9.53-6.75-4.42-14.55-6.7-22.81-6.7-2.09 0-4.21.14-6.36.44-10 1.36-19.75 5.92-27.46 12.82-2.44 2.19-6.11 5.49-7.68 8.6 1.2.92 2.25 1.59 3.46 2.36 1.66 1.04 3.52 2.23 6.36 4.42z"/><path d="m88.72 70.61c-7.07 4.46-12.87 7.43-20.34 10.35 8.19-1.8 15.12-4.22 21-7.28 16.3-9 17.94-20.66 18.05-21.66-.12-.26-.61-1.31-1.37-2.85-1.34 7.8-7.17 15.02-17.34 21.45z"/><path d="m65 82.22s-.07.01-.09.01c-2.69.52-5.51.98-8.47 1.39-2.75.38-5.77.57-8.85.57-3.33 0-6.7-.22-9.79-.66s-6.81-1.23-10.22-2.63c-.04-.01-.07-.02-.11-.04-2.55-1.07-4.92-2.49-6.7-4.38-1.68-1.78-2.72-3.85-3.1-6.16-.01 0-.02-.01-.04-.01-4.08-2.47-5.98-6.65-5.21-11.23-8.63 6.84-11.43 17.89-9.02 24.41 1.99 5.4 6.58 9.48 13.25 11.82 5.51 1.92 12.28 2.56 18.56 1.76 13.41-1.73 30.87-9.33 39.68-17.16-3.09.86-6.37 1.64-9.89 2.31z"/></g><path d="m107.72 51.97s-11.24-24.8-23.58-32.89c-17.84-11.7-41.45-7.31-56.95 6.59-2.62 2.35-6.32 5.7-7.84 8.89-1.34 2.84-.79 6.77-.79 10.12 0 6.97.87 13.71-.45 20.48-3.61 18.32 25.22 19.97 38.3 18.18 11.15-1.53 23-4.16 33.12-9.44 17.28-9.53 18.19-21.94 18.19-21.94z" fill="none" stroke="#3e4147" stroke-linecap="round" stroke-linejoin="round" stroke-width="1.08"/><path d="m17.78 70.07c-4.85-2.95-6.19-8.01-4.64-12.81s3.31-11.5 5.32-15.78" fill="none" stroke="#3e4147" stroke-linecap="round" stroke-linejoin="round" stroke-width="1.08"/><path d="m105.9 48.32c-1.3 9.91-9.59 17.16-17.33 22.05-7.5 4.74-13.97 8.06-23.68 11.58" fill="none" stroke="#3e4147" stroke-linecap="round" stroke-linejoin="round" stroke-width="1.08"/><path d="m101.18 39.6c-2.88-3.83-15.78-12.8-29.74-11.18-18.13 2.09-30.88 17.84-35.81 34.53-1.04 3.54-3.83 14.86-2.3 19.49" fill="none" stroke="#3e4147" stroke-linecap="round" stroke-linejoin="round" stroke-width="1.08"/><path d="m95.35 30.67c-9.38-8.72-23.95-9.59-35.47-4.75-14.67 6.17-23.32 19.83-28.59 34.25-2.52 6.92-3.66 13.15-3.66 20.48" fill="none" stroke="#3e4147" stroke-linecap="round" stroke-linejoin="round" stroke-width="1.08"/><path d="m12.85 58.38c-9.07 6.75-12.27 18.29-9.72 25.18 4.48 12.14 20.61 15.24 32.11 13.75 14.25-1.84 32.28-9.99 40.71-18.02" fill="none" stroke="#3e4147" stroke-linecap="round" stroke-linejoin="round" stroke-width="1.08"/><path d="m19.34 34.56c2.97 2.31 4.94 3.04 9.97 6.94 3.01 2.34 7.42 6.18 7.4 6.63" fill="none" stroke="#3e4147" stroke-linecap="round" stroke-linejoin="round" stroke-width="1.08"/></svg>