<svg height="600" viewBox="0 0 800 600" width="800" xmlns="http://www.w3.org/2000/svg"><circle cx="400" cy="300" fill="#eff6fb" r="271.5"/><path d="m271.07 417.81c71.3 53.47 111.02 53.59 168.66 43.21" fill="none" stroke="#25384f" stroke-linecap="round" stroke-linejoin="round" stroke-width="2"/><path d="m406.7 434.21c16.74 24.98 33.03 26.8 33.03 26.8s-14.06 6.32-25.94 22.84" fill="none" stroke="#25384f" stroke-linecap="round" stroke-linejoin="round" stroke-width="2"/><path d="m711.81 282.35c19.73 50.35-10.61 90.85-49.8 107.15" fill="none" stroke="#25384f" stroke-linecap="round" stroke-linejoin="round" stroke-width="2"/><path d="m671.35 360.64c-.17 21.42-9.34 28.86-9.34 28.86s11.07-1.72 24.9 3.49" fill="none" stroke="#25384f" stroke-linecap="round" stroke-linejoin="round" stroke-width="2"/><path d="m597.79 449.54c14.05-9.15 22.4-21.58 23.52-35.19 1.08-13.16-9.16-34.32-30.85-49.3-10.29-7.11-27.34-15.58-50.07-15.58-12.02 0-24.45 2.41-36.94 7.16-.5.19-.79.71-.69 1.23s.55.89 1.08.89h.02c12.8-.2 24.73 2.15 31.87 3.54.86.17 1.61.66 2.1 1.39s.67 1.61.5 2.47-.67 1.61-1.4 2.1-1.6.67-2.46.49c-30-5.87-62.26-7.74-73.96 22.94-3.63 9.53-1.69 21.04 5.49 32.43 6.48 10.29 16.17 19.39 28.11 26.43-2.69.89-5.3 1.9-7.83 3.03-10.6-6.97-19.53-15.93-25.85-25.95-8.3-13.18-10.46-26.78-6.07-38.28 5.9-15.46 17.33-25.17 33.99-28.87.31-.07.57-.27.73-.55s.17-.61.06-.91c-.59-1.58.14-3.39 1.67-4.12 49.73-23.66 86.12-7.18 103.39 4.74 21.29 14.71 35.14 37.43 33.67 55.25-1.22 14.81-9.79 28.48-24.13 38.57-1.93-1.42-3.91-2.72-5.94-3.92z" fill="#f3783c"/><path d="m449.6 506.4c0 34.63 40.05 62.81 89.28 62.81s89.28-28.18 89.28-62.81c0-18.38-7.79-35.76-21.39-47.68-17.15-15.05-40.26-19.41-61.27-19.41-7.96 0-15.62.63-22.54 1.53-.87.11-1.65.56-2.18 1.26s-.77 1.56-.65 2.43c.08.62.34 1.2.74 1.68.27.32.33.76.16 1.14s-.53.64-.95.66c-18.55.93-35.08 6.59-47.78 16.37-14.43 11.1-22.7 26.42-22.7 42.02zm6.58 0c0-13.55 7.34-26.96 20.13-36.81 5.65-4.35 12.11-7.75 19.15-10.24.11-.06.22-.1.35-.12 4.28-1.49 8.77-2.63 13.45-3.42.14-.06.29-.08.44-.07 14.47-2.38 30.65-1.45 47.44 3 .85.22 1.74.11 2.5-.33s1.3-1.15 1.53-2 .11-1.73-.33-2.5c-.44-.76-1.15-1.3-2-1.53-7.6-2.02-15.22-3.37-22.64-4.04-.57-.05-1.01-.53-1-1.11s.46-1.04 1.03-1.08c3.19-.19 6.35-.29 9.39-.29 20.74 0 37.72 4.39 50.61 13.05h.01c2.18 1.46 4.26 3.03 6.2 4.74 12.17 10.68 19.15 26.26 19.15 42.74 0 31.01-37.1 56.23-82.7 56.23s-82.7-25.23-82.7-56.23z" fill="#cedd3e"/><path d="m533.72 470.15c-11.65-.96-23.61-4.31-34.79-9.65 3.43-1.07 7.01-1.9 10.69-2.52 8.13 3.05 16.42 4.94 24.64 5.62 3.44.29 6.85.43 10.22.43 14.98 0 29.2-2.8 41.65-8.24 2.53 1.16 4.94 2.45 7.22 3.87-14.19 7.15-31.09 10.93-49.03 10.93-3.52 0-7.08-.15-10.6-.44z" fill="#f3783c"/><path d="m495.99 460.3c11.73 5.98 24.69 9.88 37.64 10.94 3.59.3 7.16.44 10.69.44 18.74 0 36.53-4.12 51.22-11.91" fill="none" stroke="#25384f" stroke-linecap="round" stroke-linejoin="round" stroke-width="2"/><path d="m603.72 454.82c15.06-10.37 23.96-24.33 25.24-39.84 1.5-18.2-12.54-41.32-34.14-56.24-17.47-12.06-54.27-28.73-104.49-4.83-2.07.99-3.01 3.38-2.22 5.49-14.42 3.2-27.86 11.41-34.78 29.55-4.52 11.84-2.33 25.78 6.16 39.26 6.49 10.3 15.57 19.43 26.65 26.62" fill="none" stroke="#25384f" stroke-linecap="round" stroke-linejoin="round" stroke-width="2"/><path d="m496.78 450.83c-12.39-6.9-22.99-16.37-29.87-27.3-6.98-11.09-8.9-22.26-5.39-31.46 11.42-29.93 43.17-28.04 72.73-22.25 2.37.47 4.68-1.08 5.15-3.46s-1.08-4.68-3.46-5.15c-7.25-1.42-19.26-3.76-32.09-3.57 13.42-5.1 25.65-7.09 36.55-7.09 22.59 0 39.48 8.51 49.44 15.39 21.35 14.74 31.44 35.46 30.38 48.3-1.14 13.8-9.82 26.27-24.52 35.33" fill="none" stroke="#25384f" stroke-linecap="round" stroke-linejoin="round" stroke-width="2"/><path d="m586.14 454.6c-15.03 6.66-33.09 9.45-51.79 7.9-8.36-.69-16.73-2.66-24.69-5.68" fill="none" stroke="#25384f" stroke-linecap="round" stroke-linejoin="round" stroke-width="2"/><path d="m448.51 506.4c0-15.95 8.43-31.58 23.13-42.89 13.06-10.05 29.78-15.66 48.4-16.6-.52-.62-.87-1.38-.98-2.24-.31-2.4 1.38-4.6 3.78-4.92 25.4-3.33 60.72-2.88 84.67 18.14 13.83 12.13 21.76 29.82 21.76 48.51 0 35.24-40.54 63.91-90.38 63.91-49.83 0-90.38-28.67-90.38-63.91zm87.79-59.15c7.44.66 15.08 2.01 22.82 4.07 2.34.62 3.73 3.02 3.11 5.36s-3.02 3.74-5.36 3.11c-31.2-8.27-60.32-4.39-79.88 10.66-12.52 9.64-19.71 22.74-19.71 35.94 0 30.4 36.61 55.14 81.61 55.14s81.61-24.74 81.61-55.14c0-16.17-6.84-31.45-18.77-41.92-13.2-11.59-32.35-17.52-56.1-17.52-3.03 0-6.14.1-9.32.29z" fill="none" stroke="#25384f" stroke-linecap="round" stroke-linejoin="round" stroke-width="2"/><path d="m488.83 410.03c.21.43.48.98.33 1.85l-.11.44-.37.08c-2.16.47-3.89.73-5.32.79-2.11.09-3.44-.29-3.97-1.13-.46-.66-.44-1.41.02-2.43l.17-.32.43-.02c.44.04.87.02 1.43 0s1.12-.05 1.61-.13c.56-.02 1.06-.05 1.62-.07 1.12-.05 2.49-.05 3.56.28l.31.05.08.31c.07.12.13.24.2.3z" fill="#d85927"/><path d="m506.31 427.95c-.76-.34-1.77-.48-2.77-.69-2.32-.4-4.96-.84-5.57-3.43l-.08-.31.24-.26c.48-.46 1.03-.73 1.65-.76.93-.04 1.89.42 2.84.93 1.14.51 2.35 1.08 3.6 1.03.27-3.87.28-7.8.3-11.6.02-3.86.09-7.79.36-11.79-.89-.34-1.83-.54-2.78-.81-1.57-.37-3.21-.79-4.55-1.54-1.6-.93-2.53-2.2-2.85-3.92-.56-2.72.3-5.99 2.22-8.94 1.76-2.57 4.22-4.67 6.61-5.58-.02-.5-.11-.99-.19-1.49-.16-.74-.25-1.55-.24-2.54l.05-.25.24-.2c.55-.34 1.03-.54 1.53-.57 1.8-.08 2.83 1.99 2.99 4.23.63.1 1.37.06 2.12.09 1.49-.07 3.05-.13 3.9.76.45.42.67 1.03.64 1.78l.02.43-.49.15c-.25.07-.62.09-.99.11-.5.02-1.06.05-1.62 0-.62-.04-1.25-.07-1.87-.04s-1.12.11-1.55.26c-.06 4.42.55 11.19 1 14.41 3.95.51 7.45 2.29 9.94 5.05 1.37 1.43 2.38 3.13 3.02 4.97.71 1.96.99 4.07.9 6.25-.21 3.62-1.56 7.04-3.88 9.64-2.49 2.91-5.97 4.5-10.01 4.67-.06 0-.19 0-.31.01.02.37.09.68.11.99.16.8.26 1.67-.2 2.5l-.12.19-.18.07c-.43.21-.8.28-1.17.3-1.12.05-1.89-.54-2.54-1.07l-.19-.18-.12-2.86zm-5.06-37.21c-.6 1.96-.53 3.45.26 4.47.86 1.21 2.64 1.88 5.2 2.01-.06-2.8-.3-5.47-.48-8.08-.07-1.49-.2-3.04-.33-4.59 0 .06-.06.07-.06.13-1.56 1.44-3.83 3.59-4.59 6.05zm9.58 33.9c.06 0 .19 0 .25-.01 6.4-.28 9.62-6.4 9.43-12.31-.12-5.48-3.1-10.95-9.45-10.98-.27 6.68-.66 16.22-.22 23.3z" fill="#d85927"/><path d="m547.94 418.52c.15 1.92.29 3.79.05 5.35l-.05.38-.31.14c-.43.21-.98.48-1.54.5-.37.02-.75-.09-1.07-.26l-.26-.17-.07-.25c-1.03-6.37-.89-13.29-.78-20.58.16-6.36.24-12.97-.42-19.6-.73.34-1.45 1.06-2.17 1.71-.42.39-.9.85-1.38 1.24h-.06c-.06.07-.18.13-.24.2-.85.54-2.6 1.73-3.91 1.79-.93.04-1.52-.49-1.62-1.49-.04-.87 1.1-1.86 3.82-3.72.3-.2.6-.4.79-.53.48-.33.96-.73 1.38-1.12 1.32-1.05 2.71-2.24 4.26-2.3.68-.03 1.32.19 1.96.6l.26.18v.25c1.7 8.58 1.45 17.19 1.26 25.55-.07 2.62-.14 5.36-.15 8.04 0 1.31.12 2.74.24 4.1z" fill="#d85927"/><path d="m571.43 421.54c-2.57-1.82-4.74-4.34-6.1-7.14-1.93-4.15-2.95-8.96-2.98-14.01-.04-5.04.94-9.82 2.76-13.76 2.4-5.02 5.99-8.36 10.48-9.55.12 0 .18-.07.31-.08.06 0 .13.06.19.05.49-.08 1.24-.18 1.61-.2 1.37-.06 3.24-.02 4.31.31 2.33.52 5 1.83 7.39 3.79 2.39 1.89 4.35 4.11 5.57 6.36 1.15 2.13 1.82 4.53 1.95 7.45.11 2.55-.14 5.43-.8 8.82-1.71 9.42-4.37 15.39-8.11 18.17-2.36 1.6-4.87 2.52-7.48 2.63-3.11.14-6.27-.85-9.09-2.84zm5.84-.38c.44.04.81.03 1.31 0 3.11-.14 6.58-1.97 7.89-3.27 3.46-3.58 4.82-9.37 5.65-14.64.54-3.2 1.24-7.22.93-9.95-.5-4.4-3.95-7.8-5.78-9.65-2.6-2.44-5.07-3.39-8.55-3.24-.75.03-1.61.13-2.48.3-3.25 1.2-5.87 3.99-7.62 7.99-3 6.98-2.96 16.39.12 23.97.63 1.53 2.09 3.58 3.65 5.2 1.76 1.85 3.56 3.08 4.88 3.27z" fill="#d85927"/><path d="m495.72 514.67c-1.68.02-3.61.1-6.03.32.17 3.36.4 7.15.38 11.2v.25s-.12.19-.12.19c-.49.57-1.42 1.2-2.41 1.21-.37 0-.75-.12-1.12-.3l-.37-.12v-.37c-.11-3.55-.34-7.53-.58-11.75v-.06c-2.61.22-5.97.45-9.45.49-.56 0-1.12.01-1.62-.04h-.19s-.19-.06-.19-.06c-1.01-.74-1.77-2.22-.98-3.66l.18-.25.37-.07c1.93-.09 4.04-.17 6.34-.33 1.74-.02 3.55-.1 5.35-.19l-.24-4.54c0-.06 0-.31 0-.5-.28-2.86-.32-5.91.79-7.17.49-.5 1.11-.64 1.74-.52.62.12 1.38.54 1.58 1.91.13.75.02 1.62-.04 2.3 0 .37-.05.68-.05.93-.03 2.24.12 4.54.34 7.34l4.66-.24h.44c.56-.07 1.49-.14 2.55-.15 2.55-.03 4.17.39 4.81 1.19.38.43.45.99.33 1.55-.48 1.56-2.22 1.58-2.78 1.59-.44 0-.93-.05-1.37-.11-.37 0-.69-.05-.93-.05-.44 0-.87.01-1.37.02z" fill="#94a727"/><path d="m516.52 531.1c-.75-.36-1.75-.54-2.75-.78-2.31-.47-4.93-1-5.46-3.61l-.07-.31.25-.25c.49-.44 1.05-.7 1.67-.7.93-.01 1.87.48 2.81 1.02 1.13.55 2.32 1.16 3.56 1.14.39-3.86.53-7.79.67-11.58.14-3.86.34-7.78.73-11.77-.88-.36-1.81-.6-2.75-.9-1.56-.42-3.18-.9-4.5-1.69-1.57-.98-2.46-2.27-2.72-4.01-.47-2.73.49-5.98 2.51-8.87 1.84-2.51 4.36-4.53 6.78-5.37 0-.5-.07-1-.14-1.49-.13-.75-.21-1.55-.16-2.55l.06-.25.25-.19c.56-.32 1.05-.51 1.55-.52 1.8-.02 2.76 2.08 2.85 4.32.62.12 1.37.11 2.12.16 1.49-.02 3.05-.04 3.87.89.44.43.63 1.05.58 1.8v.44s-.49.13-.49.13c-.25.07-.62.07-1 .07-.5 0-1.06.01-1.62-.04-.62-.05-1.25-.11-1.87-.1s-1.12.08-1.55.21c-.2 4.42.2 11.2.55 14.43 3.93.64 7.37 2.53 9.77 5.36 1.32 1.48 2.28 3.21 2.86 5.07.65 1.98.86 4.1.7 6.28-.33 3.61-1.78 6.99-4.18 9.51-2.58 2.83-6.11 4.31-10.15 4.35-.06 0-.19 0-.31 0 0 .37.07.68.08 1 .13.81.21 1.68-.28 2.49l-.12.19-.19.06c-.43.19-.81.26-1.18.26-1.12.01-1.87-.6-2.5-1.15l-.19-.18-.04-2.86zm-3.87-37.35c-.66 1.94-.64 3.43.12 4.48.83 1.24 2.58 1.96 5.13 2.18.03-2.8-.13-5.47-.22-8.09-.02-1.49-.1-3.05-.18-4.6 0 .06-.06.06-.06.13-1.6 1.39-3.94 3.47-4.78 5.91zm8.5 34.19h.25c6.41-.08 9.82-6.09 9.81-12 .06-5.48-2.75-11.04-9.1-11.28-.48 6.66-1.17 16.19-.96 23.28z" fill="#94a727"/><path d="m558.43 523.01c.09 1.93.17 3.79-.12 5.35l-.06.37-.31.13c-.43.19-.99.45-1.55.45-.37 0-.75-.12-1.06-.3l-.25-.18-.07-.25c-.82-6.4-.47-13.31-.12-20.6.36-6.35.65-12.95.2-19.6-.74.32-1.48 1.01-2.22 1.65-.43.38-.92.82-1.42 1.2h-.06c-.06.06-.18.13-.25.19-.86.51-2.66 1.65-3.96 1.67-.93.01-1.5-.54-1.57-1.54-.01-.87 1.16-1.82 3.94-3.59.31-.19.62-.38.8-.51.49-.32.99-.7 1.42-1.07 1.36-1.01 2.78-2.15 4.33-2.17.68 0 1.31.23 1.94.66l.25.18v.25c1.41 8.63.89 17.23.43 25.57-.16 2.62-.31 5.35-.4 8.03-.04 1.31.03 2.74.11 4.11z" fill="#94a727"/><path d="m581.81 526.77c-2.51-1.9-4.6-4.49-5.88-7.33-1.79-4.21-2.66-9.05-2.53-14.1s1.25-9.79 3.2-13.67c2.55-4.95 6.25-8.17 10.78-9.22.12 0 .19-.06.31-.07.06 0 .13.06.19.06.5-.07 1.24-.14 1.62-.14 1.37-.02 3.24.08 4.3.45 2.31.59 4.94 1.99 7.27 4.02 2.33 1.96 4.22 4.24 5.37 6.53 1.08 2.17 1.67 4.58 1.71 7.51.03 2.55-.31 5.42-1.08 8.79-2 9.36-4.86 15.24-8.68 17.9-2.41 1.52-4.95 2.36-7.56 2.39-3.11.04-6.23-1.05-9-3.13zm5.85-.19c.44.06.81.05 1.31.05 3.11-.04 6.64-1.76 7.99-3.02 3.57-3.46 5.12-9.21 6.11-14.45.65-3.18 1.47-7.17 1.25-9.91-.37-4.41-3.7-7.92-5.47-9.83-2.52-2.52-4.96-3.55-8.44-3.51-.75 0-1.62.08-2.49.22-3.29 1.1-5.99 3.81-7.87 7.75-3.22 6.88-3.48 16.28-.64 23.97.58 1.55 1.97 3.65 3.49 5.31 1.7 1.91 3.46 3.19 4.77 3.43z" fill="#94a727"/><path d="m547.27 135.94-169.2 8.89 4.39 83.54 272.74-14.34-4.39-83.53-21.32 1.12" fill="#fff" stroke="#25384f" stroke-linecap="round" stroke-linejoin="round" stroke-width="2"/><path d="m392.27 235.39h270.93v81.46h-270.93z" fill="#eff6fb"/><path d="m547.78 136.89c17.36 4.33 39.93 9.59 56.76 9.59 9.47 0 17.12-1.67 20.98-6.11 1.88-2.17 3.47-4.78 4.74-7.7l19.52-1.03 4.28 81.35-270.55 14.22-4.28-81.34 168.1-8.84c.17 0 .32-.06.46-.14z" fill="#fff"/><path d="m622.75 102.36c-8.28 5.04-13.36 8.3-13.53 11.64-.15 2.83 1.12 4.72 2.69 5.92-16.68 1.46-39.47-3-54.15-5.88-2.99-.59-5.67-1.11-7.98-1.53 3.53-1.83 10.55-3.68 18.45-5.75 23.12-6.07 57.43-15.09 71.2-38.22.05 7.49-.63 15.52-1.93 22.87-2.58 3.54-9.04 7.48-14.76 10.96z" fill="#abb833"/><path d="m622.66 54.41c-2.54 1.33-4.94 2.59-6.16 4.27-.34.46-.77 1.17-1.31 2.04-3 4.85-9.31 14.95-18.45 14.75-8.62-.18-18.01-9.2-27.92-26.81-2.06-3.65-4.93-6.22-8.42-7.96 5.57-2.77 8.72-6.24 9.35-10.34.17-1.1.13-2.18-.03-3.23.66 1.26 1.27 2.56 1.88 3.87 2.73 5.88 5.56 11.95 13.93 15.83 8.58 3.98 16.72-.07 24.59-3.99 6.69-3.33 12.68-6.3 18.25-4.12 2.33 3.32 3.22 6.05 2.68 8.32-.8 3.39-4.83 5.5-8.39 7.36z" fill="#94a727"/><path d="m616.05 119.41c-.84-.17-4.86-1.17-4.64-5.29.12-2.35 6.69-6.35 12.48-9.88 4.71-2.87 9.53-5.81 12.82-8.77-1.3 6.01-3.03 11.37-5.11 15.28-2.59 4.85-8.27 7.47-15.54 8.66z" fill="#cedd3e"/><path d="m567.59 30.03c.94-6.07-5.64-11.85-5.92-12.09-1.26-.79-2.69-1.5-4.34-2.13-5.92-2.27-14.62 1.22-25.63 5.64-11.05 4.43-24.79 9.95-41.01 11.74-13.83 1.53-28.35.34-42.05-1.38-.88.21-5.31 1.4-7.31 4.6-1.02 1.63-1.24 3.58-.65 5.8 1.1 4.16 3.25 7.13 6.58 9.06 10.76 6.25 31.59.71 53.64-5.15 21.19-5.63 42.91-11.41 56.78-6.58 5.99-2.58 9.33-5.78 9.91-9.51zm-83.58 4.2s0 .03-.01.05c-.02-.02-.03-.03-.05-.05z" fill="#dde778"/><path d="m439.46 35.25c-1.34 2.15-1.65 4.66-.93 7.45 0 .02 0 .04.01.06v.02c3.25 15.97 17.24 21.6 34.92 22.93 15.67 8.47 45.96 31.35 53.76 37.29-16.25 3.59-31.18 4.92-32.7 5.05-10.58-1.05-19.89-2.23-27.71-3.5 1.45-.45 2.83-1.13 3.9-2.17 1.58-1.55 2.26-3.61 2.01-6.12-.36-6.53-11.68-10.73-26.02-16.05-20.71-7.68-46.48-17.24-50.43-37.51-1.89-11.63 3.61-14.87 4.52-15.32 8.91-.98 20.98.72 34.67 2.64 2.8.39 5.67.79 8.57 1.18-1.65.87-3.42 2.16-4.59 4.04z" fill="#cedd3e"/><path d="m380.64 42.36c-.29 19.75 30.31 50.78 70.19 61.2 2.22.58 4.72 1.15 7.47 1.7 9.28 1.86 21.5 3.55 36.13 5h.05.03c14.14 1.41 30.53 2.6 48.7 3.52 2.56.13 7.67 1.13 14.13 2.4 13.51 2.65 31.93 6.27 47.49 6.27 11.55 0 21.52-1.99 26.72-7.85-.03 9.66-2.86 18.78-7.69 24.33-10.6 12.2-56.52.63-81.19-5.58-6.18-1.56-11.06-2.79-14.04-3.32-3.99-.71-9.31-1.07-16.06-1.53-18.68-1.27-46.9-3.18-77.82-15.14-29.4-11.37-54.39-43.2-56.28-63.01-.44-4.61.4-8.26 2.46-10.93-.18 1-.28 1.99-.29 2.93z" fill="#fff"/><path d="m394.13 43.1c4.19 21.51 30.6 31.31 51.83 39.18 13.04 4.84 24.31 9.02 24.59 14.16.18 1.89-.26 3.32-1.36 4.39-3.06 2.99-10 2.32-10.57 2.26-2.66-.54-5.08-1.09-7.24-1.65-38.3-10.01-68.82-40.49-68.55-59.05.1-7.2 4.9-12.13 13.87-14.29-1.98 2.52-3.86 7.08-2.58 15z" fill="#abb833"/><path d="m567.68 104.64c-10.45 2.74-18.14 4.76-21.03 7.35-1.32-.2-2.46-.34-3.32-.38-13.72-.69-26.4-1.54-37.87-2.52 10.55-1.38 26.91-4.13 40.86-9.07h.01c.24 0 .48-.08.69-.24 0 0 0 0 .01-.01 10-3.62 18.67-8.39 22.92-14.63 2.84-4.17 3.54-8.73 2.07-13.56-4.37-14.39-28.5-12.2-56.44-9.68-27.2 2.46-57.41 5.17-69.76-8.94.11.07.22.15.33.22 11.55 6.71 32.8 1.05 55.31-4.93 27.63-7.35 56.2-14.95 65.46 1.49 10.31 18.33 20.33 27.73 29.78 27.92h.31c10.27 0 16.86-10.65 20.05-15.79.5-.81.91-1.47 1.22-1.9.92-1.26 3.1-2.41 5.4-3.61 3.97-2.08 8.48-4.44 9.51-8.8.45-1.9.18-3.96-.8-6.23.41.38.81.78 1.22 1.24 3.44 3.87 5.25 12.02 5.72 21.57-11.83 24.8-47.8 34.25-71.64 40.51z" fill="#cedd3e"/><path d="m478.38 66c3.72.12 7.57.09 11.49-.05 16.73 9.13 40.2 29.5 46.29 34.89-2.04.56-4.1 1.07-6.14 1.56-3.87-2.97-33.71-25.76-51.64-36.39z" fill="#fff"/><path d="m493.98 65.77c4.94-.26 9.94-.65 14.91-1.08 13.67 7.86 31.11 28.3 35.53 33.63-1.88.64-3.8 1.24-5.75 1.81-3.52-3.15-26.82-23.74-44.69-34.36z" fill="#fff"/><path d="m527.55 63.06c3.42-.27 6.76-.49 9.97-.62 11.77 10.1 16.78 27.5 17.79 31.43-.83.41-1.67.81-2.54 1.2-1.48-3.67-8.19-18.45-25.22-32.01z" fill="#fff"/><path d="m512.55 64.37c1.08-.1 2.16-.19 3.23-.29 2.87-.26 5.73-.52 8.54-.75 17.91 13.54 25.03 29.17 26.43 32.62-1.34.56-2.72 1.09-4.13 1.61-3.26-3.99-19.79-23.79-34.08-33.18z" fill="#fff"/><path d="m540.67 62.33c4.61-.12 8.89-.02 12.68.4 9.34 12.13 10.39 23.38 10.51 25.74-1.88 1.56-4.09 3.01-6.55 4.35-1.23-4.71-5.93-20.18-16.65-30.49z" fill="#fff"/><path d="m569.92 72.21c1.28 4.22.7 8.04-1.78 11.69-.63.93-1.38 1.83-2.23 2.69-.46-4.17-2.3-13.33-9.51-23.44 7.03 1.23 11.97 3.93 13.52 9.06z" fill="#fff"/><path d="m483.94 34.23s.04 0 .06 0c0 .02 0 .03-.01.05-.02-.02-.03-.03-.05-.05z" fill="#85c3e9"/><g stroke="#25384f" stroke-linecap="round" stroke-linejoin="round" stroke-width="2"><path d="m632.57 111.26c.74 11.76-2.57 22.3-7.87 28.39-13.71 15.78-81.16-5.86-96.25-8.54s-52.07-.48-94.08-16.72c-38.79-15-70.88-66.17-51.06-78.58" fill="none"/><path d="m632.57 111.26c-11.42 21.43-77.03 2.05-89.29 1.43s-66.09-3.38-92.17-10.19c-53.13-13.88-92.08-66.85-54.32-75.56 19.54-4.51 58.95 8.99 93.78 5.16 32.46-3.58 54.62-22.1 67.15-17.31 17.81 6.81 11.76 23.4 28.28 31.06 17.54 8.13 34.34-19.86 48.43-4.01 10.03 11.29 6.71 53.35-1.86 69.43z" fill="none"/><path d="m629.08 37.82c10.57 14.69-7.94 16.33-11.69 21.5s-20.46 41.52-49.52-10.12c-19.54-34.73-117.98 32.24-128.26-6.7-2.51-9.5 8.97-11.79 8.97-11.79" fill="none"/><path d="m562.36 17.09s17.17 14.52-4.64 23.64" fill="none"/><path d="m638.53 91.87c-5.51 7.89-27.93 16.59-28.22 22.19s5.74 6.46 5.74 6.46" fill="none"/><path d="m640.49 64.25c-17.14 36.87-86.14 40.61-93.46 48.9" fill="none"/><path d="m439.61 42.49c9.69 48.32 122.09-1.09 131.36 29.4s-76.48 37.28-76.48 37.28" fill="none"/><path d="m458.44 104.17s14.13 1.7 13.21-7.79c-.81-14.65-69.66-18.67-76.43-53.46-2.2-13.57 5.3-16.6 5.3-16.6" fill="none"/><path d="m564.97 88.95s.07-13.09-11.04-27.28" fill="none"/><path d="m556.58 94.45s-4.72-21.45-18.67-33.13" fill="none"/><path d="m552.06 96.28s-6.47-18.39-27.41-34.08" fill="none"/><path d="m546.33 98.92s-21.08-26.26-37.18-35.35" fill="none"/><path d="m538.4 101.35s-28.63-25.89-48.25-36.51" fill="none"/><path d="m529.78 103.58s-37.71-29.1-55.93-38.9" fill="none"/><path d="m546.67 50.68s-9.43-21.03-24.82-29.05" fill="none"/><path d="m533.08 17.09s-7.06 18.3-4.29 34.54" fill="none"/><path d="m525.44 50.56s-12.72-16.47-17.6-24.72" fill="none"/><path d="m514.87 24.45-2.74 28.88" fill="none"/><path d="m510.26 48.69s-10.38-14.15-18.07-20.17" fill="none"/><path d="m503.89 28.9-5.73 30.08" fill="none"/><path d="m497.85 53.72s-12.07-18.22-21.7-23.45" fill="none"/><path d="m486.73 30.73s-6.24 20.35-6.49 27.29" fill="none"/><path d="m479.14 55.32s-5.4-14.52-18.51-23.31" fill="none"/><path d="m472.83 31.6s-5.82 21.72-5.55 25.99" fill="none"/><path d="m466.13 54.77s-4.39-11.74-11.5-13.97c0 0 4.28-6.85 4.52-12.43" fill="none"/><path d="m391.18 234.29h273.12v83.65h-273.12z" fill="#fff" transform="matrix(-1 0 0 -1 1055.47 552.23)"/></g><path d="m416.72 199.85c-.98-.87-1.1-2.72-1.21-4.53l-1.32-21.1.28-.09c1.09-.25 2.19-.42 3.29-.49 2.31-.14 4.37.19 5.95.95 1.84.88 2.97 2.39 3.27 4.3.25 1.73-.11 3.36-1.09 4.85-.82 1.23-1.87 2.12-2.76 2.74 3.39 1.11 5.45 3.09 5.98 5.88v.04c.33 1.8-.1 3.51-1.16 4.86-1.29 1.62-3.48 2.65-6.01 2.8-1.28.08-2.58-.05-3.85-.44-.16.26-.4.45-.72.47-.14 0-.39-.01-.66-.24zm8.32-20.1c0-1.07-.33-1.91-.98-2.51-1.63-1.54-5.09-1.4-7.72-1.23.27 1.48.38 3.23.49 4.94.11 1.74.22 3.59.49 5.04 4.65-.54 7.47-2.82 7.72-6.23zm-.19 9.59-.04-.03-.04-.03c-1.66-1.47-4.94-1.34-7.25-1.19l.58 9.25c1.1.47 2.4.67 3.72.59 2.14-.13 3.84-.96 4.51-2.21.54-1.14.63-2.54.3-3.84-.32-1.19-.96-2.16-1.77-2.53z" fill="#25384f"/><path d="m431.4 185.47c-.02-.32-.08-.64-.13-.99-.49-3.29-.97-6.41-.92-9.55 0-.61.05-1.47.34-1.95l.1-.19h.18c.07-.02.14-.02.21-.02.5-.03.9.09 1.13.32.42.4.32 1.09.25 1.77-.02.32-.07.61-.08.94 0 1.75.35 3.94.7 6.07.21 1.13.39 2.19.52 3.22.48 3.62.97 6.44 1.89 8.53v.04c.34.8 1.02 1.97 1.77 2.57.71.56 2.25 1.11 3.74 1.02.64-.04 1.2-.18 1.69-.46.83-.44 1.52-1.99 1.94-4.44.37-2.13.47-4.57.44-6.17 0-2.32-.3-5.41-.84-8.84-.06-.42-.16-.85-.26-1.23-.32-1.19-.62-2.43-.22-3.56l.06-.18.21-.05c.67-.08 1.15.11 1.47.59.2.35.26.73.32 1.16.05.18.06.35.1.49v.04c.82 3.38 1.34 7.67 1.43 11.42.1 3.28-.13 7.73-1.56 10.5-.84 1.48-2.6 2.45-4.77 2.58-1.74.11-3.49-.35-4.87-1.27-3.12-1.98-4.14-7.39-4.84-12.31z" fill="#25384f"/><path d="m462.31 175.96c1.13 1 2.04 2.37 2.64 3.98.64 1.68.93 3.52.87 5.34-.11 1.72-1.11 5.07-1.9 6.73-.66 1.51-1.85 2.98-3.35 4.07-1.61 1.17-3.49 1.86-5.38 1.98-1.32.08-2.62-.12-3.86-.58l-.22-.09v-.21c-.81-5.85-1.02-12.16-1.22-18.25-.08-2.35-.16-4.78-.26-7.09v-.14s.09-.11.09-.11c.13-.15.27-.27.41-.35h.11s.11-.01.11-.01c.36.05.62.21.8.31.11.1.22.13.33.16 1.95.34 4.01.75 5.91 1.42 2.04.69 3.64 1.63 4.93 2.87zm-1.37 1.52c-1.87-1.85-4.62-2.96-8.87-3.56.05 2 .1 3.96.15 5.89.13 5.56.28 10.84 1.07 16.05.68.1 1.33.13 1.97.09 1.1-.07 2.05-.31 2.92-.75 1.39-.69 2.75-2.28 3.82-4.56.98-1.99 1.56-4.28 1.52-5.92.08-2.69-.95-5.52-2.59-7.23z" fill="#25384f"/><path d="m483.13 182.63c.7-.15 1.45-.27 2.16-.31.78-.05 1.36.02 1.84.28l.11.1.04.14c.38 1.55.57 3.47.51 5.36-.06 1.9-.38 3.7-.87 4.98v.04c-.59 1.47-1.53 2.99-3.91 3.14-.11 0-.21.01-.32.02-2.64.06-5.79-.64-7.6-1.63-.37-.23-.68-.53-.98-.83-.26-.2-.49-.43-.72-.6-.22-.13-.44-.22-.63-.35-.48-.26-.96-.51-1.34-.85-2.31-2.04-2.82-5.18-2.82-7.47-.02-2.64.62-5.51 1.74-7.65.63-1.36 2.13-3.13 3.24-4.17 1.21-1.18 3.21-2.45 4.87-2.77.49-.1.92-.17 1.31-.19 1.07-.07 2.58.05 3.36 1.72l.17.38-.35.13c-.25.09-.42.1-.64.11-.46.03-.79-.09-1.09-.22-.22-.09-.4-.15-.62-.18-.14 0-.28.02-.43.03-2.88.18-5.09 2.6-6.71 4.71-1.42 1.88-2.38 4.76-2.46 7.51-.13 3.08.81 5.59 2.59 7.09.22.16.52.32.82.48.33.16.67.35.96.55.26.2.49.44.72.63.3.27.53.54.83.63v.04c.92.44 3.5 1.17 5.32 1.06.53-.03.99-.13 1.27-.33h.04c1.11-.61 1.69-3.82 1.85-6.41.06-1.4-.01-2.5-.25-3.45-.49.1-1.03.17-1.59.28-.81.19-1.69.36-2.48.4-1.14.07-1.97-.13-2.64-.55l-.15-.13v-.21c.09-1.15 1.27-1.22 1.66-1.25.32-.02.61 0 .89.02.25-.02.5 0 .71 0 .5-.07 1.06-.17 1.59-.28z" fill="#25384f"/><path d="m500.96 167.84c.32-.06.67-.11 1.03-.14.39-.02 1-.03 1.38.34.23.2.31.44.3.8v.11s-.06.08-.06.08c-.42.63-1.2.79-1.95.84-.18.01-.36-.01-.54 0l-.43.03c-.57.07-1.14.11-1.77.18-2.24.18-4.73.4-6.52.91.2 3.2.42 6.73.54 10.44 1.47.05 2.82 0 4.03-.07.93-.06 1.78-.15 2.56-.23.32-.06.67-.15 1.02-.21.49-.1.99-.24 1.45-.27.85-.05 1.44.23 1.87.81l.16.2-.2.23c-.57.64-1.53.74-2.41.86-.25.02-.5.03-.75.08-1.7.28-3.58.47-5.5.59-.68.04-1.35.08-2.03.09 0 1-.02 1.97-.04 2.86-.05 2.68-.08 5.01.06 7.79.61.03 1.22.03 1.93-.01 1.14-.07 2.31-.25 3.44-.39 1.1-.18 2.23-.35 3.3-.42 1.67-.1 2.79.08 3.57.49l.26.16-.13.26c-.2.73-.72 1.08-1.54 1.13-.39.02-.82-.02-1.22-.07-.36-.05-.72-.06-1.04-.04-1.03.06-2.1.2-3.26.38-1.21.15-2.44.33-3.65.41-1.35.08-2.46.05-3.41-.18l-.22-.06-.05-.25c-.39-4.01-.49-8.4-.61-12.65-.11-4.67-.21-9.13-.67-13.11l-.02-.28.24-.09c1.73-.86 4.54-1.07 7.25-1.27 1.03-.06 1.99-.16 2.88-.25h.04c.18-.01.42-.06.71-.08z" fill="#25384f"/><path d="m510.95 169.97c-.46.03-1 .06-1.49.13-.53.07-1.06.14-1.56.17-1.28.08-2.86 0-3.27-1.44l-.13-.38.42-.06c1.03-.17 2.09-.31 3.23-.38 1.25-.08 2.5-.08 3.82-.09 1.04 0 2.11-.02 3.28-.06h.04c.14-.01.29-.02.43-.03.36-.02.71-.04 1.07-.1.36-.02.71-.08 1.07-.1 1-.06 2.18 0 2.75 1.08l.08.17-.1.15c-.29.59-.89.7-1.35.73-.21.01-.43 0-.64 0-.18.01-.39-.01-.54 0-.46.03-.89.09-1.28.12s-.82.09-1.21.11c-.32.02-.64 0-.93.02.59 4.86.85 11.38 1.11 17.15.05 1.35.13 2.67.17 3.92v.04c.02.21.03.46.05.71.11.67.19 1.35-.12 2.01l-.06.11-.14.04c-.21.08-.39.1-.57.11-.28.02-.54-.04-.73-.24-.42-.37-.42-1.01-.45-1.54.03-.15.02-.25.01-.36-.23-8.2-.74-14.74-1.47-21.92-.36-.08-.83-.09-1.47-.05z" fill="#25384f"/><path d="m534.34 165.76c.32-.06.67-.11 1.03-.14.39-.02 1-.03 1.38.34.23.2.31.44.3.8v.11s-.06.08-.06.08c-.43.63-1.2.79-1.95.84-.18.01-.36-.01-.54 0-.14 0-.29.02-.43.03-.57.07-1.14.11-1.77.18-2.24.18-4.73.4-6.52.91.2 3.2.42 6.73.54 10.44 1.47.05 2.82 0 4.03-.07.92-.06 1.78-.15 2.56-.23.32-.05.67-.15 1.02-.21.49-.1.99-.24 1.45-.27.85-.05 1.44.23 1.87.81l.16.2-.2.23c-.57.64-1.53.74-2.41.86-.25.02-.5.03-.74.08-1.7.28-3.58.47-5.5.59-.68.04-1.35.08-2.03.09 0 1-.02 1.97-.04 2.86-.05 2.68-.08 5.01.06 7.79.61.03 1.22.03 1.93-.01 1.14-.07 2.31-.25 3.44-.39 1.1-.18 2.23-.35 3.3-.42 1.67-.1 2.79.08 3.57.49l.26.16-.13.26c-.21.73-.72 1.08-1.54 1.13-.39.02-.82-.02-1.22-.07-.36-.05-.72-.06-1.04-.04-1.03.06-2.1.2-3.26.38-1.21.15-2.44.33-3.66.41-1.35.08-2.46.05-3.41-.18l-.22-.06-.05-.25c-.39-4.01-.49-8.4-.61-12.65-.11-4.67-.21-9.13-.67-13.11l-.02-.28.24-.09c1.73-.86 4.54-1.07 7.24-1.27 1.03-.06 1.99-.16 2.88-.25h.04c.18-.01.42-.06.71-.08z" fill="#25384f"/><path d="m552.48 170.34c1.13 1 2.04 2.37 2.64 3.98.64 1.68.93 3.52.87 5.34-.11 1.72-1.11 5.07-1.9 6.73-.66 1.51-1.85 2.98-3.36 4.07-1.61 1.17-3.49 1.86-5.38 1.98-1.32.08-2.62-.12-3.86-.58l-.22-.09v-.21c-.81-5.85-1.02-12.16-1.22-18.25-.08-2.35-.15-4.78-.26-7.09v-.14s.09-.11.09-.11c.13-.15.27-.27.41-.35h.11s.11-.01.11-.01c.36.05.62.21.8.31.11.1.22.13.33.16 1.95.34 4.01.75 5.91 1.42 2.04.69 3.64 1.63 4.93 2.87zm-1.37 1.52c-1.87-1.85-4.61-2.96-8.87-3.56.05 2 .1 3.96.15 5.89.13 5.56.28 10.84 1.07 16.05.69.1 1.33.13 1.97.09 1.1-.07 2.05-.31 2.92-.75 1.39-.69 2.75-2.28 3.82-4.56.98-1.99 1.56-4.28 1.52-5.92.08-2.69-.95-5.52-2.59-7.23z" fill="#25384f"/><path d="m573.95 190.98c-.44-.19-1.02-.26-1.6-.36-1.33-.2-2.85-.43-3.23-1.91l-.05-.18.13-.15c.27-.27.58-.43.94-.45.53-.03 1.08.22 1.64.51.66.28 1.36.59 2.07.55.11-2.22.08-4.47.05-6.65-.03-2.21-.03-4.46.08-6.76-.51-.18-1.05-.29-1.6-.44-.91-.19-1.85-.42-2.62-.84-.92-.51-1.47-1.23-1.67-2.22-.35-1.55.11-3.44 1.18-5.15.98-1.49 2.37-2.72 3.73-3.27-.02-.28-.07-.57-.12-.85-.1-.42-.16-.88-.16-1.45l.03-.15.13-.12c.31-.2.59-.32.87-.34 1.03-.06 1.64 1.11 1.76 2.39.36.05.79.02 1.22.03.85-.05 1.74-.11 2.24.4.26.23.39.58.38 1.01l.02.25-.28.09c-.14.04-.35.06-.57.07-.29.02-.61.04-.93.02-.36-.01-.72-.03-1.07 0-.36.02-.64.08-.88.16.02 2.54.43 6.4.73 8.24 2.27.25 4.29 1.23 5.75 2.79.8.81 1.4 1.77 1.78 2.82.43 1.12.61 2.32.58 3.57-.08 2.08-.82 4.05-2.12 5.56-1.4 1.7-3.37 2.64-5.69 2.78-.04 0-.11 0-.18.01.01.21.06.39.07.57.1.46.17.95-.09 1.43l-.06.11-.11.04c-.24.12-.45.17-.67.19-.64.04-1.09-.29-1.47-.59l-.11-.1-.1-1.64zm-3.29-21.27c-.32 1.13-.27 1.98.2 2.56.51.68 1.53 1.05 3 1.1-.06-1.6-.23-3.13-.36-4.62-.05-.85-.14-1.74-.23-2.63 0 .04-.03.04-.03.07-.88.84-2.16 2.1-2.57 3.52zm5.85 19.32s.11 0 .14 0c3.67-.23 5.45-3.77 5.27-7.15-.12-3.14-1.89-6.24-5.53-6.19-.08 3.83-.21 9.3.12 13.35z" fill="#25384f"/><path d="m589.87 187.31c-1.23-.78-2.12-1.98-2.72-3.58-.55-1.36-.83-3.02-.88-4.88-.02-3.21.72-6.87 1.98-9.56 1.16-2.57 2.72-5.6 4.47-6.21.28-.09.53-.14.74-.15.5-.03 1.19.14 1.61 1.15l.12.28-.28.16c-3.62 2.08-5.04 6.25-5.9 10.23 1.36-.59 2.79-1.1 4.25-1.19.89-.06 1.72.04 2.48.27.95.33 2.17 1.08 3.34 2.01.56.47 1.93 1.67 2.34 2.64.38.9.49 2.15.36 3.44-.11 1.15-.39 2.28-.81 3.05-.32.66-.98 1.49-1.76 2.22-.54.46-1.56 1.31-2.62 1.56-.46.14-.95.24-1.45.27-1.78.11-3.46-.43-5.29-1.71zm4.19-.37c.29.02.57.04.86.02 1.6-.1 2.5-1.12 3.5-2.29.1-.11.16-.22.27-.3.09-.33.17-.65.26-.94.45-1.42.83-2.77.33-4.45-1.32-1.74-3.9-3.51-6.5-3.35-.89.06-1.73.36-2.48.83l-.03.04c-.07.04-.41.35-.88.81-.5.5-.73.83-.77.9-.19.4-.06 1.93.12 3.06v.04c.39 3.33 2.98 5.35 5.32 5.63z" fill="#25384f"/><path d="m603.9 171.78c.36-2.2 1.02-4.32 1.88-5.94.45-.81 1.27-2.04 2.56-3.05 1.26-1.04 2.72-1.63 4.29-1.77 1.28-.12 2.36-.04 3.33.15 1.05.22 1.93.59 2.72 1.19h.04c.71.56 1.59 1.51 2.22 2.43.67.92 1.43 2.34 1.66 3.08.44 1.4.4 3.05.4 4.65-.01.36-.02.75 0 1.07.01 6.5-1.04 10.85-3.13 12.88-1.65 1.6-4.31 1.88-4.81 1.91-.14 0-.25.02-.36.02-1.42.09-2.79-.11-4-.57-1.13-.43-2.21-1.11-3.13-2.06-1.68-1.68-2.94-4.17-3.63-7.2-.41-2.01-.42-4.37-.03-6.79zm4.33 11.56c1.14 1.61 3.35 3.26 6.27 3.07.6-.04 1.21-.15 1.8-.33 1.72-.54 2.87-2.04 3.57-4.62.63-2.47.7-5.4.66-7.69 0-.57.04-1.15.04-1.68.06-1.4.08-2.68-.23-3.67v-.04c-.72-2.31-2.76-4.76-4.48-5.33-.58-.18-1.27-.24-1.94-.2-1.25.08-2.54.48-3.65 1.08-2.11 1.63-3.66 4.94-4.13 8.8-.46 4.03.28 7.88 2.09 10.59z" fill="#25384f"/><path d="m455.92 282.41c-.13-2.1-.02-4.35.35-6.49.8-4.75 2.72-8.34 5.27-9.91h.04s.07-.04.07-.04c.5-.11 1.07-.16 1.64-.16 1.43-.02 2.96.32 4.18.95 1.33.66 2.19 1.54 2.42 2.5l.08.36-.36.08c-.21.07-.43.11-.64.11-.75 0-1.15-.41-1.51-.77-.18-.21-.4-.42-.65-.56h-.04c-.72-.49-1.54-.73-2.36-.72-1.18.01-2.24.6-2.83 1.57l-.04.04-.04.04c-1.73 1.55-2.98 4.64-3.39 8.35-.42 3.64.02 7.45 1.12 10.22.69 1.1 2.6 3.11 3.61 3.45.29.07.64.14 1 .13.93-.01 1.81-.34 2.53-.57.25-.11.46-.18.64-.22.1-.18.21-.4.31-.61.56-1.11.94-1.83 1.55-1.84.46 0 .79.13.93.45.33.6-.2 1.46-.9 2.47-.14.22-.32.47-.35.54l-.03.11-.11.11c-1.03.8-2.98 1.64-4.72 1.66-.89.01-1.64-.16-2.29-.54-1.51-.66-3.32-3.28-4.16-4.8v-.04c-.7-1.63-1.15-3.66-1.32-5.87z" fill="#25384f"/><path d="m476.85 291.32c-1.44-1.09-2.63-2.57-3.37-4.2-1.03-2.41-1.52-5.19-1.45-8.08s.72-5.61 1.83-7.83c1.46-2.83 3.58-4.68 6.18-5.28.07 0 .11-.04.18-.04.04 0 .07.03.11.03.29-.04.71-.08.93-.08.78 0 1.85.05 2.46.26 1.32.34 2.83 1.14 4.17 2.3 1.33 1.13 2.42 2.43 3.08 3.74.62 1.24.96 2.63.98 4.3.02 1.46-.18 3.11-.62 5.04-1.15 5.36-2.78 8.73-4.98 10.26-1.38.87-2.84 1.35-4.33 1.37-1.78.02-3.57-.6-5.16-1.79zm3.35-.11c.25.03.46.03.75.03 1.78-.02 3.8-1.01 4.58-1.73 2.04-1.99 2.93-5.28 3.5-8.28.37-1.82.84-4.11.72-5.68-.21-2.53-2.12-4.54-3.13-5.63-1.44-1.44-2.84-2.03-4.84-2.01-.43 0-.93.05-1.43.12-1.88.63-3.43 2.18-4.51 4.44-1.84 3.95-1.99 9.33-.37 13.73.33.89 1.13 2.09 2 3.04.98 1.09 1.98 1.83 2.73 1.96z" fill="#25384f"/><path d="m502.33 292.8c-1.71.02-3.64-.38-5.26-1.11-1.72-.76-2.91-1.82-3.39-2.92-.15-.32-.33-1.03-.38-1.67-.08-1.14.3-1.57.62-1.72v-.04c.21-.07.43-.15.6-.15.32 0 .75.17.97.84.11.39.12.85.16 1.32 0 .36.04.71.12.93.41 1.17 2.06 1.97 4.95 2.33v.04c.46.07.93.1 1.39.09 2.14-.03 4.2-.94 5.53-2.46 1.06-1.19 1.54-2.66 1.34-4.19-.32-2.71-2.29-3.33-4.97-4.26-.47-.14-.93-.31-1.43-.48-.14-.03-.32-.1-.46-.17-1.75-.59-3.94-1.34-5.49-2.61-.86-.7-1.48-1.48-1.78-2.37-.37-1.03-.35-2.17.03-3.39.41-1.47 1.22-2.69 2.31-3.56 1.24-.98 2.8-1.5 4.55-1.52.29 0 .61 0 .93.02 2.71.22 4.33 1.3 4.53 2.98l.04.5-.46-.1c-.71-.13-1.22-.45-1.68-.73-.47-.28-.9-.52-1.51-.62-.32-.07-.64-.1-1-.09-1.21.01-2.56.39-3.31.86-1.31.73-2.82 3.21-2.29 5.41.26.92.98 1.67 2.13 2.19 1.04.52 2.4.9 3.8 1.27 2.07.55 4.22 1.09 5.73 2.25 1.3.95 2.17 2.51 2.44 4.25.31 1.89-.1 3.75-1.19 5.22-1.26 1.83-3.92 3.29-6.59 3.61-.32.04-.68.04-1 .05z" fill="#25384f"/><path d="m516.33 267.99c-.46 0-1 .01-1.5.05-.53.04-1.07.08-1.57.09-1.28.02-2.85-.14-3.19-1.6l-.11-.39.43-.04c1.03-.12 2.1-.2 3.24-.22 1.25-.02 2.5.04 3.82.1 1.04.06 2.1.08 3.28.1h.04.43c.36 0 .71 0 1.07-.05.36 0 .71-.04 1.07-.05 1-.01 2.18.12 2.69 1.22l.07.18-.11.14c-.31.57-.92.65-1.38.66-.21 0-.43-.03-.64-.03-.18 0-.39-.03-.54-.03-.46 0-.89.05-1.28.05s-.82.05-1.21.05c-.32 0-.64-.03-.93-.02.34 4.88.28 11.41.24 17.19-.02 1.35 0 2.67-.02 3.92v.04.71c.08.68.12 1.35-.23 2l-.07.11-.14.04c-.21.07-.39.08-.57.08-.29 0-.54-.06-.72-.28-.4-.39-.37-1.03-.38-1.57.03-.14.03-.25.03-.36.19-8.2 0-14.76-.37-21.96-.36-.1-.82-.13-1.46-.12z" fill="#25384f"/><path d="m536.59 292.39c-1.71.02-3.64-.38-5.26-1.11-1.72-.76-2.91-1.82-3.39-2.92-.15-.32-.33-1.03-.38-1.67-.08-1.14.3-1.57.62-1.72v-.04c.21-.07.43-.15.6-.15.32 0 .75.17.97.85.11.39.12.85.16 1.32 0 .36.04.71.12.93.41 1.17 2.06 1.97 4.95 2.33v.04c.46.07.93.1 1.39.09 2.14-.03 4.2-.94 5.53-2.46 1.06-1.19 1.54-2.66 1.34-4.19-.32-2.71-2.29-3.33-4.97-4.26-.47-.14-.93-.31-1.43-.48-.14-.03-.32-.1-.46-.17-1.75-.59-3.94-1.34-5.49-2.61-.86-.7-1.48-1.48-1.78-2.37-.37-1.03-.35-2.17.03-3.39.41-1.47 1.22-2.69 2.31-3.56 1.24-.98 2.8-1.5 4.55-1.52.29 0 .61 0 .93.02 2.71.22 4.33 1.3 4.53 2.98l.04.5-.46-.1c-.71-.13-1.22-.45-1.68-.73-.47-.28-.9-.52-1.51-.62-.32-.07-.64-.1-1-.09-1.21.01-2.56.39-3.31.86-1.31.73-2.81 3.21-2.29 5.41.26.92.98 1.67 2.13 2.19 1.04.52 2.4.9 3.8 1.27 2.07.55 4.22 1.09 5.73 2.25 1.3.95 2.17 2.51 2.44 4.25.31 1.89-.1 3.75-1.18 5.22-1.26 1.83-3.92 3.29-6.59 3.61-.32.04-.68.04-1 .05z" fill="#25384f"/><path d="m561.98 292.33c-.43-.21-1-.31-1.58-.44-1.32-.27-2.82-.57-3.13-2.07l-.04-.18.14-.14c.28-.25.6-.4.96-.4.54 0 1.07.27 1.61.59.65.31 1.33.66 2.04.65.22-2.21.3-4.46.38-6.64.08-2.21.2-4.46.42-6.75-.5-.21-1.04-.34-1.58-.52-.89-.24-1.82-.51-2.58-.97-.9-.56-1.41-1.3-1.56-2.3-.27-1.56.28-3.43 1.44-5.08 1.05-1.44 2.5-2.6 3.88-3.08 0-.29-.04-.57-.08-.85-.08-.43-.12-.89-.09-1.46l.04-.14.14-.11c.32-.18.6-.29.89-.3 1.03-.01 1.58 1.19 1.63 2.48.36.07.79.06 1.21.09.86-.01 1.75-.02 2.22.51.25.25.37.6.33 1.03v.25s-.28.07-.28.07c-.14.04-.36.04-.57.04-.29 0-.61 0-.93-.02-.36-.03-.71-.06-1.07-.06s-.64.04-.89.12c-.11 2.53.11 6.42.31 8.27 2.25.37 4.23 1.45 5.6 3.07.76.85 1.31 1.84 1.64 2.9.37 1.14.49 2.35.4 3.6-.19 2.07-1.02 4.01-2.4 5.45-1.48 1.62-3.5 2.47-5.82 2.5-.04 0-.11 0-.18 0 0 .21.04.39.04.57.08.46.12.96-.16 1.43l-.07.11-.11.04c-.25.11-.46.15-.67.15-.64 0-1.08-.34-1.44-.66l-.11-.11-.02-1.64zm-2.22-21.41c-.38 1.11-.37 1.97.07 2.57.47.71 1.48 1.12 2.94 1.25.02-1.6-.07-3.14-.13-4.63-.01-.85-.06-1.75-.1-2.64 0 .04-.04.04-.04.07-.92.8-2.26 1.99-2.74 3.38zm4.87 19.59s.11 0 .14 0c3.67-.04 5.63-3.49 5.62-6.88.03-3.14-1.57-6.33-5.21-6.46-.27 3.82-.67 9.28-.55 13.34z" fill="#25384f"/><path d="m589.26 265.93c.69.74.2 1.85-.21 2.86-.14.32-.28.64-.38.93-.38 1-.69 2.08-1.07 3.19-.48 1.54-1 3.11-1.55 4.55h.18c.29-.04.61-.08.93-.08.39 0 1 .02 1.36.41.22.25.29.57.3.96l-.04.11-.07.11c-.56.54-1.49.59-2.38.63-.36 0-.71.04-1.07.08-1.18 2.94-2.25 5.95-3.04 8.52-.07.32-.14.61-.2.97-.13.71-.27 1.5-.83 2.11l-.07.11h-.11c-.14.04-.25.04-.36.04-.32 0-.57-.07-.75-.17-.07-.04-.14-.03-.21-.07l-.21-.07-.04-.21c-.16-1.46.36-2.82.91-4.15.17-.54.42-1.08.55-1.58v-.04c.31-.82.55-1.65.79-2.47.24-.89.51-1.82.82-2.68-.07 0-.14 0-.25 0-.32 0-.64.04-1 .05-.39.04-.75.08-1.11.08-.53 0-1.18-.06-1.57-.48-.25-.32-.33-.75-.23-1.28l.07-.29h.29c.46-.04.96-.05 1.5-.09 1.07-.05 2.21-.06 3.21-.32.69-1.72 1.31-3.58 1.9-5.37.48-1.47 1-3.01 1.55-4.48-.21 0-.39 0-.64 0-.93.01-1.86-.08-2.86-.18-1.07-.09-2.14-.22-3.28-.21-.36 0-.82.08-1.32.16-.53.08-1.07.19-1.57.2-.54 0-.96-.09-1.29-.27-.43-.25-.69-.6-.8-1.13l-.04-.18.14-.14c.46-.47 1.1-.55 1.67-.56.21 0 .39.03.57.03h.5c.25 0 .5-.04.78-.12.39-.04.78-.12 1.14-.12h.04c.64.03 1.32.13 1.93.23.46.07.93.13 1.43.16.29.03.57.03.93.02.43 0 .89-.05 1.32-.05.39 0 .82-.05 1.25-.05.96-.01 1.68.05 2.32.19l.11.03.07.11z" fill="#25384f"/><path d="m599.67 289.85c-1.44-1.09-2.63-2.57-3.37-4.2-1.03-2.41-1.52-5.19-1.45-8.08s.72-5.61 1.83-7.83c1.46-2.83 3.58-4.68 6.18-5.28.07 0 .11-.04.18-.04.04 0 .07.03.11.03.29-.04.71-.08.93-.08.79 0 1.86.05 2.46.26 1.32.34 2.83 1.14 4.17 2.3 1.33 1.13 2.42 2.43 3.08 3.74.62 1.24.96 2.63.98 4.3.02 1.46-.18 3.11-.62 5.04-1.15 5.36-2.78 8.73-4.98 10.26-1.38.87-2.84 1.35-4.33 1.37-1.78.02-3.57-.6-5.16-1.79zm3.35-.11c.25.03.46.03.75.03 1.78-.02 3.8-1.01 4.58-1.73 2.04-1.99 2.93-5.28 3.5-8.28.37-1.82.84-4.11.72-5.68-.21-2.53-2.12-4.54-3.14-5.63-1.44-1.44-2.84-2.03-4.84-2.01-.43 0-.93.05-1.43.12-1.88.63-3.43 2.18-4.51 4.44-1.84 3.95-1.99 9.33-.37 13.73.33.89 1.13 2.09 2 3.04.98 1.09 1.98 1.83 2.73 1.96z" fill="#25384f"/><path d="m92.48 320.79h270.93v81.46h-270.93z" fill="#f0f6fc"/><path d="m247.99 222.3 82.47-4.22 19.52-1.03 4.28 81.35-270.55 14.22-4.28-81.34 168.1-8.84c.17 0 .32-.06.46-.14z" fill="#f0f6fc"/><path d="m247.47 221.34-169.2 8.9 4.39 83.53 272.74-14.34-4.39-83.53-95.76 4.78" fill="#fff" stroke="#25384f" stroke-linecap="round" stroke-linejoin="round" stroke-width="2"/><path d="m91.38 319.7h273.12v83.65h-273.12z" fill="#fff" stroke="#25384f" stroke-linecap="round" stroke-linejoin="round" stroke-width="2" transform="matrix(-1 0 0 -1 455.88 723.04)"/><path d="m119.9 288.17c-.98-.87-1.1-2.72-1.21-4.53l-1.32-21.1.28-.09c1.09-.25 2.19-.42 3.29-.49 2.31-.14 4.37.19 5.95.95 1.84.89 2.97 2.39 3.27 4.3.25 1.74-.11 3.37-1.09 4.86-.82 1.23-1.87 2.12-2.76 2.74 3.39 1.11 5.44 3.09 5.98 5.88v.04c.33 1.8-.1 3.51-1.16 4.86-1.29 1.62-3.48 2.65-6.01 2.8-1.28.08-2.58-.05-3.85-.44-.16.26-.4.45-.72.47-.14 0-.39-.01-.66-.25zm8.32-20.1c0-1.07-.33-1.91-.98-2.51-1.63-1.54-5.09-1.4-7.72-1.23.27 1.48.38 3.23.49 4.94.11 1.74.22 3.59.49 5.04 4.65-.54 7.47-2.82 7.72-6.23zm-.19 9.59-.04-.03-.04-.03c-1.66-1.47-4.94-1.34-7.26-1.19l.58 9.25c1.1.47 2.4.67 3.72.59 2.14-.13 3.84-.95 4.51-2.21.54-1.14.63-2.54.3-3.84-.32-1.2-.96-2.16-1.77-2.53z" fill="#25384f"/><path d="m134.58 273.79c-.02-.32-.08-.64-.13-.99-.49-3.29-.97-6.41-.92-9.55 0-.61.05-1.47.34-1.95l.1-.19h.18c.07-.02.14-.02.21-.02.5-.03.9.09 1.13.32.42.4.32 1.09.25 1.77-.02.32-.07.61-.08.93 0 1.75.35 3.94.7 6.07.21 1.13.39 2.19.52 3.22.48 3.62.97 6.44 1.89 8.53v.04c.34.8 1.02 1.97 1.77 2.57.71.56 2.25 1.11 3.74 1.02.64-.04 1.2-.18 1.69-.46.83-.44 1.52-1.99 1.94-4.44.37-2.13.47-4.57.44-6.17 0-2.32-.3-5.41-.84-8.85-.06-.42-.16-.85-.26-1.23-.32-1.19-.62-2.43-.22-3.56l.06-.18.21-.05c.67-.08 1.15.11 1.47.59.2.35.26.73.32 1.16.05.18.06.35.1.49v.04c.82 3.38 1.34 7.67 1.43 11.42.1 3.28-.13 7.73-1.56 10.49-.84 1.48-2.6 2.45-4.77 2.58-1.74.11-3.49-.35-4.87-1.27-3.12-1.99-4.14-7.39-4.84-12.31z" fill="#25384f"/><path d="m165.49 264.29c1.13 1 2.04 2.37 2.64 3.98.64 1.67.93 3.52.87 5.34-.11 1.72-1.11 5.07-1.9 6.73-.66 1.51-1.85 2.97-3.35 4.07-1.61 1.17-3.49 1.86-5.38 1.98-1.32.08-2.62-.12-3.86-.58l-.22-.09v-.21c-.81-5.85-1.02-12.16-1.22-18.25-.08-2.35-.16-4.78-.26-7.09v-.14s.09-.11.09-.11c.13-.15.27-.27.41-.35h.11s.11-.01.11-.01c.36.05.62.21.81.31.11.1.22.13.33.16 1.95.34 4.01.75 5.91 1.42 2.04.7 3.64 1.63 4.93 2.87zm-1.37 1.51c-1.87-1.85-4.62-2.96-8.87-3.56.05 2 .1 3.96.15 5.89.13 5.56.28 10.84 1.07 16.05.69.1 1.33.13 1.97.09 1.1-.07 2.05-.31 2.92-.75 1.39-.69 2.75-2.28 3.82-4.56.98-1.99 1.56-4.28 1.52-5.92.08-2.68-.95-5.51-2.59-7.23z" fill="#25384f"/><path d="m186.31 270.96c.7-.15 1.45-.27 2.16-.31.78-.05 1.36.02 1.84.28l.11.1.04.14c.38 1.55.57 3.46.51 5.36s-.38 3.7-.87 4.99v.04c-.59 1.47-1.53 2.99-3.91 3.14-.11 0-.21.01-.32.02-2.64.06-5.79-.64-7.6-1.63-.37-.23-.68-.53-.98-.83-.26-.2-.49-.43-.72-.6-.22-.13-.44-.22-.63-.35-.48-.26-.96-.51-1.34-.84-2.31-2.04-2.82-5.18-2.82-7.47-.02-2.64.62-5.5 1.74-7.65.63-1.36 2.13-3.13 3.24-4.17 1.21-1.18 3.21-2.45 4.87-2.77.49-.1.92-.17 1.31-.19 1.07-.07 2.58.05 3.36 1.72l.17.38-.35.13c-.24.09-.42.1-.64.11-.46.03-.79-.09-1.09-.22-.22-.09-.4-.15-.62-.18-.14 0-.28.02-.43.03-2.88.18-5.09 2.6-6.71 4.71-1.42 1.88-2.38 4.76-2.46 7.51-.13 3.08.81 5.59 2.59 7.09.22.16.52.33.82.48.33.16.66.35.96.55.26.2.49.43.72.63.3.27.53.54.82.63v.04c.92.44 3.51 1.18 5.32 1.06.53-.03.99-.13 1.27-.33h.04c1.11-.61 1.69-3.82 1.85-6.41.06-1.4-.01-2.5-.25-3.45-.49.1-1.03.17-1.59.28-.81.19-1.69.36-2.48.4-1.14.07-1.97-.13-2.64-.55l-.15-.13v-.21c.09-1.15 1.27-1.22 1.66-1.25.32-.02.61 0 .89.02.25-.02.5 0 .71 0 .5-.07 1.06-.17 1.59-.28z" fill="#25384f"/><path d="m204.14 256.16c.32-.06.67-.11 1.03-.14.39-.02 1-.03 1.38.34.23.2.31.45.3.8v.11s-.06.08-.06.08c-.43.63-1.2.79-1.95.84-.18.01-.36-.01-.54 0-.14 0-.29.02-.43.03-.57.07-1.14.11-1.77.18-2.24.18-4.73.4-6.52.91.2 3.2.42 6.73.54 10.43 1.47.05 2.82 0 4.03-.07.93-.06 1.78-.15 2.56-.23.32-.06.67-.15 1.02-.21.49-.1.99-.24 1.45-.27.85-.05 1.44.23 1.87.81l.16.2-.2.23c-.57.64-1.53.74-2.41.87-.25.02-.5.03-.74.08-1.7.28-3.58.47-5.5.59-.68.04-1.35.08-2.03.09 0 1-.02 1.97-.04 2.86-.05 2.68-.08 5.01.06 7.79.61.03 1.22.03 1.93-.01 1.14-.07 2.31-.25 3.44-.39 1.1-.18 2.23-.35 3.3-.42 1.67-.1 2.79.08 3.57.49l.26.16-.13.26c-.2.73-.72 1.08-1.54 1.13-.39.02-.82-.02-1.22-.07-.36-.05-.72-.06-1.04-.04-1.03.06-2.1.2-3.26.38-1.21.15-2.44.33-3.65.41-1.35.08-2.46.05-3.41-.18l-.22-.06-.05-.25c-.39-4.01-.49-8.4-.61-12.65-.11-4.67-.21-9.13-.67-13.11l-.02-.29.24-.09c1.73-.86 4.54-1.07 7.24-1.27 1.03-.06 1.99-.16 2.88-.25h.04c.18-.01.42-.06.71-.08z" fill="#25384f"/><path d="m214.13 258.29c-.46.03-1 .06-1.49.13-.53.07-1.06.14-1.56.17-1.28.08-2.86 0-3.27-1.44l-.13-.38.42-.06c1.03-.17 2.09-.31 3.23-.38 1.25-.08 2.5-.08 3.82-.09 1.04 0 2.11-.03 3.28-.06h.04c.14-.01.28-.02.43-.03.36-.02.71-.04 1.06-.1.36-.02.71-.08 1.07-.1 1-.06 2.18 0 2.75 1.08l.08.17-.1.15c-.28.59-.89.7-1.35.73-.21.01-.43 0-.64 0-.18.01-.39-.01-.54 0-.46.03-.89.09-1.28.12s-.82.09-1.21.11c-.32.02-.64 0-.93.02.59 4.86.85 11.38 1.11 17.15.05 1.35.13 2.67.17 3.92v.04c.02.21.03.46.05.71.11.67.19 1.35-.12 2.01l-.06.11-.14.04c-.21.08-.39.09-.56.11-.29.02-.54-.04-.73-.24-.42-.37-.42-1.01-.45-1.54.03-.14.02-.25.01-.36-.23-8.2-.74-14.75-1.47-21.92-.36-.08-.83-.09-1.47-.05z" fill="#25384f"/><path d="m237.51 254.08c.32-.06.67-.11 1.03-.14.39-.02 1-.03 1.38.34.23.2.31.45.3.8v.11s-.06.08-.06.08c-.43.63-1.2.79-1.95.84-.18.01-.36-.01-.54 0-.14 0-.29.02-.43.03-.57.07-1.14.11-1.77.18-2.24.18-4.73.4-6.52.91.2 3.2.42 6.73.54 10.43 1.47.05 2.82 0 4.03-.07.92-.06 1.78-.15 2.56-.23.32-.06.67-.15 1.02-.21.49-.1.98-.24 1.45-.27.85-.05 1.44.23 1.87.81l.16.2-.2.23c-.57.64-1.53.74-2.41.87-.25.02-.5.03-.74.08-1.7.28-3.58.47-5.5.59-.68.04-1.35.08-2.03.09 0 1-.02 1.97-.04 2.86-.05 2.68-.08 5.01.06 7.79.61.03 1.22.03 1.93-.01 1.14-.07 2.31-.25 3.44-.39 1.1-.18 2.23-.35 3.3-.42 1.67-.1 2.79.08 3.57.49l.26.16-.13.26c-.2.73-.72 1.08-1.54 1.13-.39.02-.82-.02-1.22-.07-.36-.05-.72-.06-1.04-.04-1.03.06-2.1.2-3.26.38-1.21.15-2.44.33-3.65.41-1.35.08-2.46.05-3.41-.18l-.22-.06-.05-.25c-.39-4.01-.49-8.4-.61-12.64-.11-4.67-.21-9.13-.67-13.11l-.02-.29.24-.09c1.73-.86 4.54-1.07 7.25-1.27 1.03-.06 1.99-.16 2.88-.25h.04c.18-.01.42-.06.71-.08z" fill="#25384f"/><path d="m255.66 258.67c1.13 1 2.04 2.37 2.64 3.98.64 1.67.93 3.52.87 5.34-.11 1.72-1.11 5.07-1.9 6.73-.66 1.51-1.85 2.97-3.35 4.07-1.61 1.17-3.49 1.86-5.38 1.98-1.32.08-2.62-.12-3.86-.58l-.22-.09v-.21c-.81-5.85-1.02-12.16-1.22-18.25-.08-2.35-.16-4.78-.26-7.09v-.14s.09-.11.09-.11c.13-.15.27-.27.41-.35h.11s.11-.01.11-.01c.36.05.62.21.81.31.11.1.22.13.33.16 1.95.34 4.01.75 5.91 1.42 2.04.7 3.64 1.63 4.93 2.87zm-1.37 1.51c-1.87-1.85-4.62-2.96-8.87-3.56.05 2 .1 3.96.15 5.89.13 5.56.28 10.84 1.07 16.05.69.1 1.33.13 1.97.09 1.1-.07 2.05-.31 2.92-.75 1.39-.69 2.75-2.28 3.82-4.56.98-1.99 1.56-4.28 1.52-5.92.08-2.68-.95-5.51-2.59-7.23z" fill="#25384f"/><path d="m277.13 279.3c-.44-.19-1.02-.26-1.59-.36-1.33-.2-2.85-.43-3.23-1.91l-.05-.17.13-.15c.27-.27.58-.43.94-.45.53-.03 1.09.22 1.64.51.66.28 1.36.59 2.07.55.11-2.22.08-4.47.05-6.65-.03-2.21-.03-4.46.08-6.76-.51-.18-1.05-.29-1.6-.44-.91-.19-1.85-.42-2.63-.84-.92-.51-1.47-1.23-1.67-2.22-.35-1.55.11-3.44 1.18-5.15.98-1.49 2.37-2.72 3.73-3.27-.02-.29-.07-.57-.12-.85-.1-.42-.16-.88-.16-1.45l.03-.14.14-.12c.31-.2.59-.32.87-.34 1.03-.06 1.64 1.11 1.76 2.39.36.05.79.02 1.22.03.85-.05 1.74-.11 2.24.4.26.23.39.58.38 1.01l.02.25-.28.09c-.14.04-.35.06-.57.07-.28.02-.6.04-.93.02-.36-.01-.72-.03-1.07 0-.36.02-.64.08-.88.16.02 2.54.44 6.4.73 8.24 2.27.25 4.29 1.23 5.75 2.79.8.81 1.4 1.77 1.78 2.82.43 1.12.61 2.32.58 3.57-.08 2.08-.82 4.05-2.12 5.56-1.4 1.7-3.37 2.64-5.69 2.78-.04 0-.11 0-.18.01.01.21.06.39.07.57.1.46.17.95-.09 1.43l-.06.11-.1.04c-.24.12-.45.17-.67.18-.64.04-1.09-.29-1.47-.59l-.11-.1-.1-1.64zm-3.29-21.27c-.32 1.13-.27 1.98.2 2.56.51.68 1.53 1.05 3 1.1-.06-1.6-.23-3.13-.36-4.62-.05-.85-.14-1.74-.23-2.63 0 .04-.03.04-.03.07-.88.84-2.16 2.1-2.57 3.52zm5.85 19.32s.11 0 .14 0c3.67-.23 5.45-3.77 5.27-7.15-.12-3.14-1.89-6.24-5.53-6.19-.08 3.83-.21 9.3.12 13.36z" fill="#25384f"/><path d="m296.74 254.07c-.38-.4-.83-.63-1.33-.63-.11 0-.21.01-.28.02-.82.05-1.55.38-2.1.67-.03.04-.1.08-.14.08-.31.2-.61.47-.92.74-.57.54-1.11 1.07-1.9 1.12-.36.02-.72-.1-1.13-.29l-.15-.1v-.18c-.08-1.17 1.3-1.97 2.33-2.54l.07-.04c1.24-.79 2.5-1.23 3.63-1.3 1.1-.07 2.12.19 2.98.81 1.54 1.12 2.32 3.32 2.22 6.44-.03 4.72-2.23 8.96-4.14 12.73-.71 1.29-1.34 2.55-1.81 3.69 1.59-.31 3.4-.43 5.18-.54 1.46-.09 2.85-.18 4.08-.4l.57-.07-.12.36c.26.13.7.31.73.85.02.25-.04.5-.17.69-.33.41-1.08.5-1.65.53-.25.02-.46.03-.68.04l-.43.03v-.04c-1.04 0-2.18.03-3.35.1-.89.09-1.74.21-2.51.37-.85.16-1.66.32-2.37.36-.75.05-1.32-.02-1.83-.21l-.11-.06-.08-.1c-.48-.76-.02-1.46.34-1.95.13-.19.23-.34.29-.52h.04c.64-1.19 1.17-2.4 1.77-3.65.41-.92.85-1.84 1.33-2.8 1.22-2.29 2.54-6.34 2.72-9.6.12-1.51-.19-3.6-1.11-4.61z" fill="#25384f"/><path d="m311.84 275.1c-1.49-1.01-2.76-2.44-3.57-4.03-1.15-2.36-1.78-5.11-1.86-8-.07-2.89.43-5.64 1.44-7.91 1.32-2.9 3.34-4.85 5.9-5.58.07 0 .1-.04.18-.05.04 0 .07.03.11.03.28-.05.71-.12.92-.13.78-.05 1.86-.04 2.47.13 1.34.28 2.88 1 4.27 2.09 1.39 1.06 2.54 2.31 3.26 3.58.68 1.21 1.09 2.58 1.19 4.25.09 1.46-.02 3.11-.36 5.06-.88 5.41-2.34 8.86-4.45 10.5-1.33.94-2.77 1.5-4.26 1.59-1.78.11-3.6-.42-5.24-1.53zm3.34-.28c.25.02.46 0 .75-.01 1.78-.11 3.75-1.2 4.49-1.96 1.94-2.09 2.66-5.42 3.08-8.45.28-1.84.63-4.15.43-5.71-.33-2.52-2.35-4.43-3.41-5.47-1.51-1.37-2.94-1.89-4.93-1.76-.43.03-.92.09-1.42.2-1.85.72-3.32 2.35-4.28 4.66-1.64 4.03-1.52 9.42.32 13.74.38.87 1.23 2.03 2.15 2.94 1.03 1.04 2.07 1.73 2.83 1.82z" fill="#25384f"/><path d="m176.66 371.77v.14s-.08.1-.08.1c-.19.24-.52.51-1.2.48-.18 0-.39-.02-.6-.1l-.25-.05-.03-.22c-.68-4.1-.88-8.39-1.27-12.55-.29-3.05-.39-6.48-.83-9.6-.86 1.75-1.86 4.13-2.59 6.06-.49 1.37-.94 2.67-1.41 3.72v.04s-.08.1-.12.21c-.59 1.29-1.13 2.16-1.78 2.24-.07.03-.11.03-.18.03-1.1-.05-1.51-1.46-1.78-2.47-.06-.25-.16-.47-.22-.65-.09-.4-.22-.79-.34-1.16-.77-2.71-1.68-5.71-2.6-8.18-.59 3.01-1.07 6.49-1.58 9.89-.41 2.87-1.09 6.06-1.43 8.93-.06.53-.12 1.14-.32 1.63-.32.81-.76.97-1.18.95-.21 0-.43-.05-.71-.17l-.21-.08v-.25c-.04-2.04.5-3.94.88-6.03 1.13-6.13 1.61-12.35 2.98-19.18l.18-.06c.22-.06.43-.12.68-.11 1.53.07 2.04 2.23 2.49 3.43.62 1.35 1.66 4.53 2.44 7.07.28.98.68 2.35.9 3 .67-1.51 1.33-3.55 1.97-5.05 1.08-2.7 2.1-5.48 3.42-8.02v-.04s.08-.07.08-.07c.22-.2.44-.34.8-.32.07 0 .14 0 .25.05.6.1 1.07.9 1.31 2.66 1.04 7.18 1.03 16.32 2.31 23.73z" fill="#25384f"/><path d="m183.93 371.12c-1.38-1.17-2.49-2.71-3.13-4.38-.89-2.47-1.23-5.26-1-8.15.23-2.88 1.03-5.56 2.27-7.72 1.62-2.75 3.84-4.47 6.46-4.93.07 0 .11-.03.18-.03.04 0 .07.04.1.04.29-.02.72-.04.93-.03.79.03 1.85.15 2.45.39 1.3.41 2.76 1.3 4.03 2.53 1.27 1.2 2.28 2.56 2.86 3.91.55 1.27.81 2.68.74 4.35-.06 1.46-.35 3.09-.9 4.99-1.45 5.29-3.27 8.57-5.54 9.97-1.43.79-2.91 1.19-4.4 1.13-1.78-.08-3.53-.8-5.05-2.08zm3.35.08c.25.05.46.06.75.07 1.78.08 3.85-.79 4.67-1.47 2.15-1.87 3.22-5.11 3.96-8.07.47-1.8 1.07-4.06 1.03-5.63-.07-2.54-1.87-4.65-2.82-5.8-1.36-1.52-2.72-2.19-4.72-2.28-.43-.02-.93 0-1.43.04-1.91.52-3.55 1.99-4.75 4.18-2.06 3.84-2.51 9.21-1.14 13.69.28.9 1.01 2.15 1.83 3.15.91 1.15 1.88 1.94 2.62 2.11z" fill="#25384f"/><path d="m218.1 347 .24.12-.05.28c-.75 3.36-1.84 6.13-3.04 9.08-.56 1.4-1.16 2.84-1.69 4.39-.36.88-.73 1.9-1.09 2.88-.48 1.26-.97 2.56-1.38 3.69-.16.42-.29.92-.42 1.44-.14.67-.31 1.38-.59 2.08v.04c-.6 1.4-1.3 2.76-2.12 2.83l-.04.03s-.04 0-.07 0c-.71-.03-1.25-.73-1.69-2.18-.31-1.05-.47-2.3-.61-3.2-.06-.32-.08-.58-.11-.75-.92-4.36-1.45-8.56-2-13.04-.16-1.26-.32-2.58-.51-3.95-.06-.32-.15-.68-.24-1.01-.22-.72-.4-1.48-.29-2.3l.05-.35.36.05c.96.11 1.65.68 2 1.69.28.83.35 1.8.42 2.7.02.36.04.71.06 1.04.45 4.48 1.32 9.05 2.16 13.44.2 1.22.43 2.34.63 3.49.32-.81.61-1.65.93-2.53.25-.74.49-1.51.78-2.25.57-1.55 1.14-3.13 1.71-4.67.85-2.32 1.71-4.74 2.6-7.13.25-.7.46-1.41.66-2.08.46-1.44.87-2.78 1.56-3.86l.04-.03v-.04c.04-.14.13-.53.6-.54h.11c.46.02.67.24.84.43.07.11.13.18.2.22z" fill="#25384f"/><path d="m232.07 347.61c.32-.02.68-.04 1.04-.03.39.02 1 .08 1.33.49.2.22.26.48.21.83v.11s-.08.07-.08.07c-.49.59-1.28.66-2.03.62-.18 0-.35-.05-.53-.06-.14 0-.29-.01-.43-.02-.57.01-1.14-.01-1.78 0-2.25-.06-4.74-.1-6.58.21-.14 3.21-.29 6.73-.56 10.43 1.45.21 2.81.3 4.02.35.93.04 1.78.04 2.57.04.32-.02.68-.08 1.04-.1.5-.05 1.01-.13 1.47-.11.86.04 1.41.38 1.78 1.01l.13.22-.22.2c-.63.58-1.6.57-2.49.6-.25-.01-.5-.02-.75 0-1.72.1-3.61.09-5.53 0-.68-.03-1.35-.06-2.03-.12-.11.99-.23 1.95-.34 2.84-.33 2.66-.61 4.97-.77 7.75.6.1 1.21.16 1.92.19 1.14.05 2.32 0 3.46-.03 1.11-.06 2.25-.12 3.32-.07 1.67.07 2.77.37 3.5.87l.24.19-.15.24c-.28.7-.83 1-1.65.96-.39-.02-.82-.11-1.21-.2-.35-.09-.71-.14-1.03-.15-1.03-.05-2.1-.02-3.29.04-1.21.02-2.47.07-3.68.02-1.35-.06-2.45-.21-3.37-.54l-.21-.08-.03-.25c.03-4.03.4-8.41.73-12.64.38-4.66.76-9.1.72-13.1v-.29s.27-.06.27-.06c1.81-.67 4.63-.58 7.34-.5 1.03.04 2 .05 2.89.05h.04c.18 0 .43-.02.71 0z" fill="#25384f"/><path d="m250.27 376.07c-.42-.23-.98-.37-1.55-.53-1.3-.34-2.79-.73-3.01-2.24l-.03-.18.15-.14c.3-.24.62-.37.98-.35.54.02 1.06.33 1.58.68.63.35 1.29.74 2 .77.35-2.2.55-4.44.75-6.61.2-2.2.44-4.44.79-6.71-.49-.24-1.02-.4-1.54-.6-.88-.29-1.79-.61-2.52-1.11-.87-.61-1.33-1.38-1.43-2.38-.18-1.58.47-3.41 1.72-4.99 1.13-1.38 2.64-2.45 4.05-2.86.01-.29-.01-.57-.03-.86-.05-.43-.07-.9 0-1.46l.04-.14.15-.1c.33-.16.62-.26.9-.25 1.03.05 1.51 1.28 1.49 2.56.35.09.78.11 1.21.16.86.04 1.75.08 2.19.63.24.26.33.62.28 1.05v.25s-.3.06-.3.06c-.14.03-.36.02-.57.01-.29-.01-.61-.03-.93-.08-.35-.05-.71-.1-1.07-.12s-.64 0-.9.07c-.25 2.52-.25 6.42-.15 8.27 2.23.49 4.14 1.68 5.42 3.38.71.89 1.2 1.91 1.48 2.99.31 1.16.36 2.37.2 3.61-.3 2.06-1.24 3.94-2.7 5.31-1.57 1.54-3.63 2.27-5.95 2.17-.04 0-.11 0-.18 0 0 .21.02.39.01.57.05.47.06.97-.24 1.42l-.08.1-.11.03c-.25.1-.47.12-.68.11-.64-.03-1.05-.4-1.4-.74l-.1-.11.07-1.64zm-1.02-21.5c-.44 1.09-.48 1.94-.08 2.57.43.73 1.41 1.2 2.86 1.41.11-1.6.1-3.14.13-4.63.04-.86.04-1.75.04-2.64 0 .04-.04.03-.04.07-.96.74-2.37 1.86-2.93 3.23zm3.77 19.83s.11 0 .14 0c3.67.16 5.81-3.17 6-6.55.21-3.13-1.22-6.41-4.85-6.74-.49 3.8-1.19 9.23-1.3 13.29z" fill="#25384f"/><path d="m272.04 372.67c-.01 1.11-.02 2.18-.24 3.06l-.05.21-.18.06c-.25.1-.58.22-.9.21-.21 0-.42-.09-.6-.2l-.14-.11-.03-.14c-.27-3.69.16-7.63.59-11.79.41-3.62.79-7.39.74-11.21-.43.16-.88.53-1.32.87-.26.2-.55.44-.85.64h-.04s-.11.06-.15.1c-.51.26-1.57.86-2.32.83-.54-.02-.84-.36-.85-.93.02-.5.72-1 2.37-1.93.18-.1.37-.2.48-.26.29-.17.59-.37.85-.57.81-.54 1.66-1.14 2.55-1.1.39.02.74.18 1.09.44l.14.11v.14c.53 4.98-.05 9.89-.58 14.65-.17 1.49-.35 3.05-.49 4.58-.07.75-.07 1.57-.07 2.35z" fill="#25384f"/><path d="m283.76 375.5c-1.38-1.17-2.49-2.71-3.13-4.39-.89-2.47-1.23-5.26-1-8.15.23-2.88 1.03-5.56 2.27-7.72 1.62-2.75 3.84-4.47 6.46-4.93.07 0 .11-.03.18-.03.04 0 .07.04.1.04.29-.02.72-.04.93-.03.78.03 1.85.15 2.45.39 1.3.41 2.76 1.3 4.03 2.53 1.27 1.2 2.28 2.56 2.86 3.91.55 1.27.81 2.68.74 4.35-.06 1.46-.35 3.09-.9 4.99-1.45 5.29-3.27 8.57-5.54 9.97-1.43.79-2.91 1.19-4.4 1.13-1.78-.08-3.54-.8-5.05-2.08zm3.35.08c.25.05.46.06.75.07 1.78.08 3.85-.79 4.67-1.47 2.15-1.87 3.22-5.11 3.96-8.07.47-1.8 1.07-4.06 1.03-5.63-.07-2.54-1.87-4.65-2.82-5.8-1.36-1.52-2.72-2.19-4.72-2.28-.43-.02-.93 0-1.43.04-1.91.52-3.55 1.99-4.75 4.18-2.06 3.84-2.51 9.21-1.14 13.69.28.9 1.01 2.15 1.83 3.15.91 1.15 1.88 1.94 2.62 2.11z" fill="#25384f"/><path d="m181.62 138.84c.91-11.26 1.65-20.04 1.91-23.1l84.84 9.62c-.43 3.04-1.67 11.77-3.31 22.94-7.19.69-22.14 1.51-42.17-.76-20.02-2.27-34.42-6.41-41.27-8.7z" fill="#fff"/><path d="m213.42 231.01c-25.12-2.85-35.47-7.77-36.69-11.11-.19-.54-.49-3.77.56-21.72 6.98 3.38 20.62 8.9 38.61 10.94s32.52-.29 40.08-2.02c-3 17.73-4.02 20.8-4.32 21.29-1.94 2.98-13.12 5.46-38.24 2.61z" fill="#fff"/><path d="m182.57 113.3s0 0 0 0l-2.85-.32c-1.9-.21-3.29-1.95-3.07-3.85l.41-3.6c.22-1.91 1.94-3.29 3.85-3.07l92.63 10.51c.92.1 1.75.56 2.33 1.3.58.73.85 1.64.74 2.56l-.41 3.6c-.1.92-.56 1.75-1.29 2.33s-1.64.85-2.56.74l-89.78-10.18s0 0 0 0z" fill="#fff"/><path d="m188.24 87.98 81.76 9.28c1.04.14 2.51 5.88 2.97 13.3l-90.61-10.28c2.11-7.13 4.82-12.39 5.88-12.3z" fill="#fff"/><path d="m173.92 193.8 3.79-53.86c4.8 1.77 20.9 7.19 44.91 9.91 24.02 2.73 40.92 1.05 45.99.4l-8.37 53.34c-3.52 1.08-20.84 5.86-44.09 3.23-23.24-2.64-39.06-11.18-42.24-13.02z" fill="#caa575"/><path d="m267.77 129.59-84.61-9.48c.16-1.93.29-3.42.37-4.36l84.84 9.62c-.13.92-.34 2.36-.6 4.22z" fill="#ecedee"/><path d="m266.08 149.38c2.12-14.45 3.61-25.03 3.61-25.03" fill="none" stroke="#25384f" stroke-linecap="round" stroke-linejoin="round" stroke-width="2"/><path d="m176.24 196.38c-.77 12.86-1.13 22.45-.59 23.92 1.84 5.04 16.52 9.47 37.65 11.86 21.12 2.4 36.42 1.37 39.35-3.13.85-1.31 2.65-10.74 4.78-23.45" fill="none" stroke="#25384f" stroke-linecap="round" stroke-linejoin="round" stroke-width="2"/><path d="m182.48 114.45s-.92 10.65-2.09 25.21" fill="none" stroke="#25384f" stroke-linecap="round" stroke-linejoin="round" stroke-width="2"/><rect fill="none" height="12.91" rx="2.36" stroke="#25384f" stroke-linecap="round" stroke-linejoin="round" stroke-width="2" transform="matrix(-.99363099 -.11268297 .11268297 -.99363099 439.1 250.76)" width="102.51" x="175.38" y="106.51"/><path d="m180.87 101.28s4.1-14.84 7.51-14.45 40.88 4.64 40.88 4.64 37.47 4.25 40.88 4.64 4.08 15.76 4.08 15.76" fill="none" stroke="#25384f" stroke-linecap="round" stroke-linejoin="round" stroke-width="2"/><path d="m216.03 207.97c-26.57-3.01-43.32-13.54-43.32-13.54l3.95-56.14s17.11 7.12 46.09 10.4c28.98 3.29 47.25.18 47.25.18l-8.72 55.6s-18.68 6.51-45.25 3.49z" fill="none" stroke="#25384f" stroke-linecap="round" stroke-linejoin="round" stroke-width="2"/></svg>