<svg enable-background="new 0 0 110 110" viewBox="0 0 110 110" xmlns="http://www.w3.org/2000/svg"><path d="m50.5 40.2-1-9.5c.5-.5 1.1-.9 1.8-1.3 2.1-1.1 4.8-1.1 7.9.1l-1 14.7c-1.1-.7-2.4-1.3-3.6-1.9-1.4-.6-2.9-1.3-4.1-2.1zm4.5-35c-11.2 0-18.2 5.7-22.2 10.5-4.9 6-7.7 13.8-7.7 21.4 0 9.3 4.3 15.3 8.2 20.6 2.2 3 4.2 5.8 5.2 8.9.4 1.4.6 3.4.7 5.5.2 2.3.4 4.7.9 5.6.2.4.5.8 1 1.3 0 0 .1.1.1.1 1.4 1.3 4.2 2.6 11 2.9v-20.4l-.4-3.9c-2.5-.5-4.8-1.5-6-3-.1-.1-.1-.3.1-.4.1-.1.3-.1.4.1 1 1.4 3.2 2.3 5.5 2.8l-1.8-16.7c-2.1-1.4-3.5-3.2-3.2-5.8.2-1.3.9-3 2.1-4.2l-.6-5.2c0-.2.1-.3.2-.3s.3.1.3.2l.5 4.8c.5-.4 1-.8 1.6-1.1 1.7-.8 4.3-1.4 8.2 0l.2-3.7c0-.2.1-.3.3-.2.2 0 .3.1.2.3l-.3 3.9c.9.4 1.9.8 3 1.4.1.1.2.2.1.4s-.2.2-.4.1c-1-.5-1.9-1-2.8-1.3l-1 14.8c2.7 1.7 4.6 3.8 4.2 7.3-.4 3.7-3 5.2-5 5.8l-.2 3.8v20.5c6.9-.3 9.8-1.7 11.1-2.9 0 0 .1-.1.1-.1.5-.5.8-.9 1-1.3.6-.9.8-3.3.9-5.6.2-2 .3-4.1.7-5.5.9-3 3-5.9 5.2-8.9 3.8-5.3 8.2-11.3 8.2-20.6 0-7.7-2.8-15.5-7.7-21.4-3.7-4.8-10.7-10.5-21.9-10.5zm-.3 76.9h.6 1.8v-20.8l.2-3.7c-.8.2-1.6.3-2.6.3-.8 0-1.6-.1-2.4-.2l.4 3.8v20.5c.7 0 1.3.1 2 .1zm2.7-25 .8-12.3c-1.2-.7-2.5-1.3-3.8-2-1.3-.6-2.6-1.3-3.8-2l1.7 16.3c1.8.4 3.6.3 5.1 0zm-10-22.3c-.3 2.2.8 3.7 2.5 5l-.9-8.6c-.9 1.1-1.5 2.5-1.6 3.6zm15 16.9c.4-3.1-1.3-5-3.7-6.6l-.8 11.9c1.9-.6 4.1-2 4.5-5.3z" fill="#fdbe2a"/><path d="m55.3 86.5h-.6c-6.8 0-10.1-.8-11.6-1.7-.3.2-1 .7-1 1.4 0 .2.1 1.2 2.2 2.1 2.2 1 5.8 1.5 10.5 1.5h.6c4.7 0 8.2-.5 10.5-1.5 2.1-.9 2.2-2 2.2-2.1 0-.7-.7-1.2-1-1.4-1.7.9-5 1.7-11.8 1.7z" fill="#d8e9f7"/><path d="m54.8 83c-7.6 0-11.2-1.2-13.1-2.5.2.7.3 2.7.6 3.1.2.3.5.5.8.7 0 0 .1 0 .1.1 2.8 1.5 9.3 1.6 11.5 1.6h.6c2.2 0 8.7-.1 11.5-1.6 0 0 .1-.1.1-.1.3-.2.6-.4.8-.7.3-.4.7-2.4.8-3.1-1.9 1.3-5.5 2.5-13.1 2.5z" fill="#d8e9f7"/><path d="m55.3 94.1h-.6c-6.7 0-10-1-11.7-2.1-.3.2-1 .7-1 1.4 0 .2.1 1.2 2.2 2.1 2.2 1 5.8 1.5 10.5 1.5h.6c4.7 0 8.2-.5 10.5-1.5 2.1-.9 2.2-2 2.2-2.1 0-.7-.7-1.2-1-1.4-1.7 1-5 2.1-11.7 2.1z" fill="#d8e9f7"/><path d="m54.7 100.7c-5.1 0-8.7-.9-10.6-1.8 2.4 2.2 7.7 5.9 10.6 5.9h.6c3 0 8.2-3.7 10.6-5.9-2 .9-5.5 1.8-10.6 1.8z" fill="#c4d7e9"/><path d="m55.3 97.6h-.6c-7.2 0-10.5-1.2-12-2.3-.1.7-.2 1.7 0 2.2.3.7 4.4 2.7 11.9 2.7h.6c7.5 0 11.6-2.1 11.9-2.7.2-.5.1-1.5 0-2.2-1.3 1.1-4.6 2.3-11.8 2.3z" fill="#d8e9f7"/><path d="m55.3 90.5h-.6c-6.7 0-10-1-11.6-2.1-.3.2-1.1.7-1.1 1.4 0 .5.6 1.4 2.2 2.1 2.2 1 5.8 1.5 10.5 1.5h.6c4.7 0 8.2-.5 10.5-1.5 1.6-.7 2.2-1.6 2.2-2.1 0-.7-.8-1.3-1.1-1.4-1.6 1-5 2.1-11.6 2.1z" fill="#d8e9f7"/><g style="fill:none;stroke:#3e4147;stroke-width:1.0776;stroke-linecap:round;stroke-linejoin:round;stroke-miterlimit:10"><path d="m55.3 82.3c11.4 0 13.7-2.7 14.8-4.5s.8-8.2 1.7-11.2c2.6-8.3 13.4-14.9 13.4-29.6 0-14.6-10.7-32.1-30.2-32.1s-30.2 17.5-30.2 32.2 10.8 21.3 13.4 29.6c.9 2.9.6 9.4 1.7 11.2s3.4 4.5 14.8 4.5z"/><path d="m69 79.2s-.2 3.3-1.1 4.5-4.4 2.5-12.6 2.5h-.6c-8.2 0-11.7-1.2-12.6-2.5-.9-1.2-1.1-4.5-1.1-4.5"/><path d="m66.9 84.5s1.3.6 1.3 1.7-2 3.9-13 3.9h-.6c-11 0-13-2.8-13-3.9s1.3-1.7 1.3-1.7"/><path d="m66.9 88.1s1.4.7 1.4 1.8-2 3.9-13 3.9h-.6c-11 0-13-2.8-13-3.9s1.4-1.8 1.4-1.8"/><path d="m66.9 91.7s1.3.6 1.3 1.7-2 3.9-13 3.9h-.6c-11 0-13-2.8-13-3.9s1.3-1.7 1.3-1.7"/><path d="m67.5 94.8s.3 2 0 2.8-4.5 2.9-12.2 2.9h-.6c-7.7 0-11.8-2.1-12.2-2.9-.3-.8 0-2.8 0-2.8"/><path d="m67.5 97.6c-.2 1.2-8.4 7.5-12.2 7.5h-.6c-3.8 0-11.9-6.3-12.2-7.5"/><path d="m62.6 30.8c-10.7-6-15.1.5-15.5 4-1.1 8.4 16.7 7.4 15.5 17-1 8.5-13.7 6.4-16.6 2.7"/><path d="m48.7 25.2 3.8 36.4v20.4"/><path d="m59.7 25.2-2.3 36.1v20.7"/></g></svg>