<svg enable-background="new 0 0 110 110" viewBox="0 0 110 110" xmlns="http://www.w3.org/2000/svg"><path d="m19.9 22.3h70.7v5.4h-70.7z" fill="#e6e7e8"/><path d="m97.1 71.2c-3.4 3.7-26.6 22.5-33.4 26.5-2.8 2.4-10.6 3.6-23.3 3.6-.9 0-1.8 0-2.7 0-10.6-.1-21.5-1-27.2-1.5v1.1c0 1.1.9 1.9 1.9 1.9h87.1c1.1 0 1.9-.9 1.9-1.9v-39.2c-.7 3.4-1.9 7.3-4.3 9.5z" fill="#dee4eb"/><path d="m42.7 21.8c-.8.7-1.3 1.7-1.3 2.7 0 2 1.6 3.5 3.5 3.5s3.5-1.6 3.5-3.5c0-1.1-.5-2.1-1.3-2.7v2.7c0 1.2-1 2.3-2.3 2.3s-2.3-1-2.3-2.3v-2.7z" fill="#70b1de"/><path d="m64.2 21.8c-.8.7-1.3 1.7-1.3 2.7 0 2 1.6 3.5 3.5 3.5 2 0 3.5-1.6 3.5-3.5 0-1.1-.5-2.1-1.3-2.7v2.7c0 1.2-1 2.3-2.3 2.3-1.2 0-2.3-1-2.3-2.3.2.1.2-2.7.2-2.7z" fill="#70b1de"/><path d="m85.7 21.8c-.8.7-1.3 1.7-1.3 2.7 0 2 1.6 3.5 3.5 3.5s3.5-1.6 3.5-3.5c0-1.1-.5-2.1-1.3-2.7v2.7c0 1.2-1 2.3-2.3 2.3-1.2 0-2.3-1-2.3-2.3z" fill="#70b1de"/><path d="m21.2 21.8c-.8.7-1.3 1.7-1.3 2.7 0 2 1.6 3.5 3.5 3.5s3.5-1.6 3.5-3.5c0-1.1-.5-2.1-1.3-2.7v2.7c0 1.2-1 2.3-2.3 2.3-1.2 0-2.3-1-2.3-2.3.2.1.2-2.7.2-2.7z" fill="#70b1de"/><path d="m51.2 77.5c0-4.3-2-7.5-6-9.5-.1-.1-.2-.2-.2-.3s.1-.2.2-.3c3.3-2 5.3-5.6 5.3-9.4 0-6.8-5.2-11.2-13.4-11.2-5.1 0-9.8 1.1-14.3 3.5l3.4 9c2.6-1.1 5.8-1.9 7.9-1.9 2.4 0 3.7 1.1 3.7 3 0 3-2.9 3.3-5 3.3h-4.5v8.8h5.8c2.5 0 4 1.2 4 3.2s-1.5 3.2-4.1 3.2c-2 0-5.2-.4-8.2-1.6l-3.4 9.2c3.4 1.5 7.5 2.8 14.7 2.8 10.4 0 14.1-6.1 14.1-11.8z" fill="#85c3e9"/><path d="m10.4 70.9c0 8-1.2 21-1.7 26.3 0 .4.1.9.4 1.2s.7.5 1.1.6c5.6.5 16.7 1.4 27.5 1.5 14 .2 22.8-1 25.6-3.4 2.5-2.2 3.9-4.8 4.6-7.4-5.3-.9-13.8-5-13.8-21.7 0-6.5 1.6-12 4.7-15.8 3.2-4 7.9-6.1 13.7-6.1 4.9 0 9.1 1.8 12 5.1 3.3 3.8 5 9.4 5 16.8 0 2-.2 3.8-.4 5.6 3.1-.5 5.9-1.4 7.6-3 4.8-4.2 4.7-15.8 4.7-15.9v-18.8h-91zm11.4 15.7 3.6-9.9c0-.1.1-.2.2-.2h.3c3 1.3 6.2 1.7 8.2 1.7 1.3 0 3.4-.3 3.4-2.6 0-2.2-2.1-2.5-3.3-2.5h-6.2c-.2 0-.3-.1-.3-.3v-9.4c0-.2.1-.3.3-.3h4.8c3.1 0 4.4-.8 4.4-2.7 0-2-1.7-2.4-3.1-2.4-2.1 0-5.4.8-7.9 2-.1 0-.2 0-.3 0s-.2-.1-.2-.2l-3.6-9.6c-.1-.2 0-.3.2-.4 4.7-2.5 9.6-3.7 14.9-3.7 8.5 0 14 4.7 14 11.9 0 3.9-2 7.5-5.2 9.6 3.9 2.2 5.8 5.5 5.8 9.8 0 6-3.9 12.5-14.7 12.5-7.4 0-11.7-1.4-15.2-3-.1 0-.1-.2-.1-.3z" fill="#f0f6fc"/><path d="m47.2 12.4h17v2.4h-17z" fill="#a6d6f9"/><path d="m25.7 12.4h17v2.4h-17z" fill="#a6d6f9"/><path d="m96.9 12.4h-6.6v2.4h10.3z" fill="#a6d6f9"/><path d="m68.7 12.4h17v2.4h-17z" fill="#a6d6f9"/><path d="m21.2 12.4h-6.4l-3.6 2.4h10z" fill="#a6d6f9"/><path d="m90.3 21c1.2.8 1.9 2.1 1.9 3.5 0 2.3-1.9 4.2-4.2 4.2s-4.2-1.9-4.2-4.2c0-1.4.7-2.8 1.9-3.5v-5.6h-17v5.6c1.2.8 1.9 2.1 1.9 3.5 0 2.3-1.9 4.2-4.2 4.2s-4.2-1.9-4.2-4.2c0-1.4.7-2.8 1.9-3.5v-5.6h-17v5.6c1.2.8 1.9 2.1 1.9 3.5 0 2.3-1.9 4.2-4.2 4.2s-4.2-1.9-4.2-4.2c0-1.4.7-2.8 1.9-3.5v-5.6h-17v5.6c1.2.8 1.9 2.1 1.9 3.5 0 2.3-1.9 4.2-4.2 4.2s-4.2-1.9-4.2-4.2c0-1.4.7-2.8 1.9-3.5v-5.6h-10.5v19.8h91v-19.7h-11.1z" fill="#85c3e9"/><path d="m71.9 57.8c-1.6 0-3.5 1.2-3.5 10.2 0 3.4.3 6 .8 7.8.1-.2.2-.4.4-.5.6-.6 2.2-.7 5.1-.7.3-1.6.5-3.7.5-6.3-.1-10.5-2.4-10.5-3.3-10.5z" fill="#f0f6fc"/><path d="m76.8 74.4c3.5 0 7.7-.1 11.5-.6.3-1.8.5-3.7.5-5.7 0-19.2-11.4-21.3-16.4-21.3-11.1 0-17.7 7.9-17.7 21.2 0 16.2 8.2 20.2 13.3 21 .7-2.9.6-5.7.6-8.1 0-1.7 0-3.1.2-4.2-.7-1.8-1.1-4.6-1.1-8.7 0-7.6 1.2-10.9 4.1-10.9 2.7 0 3.9 3.3 3.9 11 0 2.5-.2 4.6-.5 6.3.6.1 1.1.1 1.6 0z" fill="#85c3e9"/><path d="m94.3 72.9c-4.7 2.1-11.9 2.1-17.5 2.2-3.2 0-6.3.1-6.9.6-.8.7-.8 2.7-.7 5.3 0 4.3.1 10-3.6 14.6 7.4-5.1 22.5-17.2 28.7-22.7z" fill="#dee4eb"/><path d="m45 7.3c-.9 0-1.6.7-1.6 1.6v1.6c0-.9.7-1.6 1.6-1.6s1.6.7 1.6 1.6v-1.6c0-.9-.7-1.6-1.6-1.6z" fill="#e6e7e8"/><path d="m66.5 7.3c-.9 0-1.6.7-1.6 1.6v1.6c0-.9.7-1.6 1.6-1.6s1.6.7 1.6 1.6v-1.6c0-.9-.7-1.6-1.6-1.6z" fill="#e6e7e8"/><path d="m88 7.3c-.9 0-1.6.7-1.6 1.6v1.5c0-.9.7-1.6 1.6-1.6s1.6.7 1.6 1.6v-1.5c0-.9-.7-1.6-1.6-1.6z" fill="#e6e7e8"/><path d="m23.5 7.3c-.9 0-1.6.7-1.6 1.6v1.6c0-.9.7-1.6 1.6-1.6s1.6.7 1.6 1.6v-1.5c0-1-.7-1.7-1.6-1.7z" fill="#e6e7e8"/><path d="m25.1 10.5v3.1.1 3.1 6.2c0 .9-.7 1.6-1.6 1.6s-1.6-.7-1.6-1.6v-12.5c0-.9.7-1.6 1.6-1.6s1.6.7 1.6 1.6zm19.9-1.6c-.9 0-1.6.7-1.6 1.6v12.5c0 .9.7 1.6 1.6 1.6s1.6-.7 1.6-1.6v-12.5c0-.9-.7-1.6-1.6-1.6zm43 0c-.9 0-1.6.7-1.6 1.6v3.1 9.4c0 .9.7 1.6 1.6 1.6s1.6-.7 1.6-1.6v-12.5c0-.9-.7-1.6-1.6-1.6zm-21.5 0c-.9 0-1.6.7-1.6 1.6v12.5c0 .9.7 1.6 1.6 1.6s1.6-.7 1.6-1.6v-12.5c0-.9-.7-1.6-1.6-1.6z" fill="#e6e7e8"/><g style="fill:none;stroke:#3e4147;stroke-width:1.0335;stroke-linecap:round;stroke-linejoin:round;stroke-miterlimit:10"><path d="m43 12.1h-17.6"/><path d="m64.6 12.1h-8.7-9"/><path d="m86.1 12.1h-17.7"/><path d="m89.9 15.1h11.8l-4.7-3h-7.1"/><path d="m68.4 15.1h17.7"/><path d="m46.9 15.1h9 8.7"/><path d="m25.4 15.1h17.6"/><path d="m21.5 12.1h-6.8l-4.6 3h11.4"/><path d="m101.7 15.1v20.5h-45.8-45.8v-20.5"/><path d="m101.7 35.6v65.1c0 1.3-1 2.3-2.3 2.3h-43.5-43.6c-1.3 0-2.3-1-2.3-2.3v-1.4"/><path d="m101.7 54.8s.1 11.8-4.8 16.1c-6.4 5.7-25.3 2.8-27.1 4.5-2.5 2.4 2.2 14.6-6.3 22-6.9 5.9-44.3 2.8-53.3 2-1.1-.1-1.9-1.1-1.8-2.2.5-5 1.7-18.3 1.7-26.3v-35.3"/><path d="m63.5 97.4c6.7-4 30-22.8 33.4-26.4"/><path d="m37.2 89.6c-7.6 0-11.9-1.5-15.1-3l3.6-9.9c3.1 1.3 6.3 1.7 8.4 1.7 2 0 3.7-.8 3.7-2.9 0-1.8-1.4-2.8-3.6-2.8h-6.2v-9.4h4.8c3 0 4.7-.8 4.7-3 0-1.7-1.1-2.7-3.4-2.7-2.2 0-5.5.9-8.1 2l-3.6-9.6c3.7-2 8.5-3.6 14.7-3.6 8.5 0 13.7 4.7 13.7 11.6 0 4-2.2 7.7-5.5 9.7 3.9 2 6.2 5.2 6.2 9.8 0 6.5-4.4 12.1-14.3 12.1z"/><path d="m68.2 89.5c-7.8-1.2-13.8-7.6-13.8-21.4 0-12.8 6.3-21.5 18-21.5 9.2 0 16.7 6.2 16.7 21.6 0 2.1-.2 4.1-.5 6"/><path d="m74.9 74.8c.3-1.6.5-3.7.5-6.6 0-9.2-1.8-10.7-3.6-10.7-2 0-3.8 1.7-3.8 10.5 0 4.5.4 7.2 1.1 8.7"/><path d="m21.5 21.2c-1.2.7-1.9 1.9-1.9 3.4 0 2.1 1.7 3.9 3.9 3.9s3.9-1.7 3.9-3.9c0-1.4-.8-2.7-1.9-3.4"/><path d="m23.5 26.5c-1.1 0-1.9-.9-1.9-1.9v-15.7c0-1.1.9-1.9 1.9-1.9 1.1 0 1.9.9 1.9 1.9v15.7c0 1-.8 1.9-1.9 1.9z"/><path d="m43 21.2c-1.2.7-1.9 1.9-1.9 3.4 0 2.1 1.7 3.9 3.9 3.9 2.1 0 3.9-1.7 3.9-3.9 0-1.4-.8-2.7-1.9-3.4"/><path d="m45 26.5c-1.1 0-1.9-.9-1.9-1.9v-15.7c-.1-1.1.8-1.9 1.9-1.9s1.9.9 1.9 1.9v15.7c0 1-.8 1.9-1.9 1.9z"/><path d="m64.6 21.2c-1.2.7-1.9 1.9-1.9 3.4 0 2.1 1.7 3.9 3.9 3.9 2.1 0 3.9-1.7 3.9-3.9 0-1.4-.8-2.7-1.9-3.4"/><path d="m66.5 26.5c-1.1 0-1.9-.9-1.9-1.9v-15.7c0-1.1.9-1.9 1.9-1.9 1.1 0 1.9.9 1.9 1.9v15.7c0 1-.8 1.9-1.9 1.9z"/><path d="m86.1 21.2c-1.2.7-1.9 1.9-1.9 3.4 0 2.1 1.7 3.9 3.9 3.9 2.1 0 3.9-1.7 3.9-3.9 0-1.4-.8-2.7-1.9-3.4"/><path d="m88 26.5c-1.1 0-1.9-.9-1.9-1.9v-15.7c0-1.1.8-1.9 1.9-1.9s1.9.9 1.9 1.9v15.7c0 1-.8 1.9-1.9 1.9z"/></g></svg>