<svg height="600" viewBox="0 0 800 600" width="800" xmlns="http://www.w3.org/2000/svg"><circle cx="400" cy="300" fill="#eff6fb" r="245"/><path d="m192.95 61.13-41.22 66 28.74 67.7 26.22-6.28-12.36-51.58c-.05-.23-.02-.47.11-.67s.32-.34.55-.4l30.05-7.2c.23-.05.47-.02.67.11.2.12.34.32.4.55l12.36 51.58 26.22-6.28-5.05-73.38-66.65-40.16zm3.56 106.11c.3-.07.61.02.82.23.22.21.31.52.24.82l-2.12 9.63c-.07.33-.33.59-.66.67l-13.7 3.28c-.07.02-.14.02-.21.02-.26 0-.51-.12-.68-.32l-6.26-7.63c-.19-.23-.25-.55-.15-.84s.34-.51.63-.58l2.83-.68-4.14-17.27s-4.34-18.13-4.34-18.13c-.05-.23-.02-.47.11-.67s.32-.34.55-.4l14.7-3.52c.23-.05.47-.02.67.11.2.12.34.32.4.55l8.48 35.41zm18.66-61.49c-2.17 3.53-5.58 6.01-9.61 6.98-1.21.29-2.42.43-3.61.43-7.01 0-13.39-4.79-15.09-11.91-.97-4.03-.3-8.2 1.86-11.73 2.17-3.53 5.58-6.01 9.61-6.98 8.32-1.99 16.71 3.16 18.71 11.48.97 4.03.3 8.2-1.86 11.73zm45.59 46.53c.22.21.31.52.24.82l-2.12 9.63c-.07.33-.33.59-.66.67l-6.85 1.64-6.85 1.64c-.07.02-.14.02-.21.02-.26 0-.51-.12-.68-.32l-6.26-7.63c-.19-.23-.25-.55-.15-.84s.34-.51.63-.58l2.83-.68-4.14-17.27s0 0 0 0l-4.34-18.13c-.05-.23-.02-.47.11-.67.12-.2.32-.34.55-.4l14.7-3.52c.23-.05.47-.02.67.11.2.12.34.32.4.55l8.48 35.41 2.83-.68c.3-.07.61.02.82.23z" fill="#fff"/><path d="m622.44 107.99c3.2-7.96 5.67-14.18 6.53-16.35l-60.91-22.21c-.74 2.22-2.85 8.56-5.52 16.71 4.65 2.91 14.54 8.53 28.92 13.77s25.56 7.31 30.99 8.07z" fill="#fff"/><path d="m569.6 159.84c18.04 6.58 26.73 6.74 28.69 4.88.31-.31 1.61-2.4 6.98-14.95-5.89-.07-17.03-.94-29.95-5.65s-22-11.21-26.55-14.95c-3.97 13.06-4.32 15.5-4.28 15.93.31 2.68 7.07 8.15 25.1 14.73z" fill="#fff"/><path d="m559.93 394.57c1.99 1.61 3.97 3.32 5.91 5.15.72.68 1.62 1.59 2.58 2.56 1.93 1.95 4.57 4.61 5.56 5.15 1.56.47 3.26.87 5.06 1.19 1.44-7.87.69-13.78-2.33-18.02-3.56-5-5.05-8.09-5.78-14.44-.3.18-.67.34-1.12.48-.73.21-1.6.32-2.51.32-1.43 0-2.94-.26-4.2-.78.03.9-.02 1.77-.22 2.59-.46 1.87-1.15 3.48-1.82 5.05-1.44 3.4-2.69 6.34-1.13 10.73v.03z" fill="#fff"/><path d="m629.75 383.61c.29-.03.58.07.77.29s.27.51.2.8c-.09.38-.18.77-.27 1.16-.83 3.65-1.77 7.79-6.28 9.83-1.33.6-3.15.92-4.93.92-.55 0-1.1-.03-1.63-.1.9.66 1.7 1.38 2.37 2.15 1.86 2.15 2.88 5.65 2.55 8.42 3.73-.77 8.8-1.88 13.07-2.94.57-3.33 2.25-14.2 2.91-19.17 1.86-14.14-.35-21.88-6.58-23-9.69-1.75-13.44 14.82-15.46 23.71-.17.74-.32 1.43-.47 2.06-.13 1.43-.42 2.92-.7 4.18 3.55-4.02 7.62-7.45 14.47-8.33z" fill="#d09d2a"/><path d="m590.52 382.59c.44.63.84 1.32 1.14 2.11.86 2.21.89 7.5.2 14.03.71-1.02 1.51-1.93 2.42-2.7 3.18-2.69 7.6-3.79 13.12-3.29.35.03.7.09 1.04.14.6-2.88 1.06-5.89.12-8.58-.11-.3-.04-.64.17-.88s.54-.34.86-.27c.34.08.68.14 1.01.2-.21-1.26-1.31-4.91-2.8-5.8-2.18-1.31-5.37.13-8.45 1.52-1.14.51-2.23 1-3.27 1.35-.62 1.03-1.93 1.28-2.99 1.46-.82.14-1.73.3-2.58.71z" fill="#fdbe2a"/><path d="m580.79 408.91c2.41.37 4.97.63 7.62.78.17-1.98.5-3.78.96-5.43 1.34-8.72 1.65-16.36.65-18.92-1.1-2.81-3.23-4.3-5.85-4.1-2.82.23-6.13 2.51-6.97 6.44-.02.11-.07.22-.14.31.34.51.7 1.03 1.1 1.58 3.3 4.64 4.15 10.98 2.63 19.33z" fill="#ed9b42"/><path d="m595.42 397.39c-1.99 1.68-3.43 4.1-4.32 7.2-.26 1.7-.56 3.44-.9 5.2 9.89.42 20.77-.47 29.19-2.08.39-.07.82-.16 1.28-.25.53-2.29-.37-5.73-2.02-7.64-2.41-2.78-6.99-4.91-11.4-5.31-5.03-.46-9.01.51-11.82 2.88z" fill="#f3783c"/><path d="m276.69 479.02-65.37 20.78 2.95 9.29c.4 1.27 1.28 2.3 2.47 2.92s2.54.73 3.81.33l55.85-17.76c2.63-.84 4.08-3.65 3.25-6.28l-2.95-9.29zm-28.75 22.76c-.58.18-1.18.28-1.77.28-.92 0-1.83-.22-2.67-.65-1.38-.72-2.4-1.93-2.87-3.41-.97-3.06.73-6.35 3.79-7.32s6.35.73 7.32 3.79-.73 6.34-3.79 7.32z" fill="#e6e7e8"/><path d="m213.5 51.2h13.11v3.82h-13.11z" fill="#f3783c" transform="matrix(.97249202 -.2329362 .2329362 .97249202 -6.32 52.72)"/><path d="m216.15 64.93 15.76 9.54-4.63-19.31-12.74 3.05z" fill="#fff"/><path d="m191.91 59.46c.26-.41.79-.54 1.2-.29l67.58 40.72 9.76-.02-55.54-33.63s0 0 0 0l-24.25-14.69-49.25 79.23 8.71-4.4 41.8-66.92z" fill="#f3783c"/><path d="m256.65 154.66-7.35 1.76-7.34 1.76h-.01l-2.32.55 5.02 6.11 12.62-3.02 1.7-7.72z" fill="#cedd3e"/><path d="m215.07 93.59c-1.8-5.83-7.21-9.7-13.14-9.7-.77 0-1.55.09-2.33.23l2.99 12.47 12.48-2.99z" fill="#c4d7e9"/><path d="m203 98.3 2.99 12.48c6.59-2.03 10.66-8.67 9.49-15.46l-12.48 2.99z" fill="#c4d7e9"/><path d="m188.81 101.69c2.03 6.59 8.67 10.66 15.46 9.49l-2.99-12.48-12.48 2.99z" fill="#c4d7e9"/><path d="m197.89 84.51c-6.59 2.03-10.66 8.67-9.49 15.46l12.48-2.99-2.99-12.48z" fill="#c4d7e9"/><path d="m240.35 138.93h5.79v16.88h-5.79z" fill="#c4d7e9" transform="matrix(.97249202 -.2329362 .2329362 .97249202 -27.64 60.71)"/><path d="m236.01 120.8h5.79v16.88h-5.79z" fill="#c4d7e9" transform="matrix(.97249202 -.2329362 .2329362 .97249202 -23.53 59.2)"/><path d="m243.36 119.04h5.79v16.88h-5.79z" fill="#c4d7e9" transform="matrix(.97249202 -.2329362 .2329362 .97249202 -22.92 60.87)"/><path d="m247.7 137.17h5.79v16.88h-5.79z" fill="#c4d7e9" transform="matrix(.97249202 -.2329362 .2329362 .97249202 -27.02 62.38)"/><path d="m431.19 283.09c-.29-.3-.61-.63-.96-.98-88.62 26.14-101.87 29.26-102 29.28-.07.02-.13.02-.2.02-.33 0-.63-.18-.79-.48l-24.63-48.47c-.13-.25-.13-.55 0-.8s.37-.43.64-.47c28.44-4.66 57.53-10.73 86.48-18.04-.48-.46-.96-.9-1.43-1.35-42.58 9.96-84.49 17.88-90.96 19.09 1.66 7.07 18.08 39.58 27.18 57.02l106.65-34.82z" fill="#cedd3e"/><path d="m195.78 401.41h68.59v88.39h-68.59z" fill="#c4d7e9" transform="matrix(.95297934 -.30303527 .30303527 .95297934 -124.21 90.67)"/><path d="m249.37 393.1-65.37 20.79 92.16 63.45z" fill="#d8e9f7" opacity=".3"/><path d="m245.88 382.13c-.4-1.27-1.28-2.3-2.47-2.92-.72-.37-1.51-.56-2.3-.56-.51 0-1.01.08-1.51.24l-55.85 17.76c-2.63.83-4.08 3.65-3.25 6.28l2.95 9.29 65.37-20.79-2.95-9.29zm-24.49 11.3-14.37 4.57c-.09.03-.18.04-.27.04-.37 0-.72-.24-.84-.61-.15-.46.11-.96.57-1.11l14.37-4.57c.46-.15.96.11 1.11.57s-.11.96-.57 1.11z" fill="#e6e7e8"/><path d="m246.17 492.17c-.41 0-.82.06-1.23.19-2.13.68-3.32 2.97-2.64 5.1.33 1.03 1.04 1.88 2 2.38s2.07.59 3.1.26c2.14-.68 3.32-2.97 2.64-5.1-.55-1.73-2.15-2.83-3.88-2.83z" fill="#e6e7e8"/><path d="m428.88 41.72c-4.26 2.04-7.8 3.66-11.15 5.09l-.9.39c-3.54 1.51-7.21 3.08-10.3 5.1l-.41.27c-1.48.96-3.5 2.27-3.78 3.69-.1.5.04 1.02.38 1.57 2.26-.19 4.19.38 5.69 1.78 2.29 2.14 2.57 5.1 2.82 7.71.06.62.12 1.24.2 1.84.09.62.09 1.35.09 2.12 0 1.41.01 3.34.71 3.72 1.25.68 4.68-1.74 6.33-2.91.54-.38 1.02-.72 1.4-.96 3.57-2.24 6.88-4.36 10.03-6.42v-.02c1.33-11.24 1.47-18.95.93-23.88-.69.3-1.37.6-2.04.92z" fill="#fdbe2a"/><path d="m409.69 69.4c-.09-.63-.15-1.27-.21-1.92-.24-2.52-.47-4.9-2.27-6.59-2.62-2.45-6.66-1.15-9.58.38-6.54 3.41-9.21 9.82-11.38 16.09-.22.63-.43 1.26-.64 1.89-.85 2.54-1.74 5.16-2.97 7.66-.39.8-.76 1.42-1.13 1.92 1.24 3.79 3.6 6.53 6.69 7.72 7.17 2.78 16.23-3.3 20.2-13.55 1.01-2.6 1.61-5.25 1.79-7.89-.43-1.09-.44-2.51-.44-3.83 0-.71 0-1.38-.07-1.88zm-6.61 11.54c-1.85 4.76-5.76 7.88-9.46 7.88-.77 0-1.52-.13-2.25-.42-4.23-1.64-5.85-7.65-3.62-13.4 1.06-2.74 2.83-5.02 4.98-6.44 2.24-1.48 4.63-1.84 6.73-1.02 2.1.81 3.62 2.69 4.29 5.29.63 2.49.4 5.37-.66 8.11z" fill="#555556"/><path d="m442.93 39.56c-1.49.55-3.17 1.2-4.67 2.01-.16.09-1.44.77-2.19 1.01-.12.13-.18.27-.16.31.12.27.77.44 3.2-.29.2-.06.38-.11.53-.15.26-.07.61-.15 1-.24 1.41-.32 5.14-1.16 5.32-2.32.09-.6 0-.86-.07-.91-.43-.35-2.33.36-2.95.59z" fill="#e6e7e8"/><path d="m459.57 45c.52-2.83-.6-5.49-2.44-5.95-.4 1.25-.62 2.88-.83 4.48-.31 2.37-.6 4.61-1.46 6.12.06.02.13.05.19.06 1.94.35 4.01-1.8 4.54-4.7z" fill="#fff"/><path d="m398.81 69.19c-.52-.2-1.08-.3-1.65-.3-1.13 0-2.32.39-3.48 1.16-1.84 1.21-3.37 3.2-4.3 5.6-1.88 4.85-.7 9.84 2.62 11.12 3.32 1.29 7.55-1.61 9.43-6.45.93-2.4 1.14-4.9.6-7.04-.52-2.03-1.66-3.48-3.21-4.09z" fill="#fff"/><path d="m463.94 40.62c.05-.6.1-1.18.01-1.73-.28-1.68-1.37-5.22-2.21-5.83-.5-.36-.82-.33-1.02-.27-1.22.36-2.33 2.95-2.97 4.58 2.65.8 4.24 4.24 3.56 7.94-.66 3.58-3.19 6.19-5.86 6.19-.24 0-.49-.02-.73-.07-.38-.07-.74-.21-1.09-.38-1.03.89-2.4 1.68-3.72 2.4 1.07 1.42 2.43 2.31 3.96 2.59 4.45.82 9.04-3.77 10.22-10.22.14-.78.21-1.57.25-2.35-.18-.13-.32-.32-.36-.55-.16-.83-.1-1.58-.03-2.32z" fill="#555556"/><path d="m445.28 35.36c-.43.19-.85.37-1.25.53-1.73.67-3.52 1.31-5.25 1.92-2.05.73-4.14 1.49-6.19 2.31.61 4.78.57 12.16-.69 23.34 5.14-3.4 9.82-6.62 14.24-9.82.35-.25.77-.51 1.22-.78 0-.04 0-.09.02-.12.02-.2.04-.47.05-.53.02-.19.02-.39.02-.59 0-.28 0-.56.03-.83.14-1.38.8-7.47 1.05-9.13.79-5.14.4-7.02.14-7.39-1.04.05-2.29.6-3.4 1.09zm2.41 4.8c-.37 2.35-4.16 3.2-6.67 3.77-.37.08-.69.16-.94.22-.13.03-.29.08-.47.14-.8.24-1.96.59-3.01.59-.98 0-1.87-.3-2.3-1.26-.44-.97.09-1.97.8-2.52.12-.09.25-.15.4-.17.25-.06 1.27-.54 1.93-.9 1.6-.86 3.35-1.53 4.86-2.09 1.49-.56 3.5-1.31 4.72-.31.64.52.88 1.38.69 2.55z" fill="#fdbe2a"/><path d="m193.23 169.85-7.35 1.76-7.35 1.76-2.32.55 5.01 6.12 12.63-3.03 1.7-7.72z" fill="#cedd3e"/><path d="m630.45 90.31s0 0 0 0l2.04.74c1.37.5 2.89-.21 3.39-1.58l.94-2.58c.5-1.37-.21-2.89-1.58-3.39l-66.51-24.25c-.66-.24-1.38-.21-2.02.09s-1.13.83-1.37 1.49l-.94 2.58c-.24.66-.21 1.38.09 2.02s.83 1.13 1.49 1.37l64.46 23.5s0 0 0 0z" fill="#fff"/><path d="m635.18 71.18-58.7-21.4c-.75-.26-3.7 3.14-6.53 8.03l65.06 23.72c.98-5.56.92-10.05.17-10.35z" fill="#fff"/><path d="m609.05 147.94 15.67-37.89c-3.86-.42-16.64-2.2-33.88-8.48-17.24-6.29-28.16-13.15-31.39-15.31l-12.39 39.08c2.02 1.93 12.18 11.05 28.87 17.13s30.34 5.64 33.12 5.47z" fill="#caa575"/><path d="m367.46 86.34c-2.03-.93-4.15-1.63-6.19-2.32-2.93-.98-5.95-2-8.87-3.67-1.61-.93-3.6-1.93-5.7-3-8.24-4.17-18.83-9.53-21.76-17.47-1.75 1.47-2.33 3.75-1.82 7.16.43 2.82 9.59 10.25 13.04 13.04 12.49 9.93 36.65 14.6 38.71 14.27.66-.28 1.47-1.24 1.88-2.02.3-.57.69-1.15 1.06-1.71.1-.15.18-.28.27-.42-.54-.08-1.15-.23-1.86-.45-2.66-.83-5.69-2-8.76-3.4z" fill="#fff"/><path d="m471.9 34c.22-.93.07-1.78-.41-2.22s-1.19-.33-1.69-.17c-.05.02-.1.01-.15.02.07.7.1 1.38.11 2.04 0 1.06-.07 2.51-.36 4.01 1.22-.41 1.99-1.56 2.5-3.69z" fill="#fff"/><path d="m429.22 16.58c1.17-.22 2.31-.43 3.44-.59 2.33-.35 4.42.12 6.62.61.25.06.58.12 1 .2 7.62 1.52 11.05 2.8 11.82 4.4.24.5.23 1.05-.02 1.55-.5.96-2.04 1.83-3.84 2.78-.26.13-.48.25-.65.35-1.71.97-3.52 1.82-5.26 2.65l-1.58.75c-2.4 1.16-4.91 1.88-7.34 2.57-1.11.32-2.23.66-3.35 1.03.91.95 1.72 2.63 2.26 5.45 1.95-.77 3.93-1.49 5.88-2.18 1.75-.62 3.5-1.25 5.2-1.91.37-.14.77-.32 1.17-.5 1.28-.57 2.74-1.21 4.15-1.24.47 0 .93.19 1.25.56.35.4 1.42 1.62.31 8.86-.23 1.53-.87 7.38-1.04 9.04-.02.21-.02.44-.02.66v.21c1.61-.89 3.42-1.94 4.05-2.96.72-1.18 1.01-3.41 1.29-5.57.24-1.88.5-3.8 1.06-5.28.01-.17.07-.33.17-.46l.12-.3c.85-2.2 2.14-5.52 4.32-6.16.59-.17 1.51-.22 2.56.54 1.66 1.21 2.77 6.07 2.92 6.97.13.77.06 1.48 0 2.16-.03.29-.05.57-.06.84.02-.03.05-.06.08-.08 1.48-1.42 2.31-4.28 2.28-7.83-.04-4.58-1.49-9.09-3.52-10.97-3.8-3.51-10.73-6.41-15.51-7.83-3.53-1.04-7.73-2.06-12.13-1.66-3.29.29-6.74.76-10.45 1.43 1 .28 2 .69 2.55 1.38.13.17.22.35.29.53z" fill="#fdbe2a"/><path d="m210.27 171.68h19.57v7.49h-19.57z" fill="#e8a91b" transform="matrix(.97249202 -.2329362 .2329362 .97249202 -34.81 56.09)"/><path d="m429.19 31.31c1.24-.42 2.49-.8 3.72-1.15 2.36-.68 4.79-1.38 7.06-2.47l1.59-.76c1.72-.81 3.49-1.65 5.15-2.59.18-.1.42-.23.69-.37.77-.41 2.82-1.48 3.1-2.03-.12-.39-1.41-1.57-10.57-3.41-.43-.09-.77-.15-.99-.2-2.17-.48-4.01-.89-6.02-.59-1.12.17-2.26.37-3.43.59.12 1.13.15 2.27.15 3.38 0 .84.01 1.7.07 2.53.15 2.1-.01 4.52-.45 6.79-.02.11-.05.19-.07.29z" fill="#e8a91b"/><path d="m184.28 152.36h5.79v16.88h-5.79z" fill="#c4d7e9" transform="matrix(.97249202 -.2329362 .2329362 .97249202 -32.31 48.02)"/><path d="m196.25 137.42 12.15 50.73 14.16-3.39 14.16-3.39-12.15-50.73-28.33 6.79zm8.72 26.21c-.24-.98-.07-2 .45-2.86s1.36-1.47 2.34-1.7c.98-.24 2-.07 2.86.45.86.53 1.47 1.36 1.7 2.34.24.98.07 2-.45 2.86-.53.86-1.36 1.47-2.34 1.7-.3.07-.59.11-.89.11-.69 0-1.37-.19-1.97-.56-.86-.53-1.47-1.36-1.7-2.34zm25.24 4.61 2.16 9c.05.23.02.47-.11.67s-.32.34-.55.4l-20.75 4.97c-.07.02-.14.02-.21.02-.16 0-.32-.04-.46-.13-.2-.12-.34-.32-.4-.55l-2.15-9c-.11-.47.18-.95.65-1.06l20.75-4.97c.47-.11.95.18 1.06.65zm-5.53-21.98c-.12.2-.32.34-.55.4l-20.75 4.97c-.07.02-.14.02-.21.02-.16 0-.32-.04-.46-.13-.2-.12-.34-.32-.4-.55l-2.15-9c-.11-.47.18-.95.65-1.06l20.75-4.97c.47-.11.95.18 1.06.65l2.16 9c.05.23.02.47-.11.67z" fill="#fdbe2a"/><path d="m179.94 134.23h5.79v16.88h-5.79z" fill="#c4d7e9" transform="matrix(.97249202 -.2329362 .2329362 .97249202 -28.2 46.51)"/><path d="m176.93 154.12h5.79v16.88h-5.79z" fill="#c4d7e9" transform="matrix(.97249202 -.2329362 .2329362 .97249202 -32.92 46.36)"/><path d="m172.59 135.99h5.79v16.88h-5.79z" fill="#c4d7e9" transform="matrix(.97249202 -.2329362 .2329362 .97249202 -28.81 44.85)"/><path d="m202.69 140.04h19.57v7.49h-19.57z" fill="#e8a91b" transform="matrix(.97249202 -.2329362 .2329362 .97249202 -27.65 53.45)"/><path d="m343.43 40.77c-.84.49-1.28.84-1.3 1.03.01.11.34.32.97.62.25.12.47.23.65.34 1.22.78 8.03 4.56 10.19 5.4 1.4.55 3.03 1.05 5 1.54 1.58.39 2.99-.14 4.61-.76.38-.14.76-.29 1.15-.42 2.99-1.05 15.62-4.81 19-5.62 1.94-.47 7.78-2.1 17.35-4.87l.31-.09c1.94-.56 3.96-.99 5.92-1.41l1.74-.37c.31-.07.68-.13 1.07-.2 1.02-.17 2.41-.4 2.99-.9.2-.17.18-.24.17-.28-.39-1.72-8.71-4.91-14.31-6.46-2.1-.58-4.31-.99-6.45-1.39-1.31-.24-2.61-.49-3.9-.77-1.01-.22-2.16-.36-3.51-.43-.49-.03-2.05-.01-3.05.06-.08 0-.16 0-.24-.02-.07-.01-.15-.02-.23-.02-.4 0-.91.16-1.38.3-.23.07-.46.14-.67.19-1.99.5-34.39 13.49-35.74 14.32-.1.06-.21.13-.34.2z" fill="#fdbe2a"/><path d="m410.49 28.33c6.4 1.81 12.45 3.52 15.23 3.2.35-.04.65-.06.91-.07.27-.01.6-.03.68-.08 0 0 .1-.12.22-.71.41-2.13.56-4.38.43-6.33-.06-.88-.07-1.77-.08-2.64-.01-1.2-.02-2.33-.16-3.44-.01-.1-.02-.21-.03-.32-.02-.05-.06-.1-.07-.16-.03-.13-.02-.26.01-.38-.02-.12-.04-.22-.08-.27-.44-.55-2.11-.91-3-1.1-.23-.05-.43-.09-.61-.14-3.72-.9-7.6-1.74-12.6-2.72-1.01-.2-2.01-.42-3.01-.64s-2.01-.44-3.01-.64c-2.56-.5-11.31-1.77-13.16-1.31-.56.14-.96.72-1.42 1.39-.16.23-.31.46-.48.68-.57.75-1.11 1.53-1.64 2.32-.74 1.08-1.51 2.2-2.37 3.24-1.08 1.29-2.52 3.69-3.4 5.24.84-.09 1.72-.13 2.63-.13 7.31 0 16.62 2.63 25.01 5.01z" fill="#fff"/><path d="m209.11 164.71c.53-.13.97-.45 1.25-.91s.37-1 .24-1.53-.45-.97-.91-1.25c-.32-.2-.68-.3-1.05-.3-.16 0-.32.02-.47.06-.53.13-.97.45-1.25.91s-.37 1-.24 1.53.45.97.91 1.25 1 .37 1.53.24z" fill="#e38b34"/><path d="m363.09 72.12c.92.14 1.9-.28 2.75-1.19.94-1 1.59-2.44 1.83-4.05.48-3.15-.8-6.07-2.8-6.38-.12-.02-.23-.03-.35-.03-1.89 0-3.78 2.3-4.23 5.27-.25 1.61-.06 3.18.53 4.42.54 1.12 1.34 1.82 2.26 1.96z" fill="#fff"/><path d="m325.72 50.35c.8.12 1.67-.25 2.42-1.06.84-.9 1.42-2.19 1.64-3.63.43-2.81-.7-5.42-2.47-5.69-.1-.02-.2-.02-.31-.02-.72 0-1.46.38-2.11 1.08-.84.9-1.42 2.19-1.64 3.63-.22 1.45-.05 2.85.48 3.96.48.99 1.18 1.61 1.99 1.73z" fill="#fff"/><path d="m331.53 45.92c-.27 1.79-1.02 3.42-2.1 4.57-.94 1.01-2.05 1.56-3.19 1.62.07.17.09.35.04.53-2.78 11 11.08 18.02 21.21 23.14 2.13 1.08 4.13 2.09 5.79 3.04 2.76 1.59 5.57 2.53 8.55 3.53 2.09.7 4.25 1.42 6.36 2.39 3 1.37 5.95 2.51 8.55 3.32 2.74.85 3.02.73 4.33-1.92 1.18-2.39 2.04-4.96 2.88-7.44.21-.64.43-1.27.65-1.9 2.19-6.32 5.11-13.37 12.23-17.08 1.45-.75 2.8-1.26 4.08-1.58-.33-.74-.43-1.48-.28-2.22.42-2.15 2.71-3.64 4.55-4.83l.4-.26c3.22-2.11 6.96-3.71 10.57-5.25l.9-.38c3.33-1.43 6.85-3.04 11.09-5.06.84-.4 1.69-.78 2.56-1.14-.57-3.38-1.52-5.04-2.6-5.36-.08-.02-.14-.07-.2-.11-.24-.03-.46-.15-.6-.35-.17.02-.35.04-.54.05-.23.01-.5.03-.8.06-.29.03-.6.05-.93.05-3.29 0-8.75-1.54-14.98-3.31-.77-.22-1.56-.44-2.36-.66 6.56 2.7 7.25 4.74 7.31 5.03.1.42.13 1.25-.74 2-.95.82-2.49 1.08-3.85 1.31-.36.06-.7.12-.98.18l-1.75.38c-1.93.41-3.92.84-5.8 1.38l-.31.09c-9.6 2.77-15.46 4.41-17.43 4.89-3.35.8-15.86 4.54-18.83 5.57-.37.13-.74.27-1.1.41-1.31.5-2.65 1.01-4.14 1.01-.49 0-1-.06-1.52-.19-2.04-.51-3.74-1.03-5.21-1.61-2.29-.9-9.2-4.73-10.49-5.56-.13-.08-.29-.16-.47-.24-.73-.35-1.83-.88-1.96-2.02-.15-1.39 1.3-2.24 2.16-2.74l.29-.17c1.46-.92 20.84-8.64 30.66-12.44-.52.11-1.05.23-1.56.34-1.82.4-3.65.81-5.5 1.17-1.48.29-3 .47-4.46.65-2.31.28-4.5.55-6.62 1.19-2.13.64-4.26 1.32-6.4 2-4.85 1.54-9.87 3.14-14.89 4.32l-1.12.26c-1.92.43-3.87.88-5.56 1.65.06 0 .13 0 .19.02 2.81.43 4.54 3.82 3.94 7.7zm27.02 19.55c.65-4.24 3.54-7.19 6.59-6.72s4.92 4.15 4.27 8.39c-.3 1.96-1.11 3.73-2.29 4.99-1.09 1.16-2.37 1.78-3.67 1.78-.21 0-.42-.02-.63-.05-1.52-.23-2.79-1.28-3.59-2.94-.74-1.55-.99-3.49-.69-5.45zm-22.66-13.86c2.99 1.44 5.76 3.24 8.44 4.97 1.35.88 2.75 1.78 4.15 2.63.24.15.51.3.79.47 2.2 1.28 5.21 3.04 5.94 5.35.46 1.47.42 2.52.36 3.73-.02.35-.03.72-.04 1.13v.31c-.01 1.29-.03 2.75-.99 3.52-.26.21-.67.42-1.27.42-.19 0-.39-.02-.62-.07-.86-.19-1.65-.64-2.34-1.04l-.34-.19c-7.5-4.21-20.15-11.66-20.61-14.21-.32-1.77-.8-5.04-.39-6.95.12-.54.45-.97.95-1.22 1.59-.78 4.7.55 5.96 1.15z" fill="#fdbe2a"/><path d="m330.69 52.05c-.25 1.16-.1 3.5.4 6.26.47 1.34 8.96 6.93 19.74 12.99l.35.2c.61.35 1.25.72 1.84.85.2.04.36.04.42 0 .3-.24.32-1.49.32-2.16v-.32c0-.43.03-.82.04-1.19.05-1.13.09-1.95-.28-3.12-.52-1.65-3.3-3.28-5.15-4.35-.29-.17-.57-.33-.81-.48-1.43-.86-2.84-1.78-4.2-2.66-2.63-1.71-5.36-3.48-8.25-4.86-2.24-1.08-4.07-1.39-4.43-1.15z" fill="#fff"/><path d="m409.62 236.65 1.15.98c36.89-10.11 60.02-18.64 60.25-18.72.25-.09.54-.07.77.08l50.56 31.04c.29.18.45.51.41.85s-.27.63-.59.74c-24.77 8.4-47.72 16.06-68.29 22.81l1.06.91 73.07-23.86-56.28-34.04c-13.9 6.19-37.09 12.93-62.11 19.21z" fill="#cedd3e"/><path d="m570.45 414.79c.1-.58.18-1.23.25-1.9.18-1.64.4-3.48 1.15-4.86-1.18-.99-2.75-2.56-4.68-4.51-.94-.95-1.83-1.85-2.54-2.52-3.41-3.24-7.01-6.08-10.46-8.69-1.72 9.69-3.3 19.4-4.84 28.81-.88 5.39-1.76 10.8-2.67 16.25-.93 5.54-3.27 11.01-5.53 16.3-1.59 3.71-3.09 7.22-4.07 10.63.93 2.78 5.26 7.86 7.88 10.93.64.75 1.19 1.39 1.6 1.89 1.07 1.31 8.47 7.32 12.8 10.78-.01-.09-.03-.2-.04-.3-.5-2.05-1.4-4.03-2.4-5.98l-1.57-2.96c-.54-.99-1.01-2.12-1.4-3.15-1.52-4.02-2.61-8.13-3.75-12.19-1.32.09-2.68.19-4.11.25-1.63.07-3.33.13-4.98-.17 1.61-.45 3.14-.96 4.74-1.38 1.35-.35 2.77-.65 4.25-.56.44-2.97 1.01-5.91 1.84-8.82.49-1.62 1-3.08 1.44-4.64.43-1.54.86-3.09 1.2-4.67.35-1.57.65-3.15 1.02-4.72l1.13-4.72c.74-3.15 1.49-6.31 2.36-9.45-.28 3.24-.6 6.47-1.02 9.69-.22 1.61-.41 3.23-.69 4.83-.26 1.61-.66 3.19-1.05 4.78-.4 1.58-.8 3.17-1.25 4.74-.44 1.56-.99 3.16-1.44 4.64-.86 2.99-1.45 6.1-1.88 9.21 1.2 4.24 2.31 8.49 3.84 12.54.4 1.05.78 1.99 1.31 2.97l1.57 2.96s.03.06.05.1c-.02-.44-.03-.85-.02-1.15.16-2.83.21-5.69.25-8.46.08-5.13.17-10.44.97-15.74 1.24-8.28 3.46-17.06 6.78-26.83 1.38-4.06 3.09-9.11 3.98-13.93z" fill="#caa575"/><path d="m692.42 270.97s-.02 0-.03-.01v.03c.01 0 .02-.01.03-.02z" fill="#85c3e9"/><path d="m595.21 411.65c-8.07 0-15.9-.76-21.81-2.56-.03 0-.06-.02-.09-.03-.51 1.08-.7 2.63-.85 4.03-.08.72-.16 1.41-.27 2.03-.91 4.96-2.64 10.07-4.04 14.19-3.28 9.68-5.48 18.35-6.71 26.53-.78 5.19-.87 10.43-.95 15.51-.05 2.79-.09 5.67-.25 8.53-.1 1.87.78 7.51 1.09 9.38.49.09 1.13.22 1.98.39 4.28.86 12.26 2.46 18.6 2.34h.21c22.79 0 48.01-7.99 51.13-9.99-.3-1.38-.66-4.35-1.09-8.85-.6-6.35-1.29-13.55-.59-20.65 1.25-12.75 3.19-22.93 6.09-32.03.67-2.1 1.32-4.19 1.96-6.26 1.05-3.38 2.14-6.84 3.29-10.28-6.15 2.17-23 5.5-23.19 5.54-7.1 1.36-15.94 2.21-24.51 2.21z" fill="#caa575"/><path d="m705.86 301.99c-7.17.7-13.95 1.37-14.76 3.87-.33.9-.3 1.64.08 2.28.97 1.62 3.98 2.38 5.09 2.54 1.47.09 2.81.13 4.02.13h.12c21.51 0 41.72-11.74 44.14-21.49.88-3.54-.67-6.49-4.56-8.8.51 1.71.58 4.24-.99 7.78-5.29 10.95-20.73 12.47-33.14 13.68z" fill="#f3783c"/><path d="m638.92 394.38c-.55 3.63-1.12 7.22-1.46 9.29 3.25-.84 5.77-1.6 6.36-2.07.03-.02.08-.06.08-.26 0-1.42-2.58-4.76-4.99-6.96z" fill="#ab8553"/><path d="m681.75 286.25c-2.27-.74-4.54-1.53-6.8-2.34-8.02 2.2-19.48 10.05-23 12.55.75.49 1.52.98 2.3 1.45 2.68-1.37 16.71-8.42 27.5-11.65z" fill="#fff"/><path d="m689.83 288.59c-1.64-.4-3.3-.86-4.98-1.37-9.75 2.42-24.21 9.45-28.78 11.74.81.46 1.63.92 2.46 1.35 2.9-1.22 20.3-8.46 31.3-11.73z" fill="#fff"/><path d="m672.24 282.93c-.31-.11-.62-.22-.93-.34-1.45-.53-2.89-1.04-4.31-1.55-10.84 4.48-16.67 11.3-18.17 13.23.51.38 1.03.76 1.56 1.13 2.56-1.85 13.24-9.37 21.84-12.47z" fill="#fff"/><path d="m664.55 280.18c-1.5-.52-2.97-1.01-4.4-1.45-7.28 3.58-12.21 11.57-13.48 13.79.25.22.51.44.77.65 1.55-2.02 6.98-8.37 17.11-12.99z" fill="#fff"/><path d="m657.76 278.02c-2.13-.6-4.14-1.07-5.98-1.35-6.25 4.87-8.43 10.36-8.92 11.81.69.95 1.53 1.89 2.48 2.82 1.48-2.56 5.85-9.37 12.42-13.28z" fill="#fff"/><path d="m641.84 279.23c-1.22 1.98-1.44 4.01-.66 6.2.14.39.31.78.5 1.17.96-2.26 3.14-6.29 7.64-10.19-3.46-.18-6.09.58-7.48 2.83z" fill="#fff"/><path d="m616.35 262.08c1.18 1.08 2.3 2.11 2.74 3.23.11.3.25.74.42 1.28.9 2.94 2.77 9.05 7.51 10.19 4.48 1.08 10.62-2.36 18.25-10.22 1.44-1.49 3.11-2.43 4.94-2.94-2.97-1.53-4.47-3.31-4.42-5.31 0-.02 0-.04 0-.07-2.06 2.41-4.44 4.7-8.88 5.49-5.23.93-9.2-2.54-12.7-5.61-2.81-2.46-5.35-4.69-8.24-4.69-.19 0-.38.03-.57.05-1.55 1.33-2.36 2.59-2.39 3.74-.04 1.78 1.74 3.41 3.32 4.85z" fill="#f3783c"/><path d="m610.62 297.35c.45.03 2.47.07 2.89-1.93.23-1.11-2.88-4.35-5.16-6.72-1.87-1.95-3.77-3.94-5.12-5.8-.09 3.02.1 5.76.61 7.91.67 2.82 3.21 4.94 6.78 6.54z" fill="#f3783c"/><path d="m700.41 312.58h-.13c-1.24 0-2.61-.05-4.12-.14-.04 0-.08 0-.12 0-10.21-.61-26.31-3.16-46.17-7.33-1.36-.29-4.19-.47-7.78-.7-12.86-.82-33.66-2.16-38.95-10.73-1.13 4.84-.86 9.69.82 13.09 3.83 7.78 30.64 8.07 43.52 8.21 3.49.04 6.26.07 7.91.2 2.22.18 5.1.73 8.74 1.43 10.05 1.93 25.23 4.85 43.24 2.84 17.05-1.91 34.63-15.18 38.36-25.33.65-1.77.83-3.34.58-4.72-.02.12-.04.23-.07.35-2.62 10.57-23.21 22.83-45.85 22.83z" fill="#fff"/><path d="m699.56 272.86c0 .55 0 1.19-.01 1.89.78-.49 1.61-.96 2.49-1.39-.83-.16-1.65-.32-2.48-.51z" fill="#f3783c"/><path d="m705.92 277.8c-.22-.91-.51-2.34-.59-3.84-.05 0-.09-.02-.14-.02-2.14.76-4.04 1.82-5.68 2.95-.04 1.9-.11 3.94-.23 5.65 1.34-1.57 3.85-4.08 6.64-4.74z" fill="#f3783c"/><path d="m690.62 279.48c.06-1.75.07-3.66.06-5.4-1.56 1.02-3.05 2.11-4.3 3.09 1.43.8 2.84 1.57 4.25 2.31z" fill="#f3783c"/><path d="m697.5 282.78c.09-1.28.16-2.87.21-4.55-1.39 1.13-2.52 2.24-3.34 3.14 1.06.51 2.11.98 3.13 1.41z" fill="#f3783c"/><path d="m697.76 275.95c.02-1.21.03-2.41.03-3.51-.97-.23-1.93-.48-2.89-.75-.81.37-1.64.81-2.47 1.3.03 2.25.04 5.02-.08 7.38l.36.18c1.09-1.24 2.8-2.95 5.05-4.6z" fill="#f3783c"/><path d="m683.36 267.25-.12 1.69c.52-.34 1.04-.67 1.56-.98-.49-.23-.97-.46-1.45-.7z" fill="#f3783c"/><path d="m700.44 283.9c3.43 1.16 6.5 1.62 8.96.94 1.96-.54 3.46-1.77 4.58-3.75.59-1.03.73-1.99.44-2.93-.55-1.8-2.54-3-3.05-3.27-1.41-.19-2.83-.4-4.26-.62.17 2.07.75 3.98.76 4.01.08.26.04.54-.12.77-.16.22-.41.36-.68.37-2.48.12-5.18 2.75-6.63 4.48z" fill="#f3783c"/><path d="m651.83 262.46c.31.14.5.45.51.77 2.89-.28 6.12.32 9.56 1.47 1.77-1.49 3.87-3.02 6.18-4.28.03-1.24.02-2.32-.01-3.18-4.78-3.55-8.6-6.27-11.79-6-2.52 1.02-8.65 4.13-8.72 7.11-.04 1.77 2.3 3.21 4.27 4.1z" fill="#f3783c"/><path d="m667.43 266.92c.27-1.53.45-3.02.54-4.41-1.49.89-2.88 1.89-4.13 2.89 1.18.45 2.37.96 3.59 1.52z" fill="#f3783c"/><path d="m690.65 272c-.01-.63-.03-1.19-.04-1.67-.57-.2-1.15-.38-1.71-.6-.73-.28-1.43-.59-2.13-.89-1.22.69-2.48 1.5-3.68 2.32l-.28 3.99c.63.36 1.26.72 1.89 1.07 1.62-1.28 3.73-2.86 5.94-4.23z" fill="#f3783c"/><path d="m681.39 270.18.27-3.84c-.59-.32-1.18-.64-1.75-.98-.8.72-1.69 1.49-2.62 2.27l-.66 4.03c.51.28 1.02.57 1.54.86.9-.68 2.01-1.5 3.22-2.34z" fill="#f3783c"/><path d="m681.23 272.46c-.49.35-.95.69-1.38 1.01.42.24.84.48 1.26.72z" fill="#f3783c"/><path d="m677.87 264.13-.13.8c.2-.18.4-.35.59-.52-.15-.09-.31-.18-.46-.28z" fill="#f3783c"/><path d="m670.67 259.18c-.28-.2-.54-.4-.81-.6v.96z" fill="#f3783c"/><path d="m675.22 269.35c-.38.31-.76.62-1.13.92.3.16.6.32.9.49z" fill="#f3783c"/><path d="m675.66 266.7.59-3.61c-1.35-.89-2.64-1.78-3.87-2.66-.88.31-1.74.67-2.58 1.09-.09 1.87-.3 4-.72 6.19 1.09.53 2.2 1.09 3.31 1.67 1.05-.84 2.17-1.76 3.26-2.67z" fill="#f3783c"/><path d="m715.54 281.9s0 .01 0 .02c0 .02-.02.03-.02.04-4.02 8.14-12.3 9.2-21.94 7.43-9.15 2.24-27.32 9.63-33.01 11.99 7.83 3.98 15.17 6.64 16.01 6.94 5.29.84 10.01 1.48 14.09 1.9-.39-.34-.74-.72-1.01-1.16-.67-1.12-.75-2.38-.23-3.77 1.16-3.57 7.82-4.23 16.25-5.05 11.97-1.17 26.86-2.63 31.71-12.67 2.48-5.58.3-7.96-.15-8.38-4.55-1.73-11.13-2.52-18.61-3.4-1.28-.15-2.58-.31-3.9-.47.57.64 1.09 1.41 1.37 2.32.43 1.39.24 2.83-.56 4.27z" fill="#f7915e"/><path d="m638.4 296.32c5.26 2.97 8.83 5 10.1 6.8.69.08 1.29.16 1.74.25 6.39 1.34 12.36 2.51 17.89 3.5-5.27-2.26-12.24-5.59-18.05-9.54-.16-.05-.3-.14-.41-.28-1.72-1.2-3.33-2.45-4.75-3.74-.01-.01-.03-.02-.04-.04-1.47-1.34-2.73-2.72-3.71-4.13-.02-.03-.04-.06-.06-.09-.68-1-1.23-2.01-1.59-3.03-.95-2.69-.68-5.28.82-7.71 4.44-7.2 17.01-2.65 31.57 2.63 13.18 4.78 27.74 10.05 36.41 5.9-.48.06-.96.09-1.47.09-2.38 0-5.03-.63-7.87-1.66-.05.27-.1.5-.16.68-.12.37-.47.6-.84.6-.09 0-.19-.01-.28-.04-.46-.15-.71-.65-.56-1.11.06-.17.11-.44.16-.77-1.35-.55-2.73-1.17-4.14-1.86-.26.33-.41.54-.42.55-.17.24-.44.37-.71.37-.03.21-.07.42-.11.59-.09.41-.46.69-.86.69-.06 0-.13 0-.2-.02-.47-.11-.77-.58-.67-1.05.14-.61.24-1.48.31-2.46-1.84-.96-3.72-1.99-5.64-3.07-1.17.96-1.93 1.62-1.96 1.65-.14.12-.3.18-.47.2l-.14 1.95c-.03.46-.42.82-.88.82-.02 0-.04 0-.06 0-.49-.03-.85-.45-.82-.94l.41-5.89c-.89-.5-1.77-1.01-2.66-1.51-.79.61-1.27 1-1.29 1.01-.16.13-.36.2-.55.2-.18 0-.35-.07-.5-.18l-.27 1.63c-.07.43-.45.74-.87.74-.05 0-.1 0-.14-.01-.48-.08-.81-.53-.73-1.01l.72-4.4c-.7-.38-1.4-.76-2.09-1.13-2.1 1.68-3.73 2.93-3.89 3.05s-.35.18-.54.18c-.27 0-.53-.12-.7-.34-.18-.24-.21-.53-.13-.79-.1.24-.19.48-.3.72-.15.32-.47.52-.8.52-.12 0-.25-.03-.37-.08-.44-.2-.64-.72-.44-1.17.71-1.55 1.23-3.21 1.61-4.86-1.63-.75-3.22-1.42-4.76-1.99-2.84 2.51-4.66 4.72-4.7 4.76-.17.22-.43.33-.69.33-.2 0-.39-.06-.55-.2-.38-.31-.44-.86-.13-1.24.14-.18 1.68-2.05 4.13-4.31-5.63-1.72-10.5-1.69-13.82 1.73-8.09 8.35-14.8 11.95-19.93 10.71-5.72-1.38-7.79-8.14-8.78-11.39-.15-.49-.27-.89-.38-1.16-.29-.74-1.26-1.62-2.28-2.56-1.86-1.7-3.96-3.62-3.9-6.2.02-.75.24-1.5.63-2.24-2.19 1.66-4.14 5.48-5.63 10.15 2.79 14.64 20.44 24.62 32.14 31.23z" fill="#f7915e"/><path d="m615.24 295.78c-.28 1.33-.99 2.16-1.82 2.66 8.56 2.9 20.84 3.69 28.8 4.2 1.3.08 2.49.16 3.57.24-1.76-1.36-4.84-3.1-8.25-5.03-11.19-6.32-27.68-15.65-32.22-29.43-.93 3.65-1.59 7.59-1.9 11.31.86 2.18 3.69 5.13 6.21 7.74 3.74 3.89 6.02 6.38 5.61 8.3z" fill="#f7915e"/><path d="m676.65 273.69c-.11-.06-.21-.12-.32-.18l-.08.5c.11-.09.24-.19.4-.32z" fill="#f7915e"/><path d="m667.64 273.12s1.39-1.07 3.25-2.55c-.74-.38-1.47-.75-2.19-1.1-.32 1.31-.75 2.61-1.26 3.88.05-.09.12-.17.2-.23z" fill="#f7915e"/><path d="m682.68 277.11-.06.83c.18-.15.39-.33.62-.52-.19-.11-.37-.21-.56-.32z" fill="#f7915e"/><path d="m452.31 273.09c20.33-6.67 43.03-14.24 67.51-22.54l-48.6-29.84c-3.2 1.17-25.18 9.04-58.83 18.3l4.81 4.1c17.16 1.77 29.59 9.68 29.59 18.85 0 1.78-.48 3.53-1.38 5.22l6.91 5.89zm13.91-37.74c7.15 0 12.76 3.38 12.76 7.69s-5.6 7.69-12.76 7.69-12.76-3.38-12.76-7.69 5.6-7.69 12.76-7.69z" fill="#cedd3e"/><path d="m451.79 274.95c-.24-.07-.44-.24-.55-.47l-43.71-37.31c-5.66 1.41-11.41 2.8-17.15 4.15 6.96 6.57 27.05 25.6 37.66 36.12 0 .01.02.02.03.03 1.11 1.1 2.11 2.11 2.99 3 .05.04.1.08.13.14.84.86 1.56 1.6 2.12 2.21.08.06.14.13.2.21.71.77 1.14 1.29 1.24 1.5.87 1.97.37 15 .14 19.97l20.81-8.24c.03-.33.06-.67.09-1.01 0 0 0-.02 0-.03.68-7.55.92-15.71.13-16.75l-4.12-3.51z" fill="#fff"/><path d="m466.22 248.97c5.96 0 10.99-2.72 10.99-5.93s-5.03-5.93-10.99-5.93-11 2.72-11 5.93 5.04 5.93 11 5.93z" fill="#94a727"/><path d="m419.63 245.19 24.4 20.83c.64-1.32.99-2.68.99-4.05 0-7.8-10.51-14.64-25.39-16.78z" fill="#94a727"/><path d="m623.44 394.08c3.67-1.67 4.5-5.14 5.27-8.52-6.09 1.14-9.62 4.56-13.06 8.65 1.73.84 5.63.85 7.79-.13z" fill="#b5c933"/><path d="m527.41 254.56c.06-.3.15-.71.23-1.1l-71.12 23.22.56.48c1.58 1.35 1.16 10.05.59 16.74l66.86-26.78c.08-.08.17-.15.28-.2.4-.21 1.51-1.95 1.69-3.56.06-.56-.01-.98-.21-1.15-.31-.27-.39-.72-.2-1.08l.24-.46c.81-1.52 1.06-1.98.78-3.63-.06-.33.08-.66.34-.85.35-.26.5-.5.53-.61-.02 0-.05-.03-.11-.06-.35-.18-.54-.57-.46-.96z" fill="#b5c933"/><path d="m304.74 262.74 23.77 46.77c3.52-.89 22.85-5.97 100.31-28.82-.53-.53-1.1-1.09-1.7-1.69-5.26 1.44-11.19 2.2-17.19 2.2-20.33 0-36.86-8.62-36.86-19.23 0-7.06 7.18-13.4 18.83-16.78-.21-.2-.42-.39-.62-.59-28.96 7.34-58.06 13.44-86.53 18.14zm45.02 20.64c-7.15 0-12.76-3.38-12.76-7.69s5.6-7.69 12.76-7.69 12.76 3.38 12.76 7.69-5.6 7.69-12.76 7.69z" fill="#cedd3e"/><path d="m349.76 269.76c-5.96 0-11 2.72-11 5.93s5.04 5.93 11 5.93 11-2.72 11-5.93-5.04-5.93-11-5.93z" fill="#94a727"/><path d="m409.92 279.43c5.47 0 10.87-.65 15.73-1.88-8.03-7.89-21.12-20.39-32.27-30.96-11.29 3.04-18.56 9.04-18.56 15.37 0 9.63 15.75 17.46 35.1 17.46z" fill="#94a727"/><path d="m330.1 338.96c.17-.7-.28-1.6-.76-2.55-.65-1.29-1.43-2.86-.69-4.39-.04-.04-.07-.07-.11-.1-.35-.26-.46-.74-.25-1.12.05-.09.07-.29.09-.48 0-.08.02-.17.03-.26-.01 0-.02 0-.03-.01-.83-.4-1.96-.95-2.17-2.23-.1-.61.23-1.07.45-1.37.04-.05.09-.13.13-.18l-.02-.37q0-.22-.15-.71c-.65-2.18-2.04-5.11-2.68-5.36-.33-.04-.57-.27-.68-.55-1.54-2.94-23.94-45.93-27.36-57.12-.17.38-.2.78-.1 1.39.06.38.29.86.52 1.34.48 1.01 1.25 2.59.14 3.85.34.73.08 1.36-.07 1.71-.04.09-.1.23-.1.28.07.33.26.69.45 1.06.32.62.68 1.33.69 2.22 0 .44-.32.82-.76.88-.38.06-.48.15-.48.15-.09.23.31 1.11.51 1.54.18.4.36.78.47 1.15l33.89 64.62c-.06-1.05-.22-2.14-.49-2.4-.42-.15-.58-.55-.47-.99z" fill="#abb833"/><path d="m432.53 284.51-106.67 34.82c1.39 1.83 2.37 5.08 2.42 5.27.22.73.24.81.26 1.25l.02.42c.03.55-.27.96-.47 1.23-.03.04-.07.1-.1.15.12.29.53.51 1.17.81.27.13.53.26.77.4.2.12.35.32.41.55s.02.47-.11.67c-.04.07-.07.28-.09.45-.02.13-.03.28-.06.44l.06.06c.07.08.13.15.2.21.37.31.42.86.12 1.23-.65.81-.25 1.73.47 3.16.49.97 1.03 2.05.98 3.17.94 1.11 1.01 3.66.92 5.1l100.33-40.18c.33-7.56.52-17.26-.02-18.48-.08-.13-.29-.38-.6-.73z" fill="#b5c933"/><path d="m557.59 388.79c-.28.1-.58.19-.86.29-1.3.41-1.99.69-2.21 1.27 1.03.77 2.07 1.58 3.13 2.4-.25-1.43-.24-2.73-.05-3.95z" fill="#ab8553"/><path d="m610.18 393.21c.96.22 1.91.5 2.82.85.06-.34.17-.81.3-1.37.43-1.88 1.2-5.2.95-7.27-1.26.07-2.6-.08-3.63-.26.54 2.66.11 5.42-.44 8.06z" fill="#b78d43"/><path d="m562.93 374.11c1.53 1.03 4.59 1.35 6.4.82.61-.18 1.04-.45 1.07-.7.04-.23.16-.41.33-.55-.02-.36-.03-.71-.04-1.07-.16-4.43-.46-7.19-4.54-7.05-1.57.04-2.61.38-3.17 1.06-.99 1.18-.64 3.47-.27 5.9.08.52.16 1.05.23 1.58z" fill="#85c3e9"/><path d="m585.08 379.49c1.6.09 3.04.7 4.23 1.75 1.21-.71 2.46-.92 3.49-1.1.81-.14 1.29-.24 1.57-.41.01-.26.13-.5.33-.66 0-.17-.01-.35-.05-.6-.04-.26-.37-.49-.9-.85-.85-.56-2.01-1.34-2.15-3.07-.1-1.21.86-2.7 1.7-4.01.02-.03.04-.06.06-.09-5.38-.46-5.83-1.59-7.09-6.49 0-.04-.02-.07-.03-.11-.5.61-1.04 1.43-1.58 2.23-1.59 2.4-3.24 4.87-5.35 4.87-.03 0-.06 0-.08 0-.59-.02-1.15-.23-1.67-.63.19 2.43 1.21 5.09 2.72 6.83.93 1.08 2.55 2.37 4.74 2.3h.04z" fill="#abb833"/><g fill="none"><path d="m432.78 283.5-108.68 35.48s-27.28-52.21-27.75-58.79c0 0 132.64-24.46 175.44-43.74l58.32 35.28-75.37 24.61" stroke="#25384f" stroke-linecap="round" stroke-linejoin="round" stroke-width="1.76"/><path d="m324.1 318.98c1.29.17 2.93 4.49 3.34 5.87.27.91.19.61.24 1.47.03.48-.67.88-.59 1.36.18 1.09 1.48 1.4 2.39 1.93-.28.46-.14 1.1-.41 1.6.28.21.47.5.7.7-1.83 2.27 1.75 4.91 1.19 7.25 1.15.42 1.09 4.89.9 5.45" stroke="#25384f" stroke-linecap="round" stroke-linejoin="round" stroke-width="1.76"/><path d="m434 304.32-102.37 41-35.28-67.26c-.37-1.37-2.25-3.69.2-4.04 0-1.17-.89-2.03-1.12-3.11-.17-.78.91-1.31-.17-2.3 2.08-1.3-.08-3.27-.33-4.91-.26-1.68.31-2.34 1.42-3.51" stroke="#25384f" stroke-linecap="round" stroke-linejoin="round" stroke-width="1.76"/><path d="m528.71 252.66c-.07.3-.31 1.45-.44 2.08 1.02.53.6 1.48-.3 2.16.36 2.12-.09 2.71-1.11 4.64 1.53 1.32-.56 5.65-1.68 6.17h.24l-68.76 27.54" stroke="#25384f" stroke-linecap="round" stroke-linejoin="round" stroke-width="1.76"/><path d="m388.6 240.86s44.39 41.9 45.33 44.02 0 20.93 0 20.93l22.58-8.94s1.76-17.55 0-19.05-48.73-41.59-48.73-41.59" stroke="#25384f" stroke-linecap="round" stroke-linejoin="round" stroke-width="1.76"/><path d="m452.02 274.11c19.9-6.52 43.01-14.23 69.86-23.33l-50.56-31.04s-23.14 8.57-60.77 18.87" stroke="#25384f" stroke-linecap="round" stroke-linejoin="round" stroke-width="1.76"/><path d="m391.52 243.63c-25.26 6.42-55.26 13.06-88.12 18.44l24.63 48.47s12.37-2.84 102.44-29.42" stroke="#25384f" stroke-linecap="round" stroke-linejoin="round" stroke-width="1.76"/><ellipse cx="349.76" cy="275.69" rx="11.88" ry="6.81" stroke="#25384f" stroke-linecap="round" stroke-linejoin="round" stroke-width="1.76"/><ellipse cx="466.22" cy="243.04" rx="11.88" ry="6.81" stroke="#25384f" stroke-linecap="round" stroke-linejoin="round" stroke-width="1.76"/><path d="m427.37 278.02c-5.17 1.46-11.12 2.3-17.45 2.3-19.87 0-35.98-8.21-35.98-18.34 0-7.14 8-13.33 19.68-16.36" stroke="#25384f" stroke-linecap="round" stroke-linejoin="round" stroke-width="1.76"/><path d="m416.84 243.97c16.56 1.64 29.07 9.08 29.07 18.01 0 1.89-.56 3.72-1.61 5.44" stroke="#25384f" stroke-linecap="round" stroke-linejoin="round" stroke-width="1.76"/><path d="m206.76 397.15 14.37-4.56" stroke="#25384f" stroke-linecap="round" stroke-linejoin="round" stroke-width="1.76"/><rect height="123.17" rx="5.88" stroke="#25384f" stroke-linecap="round" stroke-linejoin="round" stroke-width="1.76" transform="matrix(.95297934 -.30303527 .30303527 .95297934 -124.21 90.67)" width="70.36" x="194.9" y="384.02"/><path d="m206.76 397.15 14.37-4.56" stroke="#25384f" stroke-linecap="round" stroke-linejoin="round" stroke-width="1.76"/><path d="m210.22 499.23 67.05-21.32" stroke="#25384f" stroke-linecap="round" stroke-linejoin="round" stroke-width="1.76"/><path d="m182.9 413.31 67.05-21.32" stroke="#25384f" stroke-linecap="round" stroke-linejoin="round" stroke-width="1.76"/><path d="m278.75 279.89c-6.8.59-28.43-.7-37.59-2.27 2.8 3.65 8.95 7.89 13.13 10.55-4.03-1.44-11.43-6.88-13.81-10.58 4.21-3.21 8.99-6.02 13.44-8.97" stroke="#25384f" stroke-linecap="round" stroke-linejoin="round" stroke-width="1.76"/><path d="m331.97 357.02c-4.39 5.23-35.71 35.35-43.29 40.72 4.56.6 11.91-.75 16.74-1.82-3.87 1.84-12.95 3.22-17.25 2.29.71-5.24 2.1-10.61 3.16-15.85" stroke="#25384f" stroke-linecap="round" stroke-linejoin="round" stroke-width="1.76"/><path d="m412.87 331.8c.59 6.8-4.08 108.12-5.64 117.28 3.65-2.8 7.89-8.95 10.55-13.13-1.44 4.03-6.88 11.43-10.58 13.81-3.21-4.21-6.02-8.99-8.97-13.44" stroke="#25384f" stroke-linecap="round" stroke-linejoin="round" stroke-width="1.76"/><path d="m457.29 318.98c5.23 4.39 64.69 74.99 70.06 82.57.6-4.56-.75-11.91-1.82-16.74 1.84 3.87 3.22 12.95 2.29 17.25-5.24-.71-10.61-2.1-15.85-3.16" stroke="#25384f" stroke-linecap="round" stroke-linejoin="round" stroke-width="1.76"/><path d="m521.89 279.89c6.8-.59 47.64 1.56 56.8 3.13-2.8-3.65-8.95-7.89-13.13-10.55 4.03 1.44 11.43 6.88 13.81 10.58-4.21 3.21-8.99 6.02-13.44 8.97" stroke="#25384f" stroke-linecap="round" stroke-linejoin="round" stroke-width="1.76"/><path d="m482.48 207.45c4.39-5.23 41.1-39.19 48.68-44.56-4.56-.6-11.91.75-16.74 1.82 3.87-1.84 12.95-3.22 17.25-2.29-.71 5.24-2.1 10.61-3.16 15.85" stroke="#25384f" stroke-linecap="round" stroke-linejoin="round" stroke-width="1.76"/><path d="m410.55 216.44c-.59-6.8.5-95.73 2.06-104.89-3.65 2.8-7.89 8.95-10.55 13.13 1.44-4.03 6.88-11.43 10.58-13.81 3.21 4.21 6.02 8.99 8.97 13.44" stroke="#25384f" stroke-linecap="round" stroke-linejoin="round" stroke-width="1.76"/><path d="m349.76 226.26c-5.23-4.39-51.89-59.61-57.26-67.19-.6 4.56.75 11.91 1.82 16.74-1.84-3.87-3.22-12.95-2.29-17.25 5.24.71 10.61 2.1 15.85 3.16" stroke="#25384f" stroke-linecap="round" stroke-linejoin="round" stroke-width="1.76"/><path d="m381.7 23.69c-.28.05-1.84.77-2.12.82-4.5.75-8.83 1.89-13.31 2.76-3.71.72-7.56.78-11.16 1.87-7.05 2.13-14.09 4.63-21.23 6.3-4.08.96-9.01 1.71-11.11 5.82-1.61 3.17-.83 9.42 2.67 11.17-3.56 14.09 17.83 21.64 27.41 27.16 4.87 2.8 10.01 3.69 14.98 5.96 2.81 1.28 5.83 2.48 8.65 3.36 3.22 1 3.9.62 5.38-2.37 1.51-3.05 2.48-6.31 3.57-9.45 2.27-6.57 5.1-13.09 11.8-16.59 3.27-1.7 7.64-3.01 10.59-.24 2.55 2.38 2.31 5.9 2.75 9.03.27 1.94-.37 5.61 1.25 6.49 2.14 1.17 6.7-2.69 8.62-3.89 8.92-5.6 17.71-11.37 26.24-17.54 1.89-1.37 6.13-3.03 7.35-5.02 1.51-2.46 1.24-8.09 2.47-11.14.88-2.18 2.79-8.01 5.78-5.84 1.23.89 2.33 5 2.56 6.4.22 1.36-.25 2.65.01 4.02.76.14 1.3-.23 1.49-.6 4.19-4.02 2.85-16.3-1.25-20.09-3.86-3.57-10.89-6.56-15.86-8.02-4.16-1.23-8.22-2.07-12.46-1.69-4.9.44-9.76 1.23-14.6 2.22" stroke="#25384f" stroke-linecap="round" stroke-linejoin="round" stroke-width="1.76"/><path d="m411.09 75.12c-.18 2.66-.79 5.45-1.86 8.21-4.15 10.72-13.71 17.01-21.35 14.05-3.6-1.39-6.12-4.59-7.36-8.7" stroke="#25384f" stroke-linecap="round" stroke-linejoin="round" stroke-width="1.76"/><ellipse cx="395.41" cy="77.97" rx="10.31" ry="7.34" stroke="#25384f" stroke-linecap="round" stroke-linejoin="round" stroke-width="1.76" transform="matrix(.36129911 -.93244998 .93244998 .36129911 179.83 418.49)"/><path d="m465.25 42.79c0 1.04-.09 2.11-.29 3.19-1.27 6.94-6.3 11.84-11.25 10.93-2.11-.39-3.86-1.77-5.08-3.76" stroke="#25384f" stroke-linecap="round" stroke-linejoin="round" stroke-width="1.76"/><path d="m456.48 38.08c.22 0 .44.01.67.05 2.45.45 3.92 3.6 3.3 7.03-.63 3.44-3.12 5.86-5.57 5.41-.5-.09-.96-.3-1.37-.59" stroke="#25384f" stroke-linecap="round" stroke-linejoin="round" stroke-width="1.76"/><ellipse cx="363.98" cy="66.31" rx="6.76" ry="4.62" stroke="#25384f" stroke-linecap="round" stroke-linejoin="round" stroke-width="1.76" transform="matrix(.15177837 -.98841455 .98841455 .15177837 243.2 416.01)"/><ellipse cx="326.52" cy="45.15" rx="6.13" ry="4.19" stroke="#25384f" stroke-linecap="round" stroke-linejoin="round" stroke-width="1.76" transform="matrix(.15177837 -.98841455 .98841455 .15177837 232.34 361.04)"/><path d="m329.83 51.87c-.36 1.68.05 4.72.39 6.61.45 2.5 19.03 12.96 20.17 13.6.76.43 1.58.96 2.44 1.14 1.9.41 1.79-1.75 1.81-3.33.03-1.8.27-2.86-.28-4.59-.71-2.26-4.39-4.14-6.35-5.32-4.2-2.53-8.08-5.43-12.52-7.56-1.48-.71-5.31-2.23-5.67-.55z" stroke="#25384f" stroke-linecap="round" stroke-linejoin="round" stroke-width="1.76"/><path d="m381.97 24.91c-.84-.18-1.85.28-2.67.48-1.71.43-34.43 13.45-35.99 14.43-.63.39-2.15 1.12-2.05 2.07.1.87 1.42 1.23 2.02 1.61 1.25.79 8.14 4.62 10.34 5.48 1.64.64 3.41 1.15 5.11 1.57 2.25.56 4.12-.46 6.26-1.21 2.95-1.03 15.54-4.79 18.91-5.6 3.04-.73 14.81-4.13 17.7-4.97 2.47-.71 5.09-1.21 7.6-1.77 1.27-.28 3.45-.42 4.45-1.29 3.45-2.99-12.72-7.77-14.48-8.25-3.41-.94-6.95-1.42-10.4-2.17-1.19-.26-2.45-.39-3.65-.45-.55-.03-2.17 0-3.16.06z" stroke="#25384f" stroke-linecap="round" stroke-linejoin="round" stroke-width="1.76"/><path d="m324.73 58.9c-2.62 1.9-2.99 4.95-2.49 8.28.39 2.59 5.92 7.57 13.36 13.6 13.16 10.47 38.17 14.98 39.51 14.42.98-.41 1.93-1.53 2.41-2.46.6-1.15 1.61-2.39 2.12-3.47" stroke="#25384f" stroke-linecap="round" stroke-linejoin="round" stroke-width="1.76"/><path d="m381.26 24.58c12.6-2.52 37.33 8.66 44.57 7.83 1.68-.19 2.23.2 2.57-1.56.41-2.09.59-4.44.44-6.56-.14-2.02.01-4.12-.24-6.12-.07-.51-.02-1.16-.35-1.57-.75-.95-3.05-1.3-4.1-1.55-4.22-1.02-8.38-1.89-12.63-2.73-2.01-.4-4.01-.88-6.02-1.28s-11.33-1.85-13.54-1.3c-1.14.28-1.67 1.45-2.38 2.39-1.38 1.81-2.54 3.78-3.99 5.53-1.78 2.13-4.44 7.01-4.31 6.93" stroke="#25384f" stroke-linecap="round" stroke-linejoin="round" stroke-width="1.76"/><path d="m402.11 58.51c-2.23-3.2 1.55-5.38 3.94-6.94 3.43-2.24 7.58-3.95 11.34-5.56 3.74-1.6 7.45-3.32 11.12-5.08 4.86-2.32 10.2-3.92 15.21-5.86 1.51-.59 3.37-1.64 5.02-1.68 1.92-.05.91 6.86.67 8.41-.25 1.6-.89 7.6-1.04 9.08-.05.46 0 .95-.05 1.4-.01.14-.11 1.21-.09.72" stroke="#25384f" stroke-linecap="round" stroke-linejoin="round" stroke-width="1.76"/><path d="m435.63 41.78c-.42.32-.79.91-.54 1.46.67 1.49 3.71.33 4.76.05 1.67-.44 6.64-1.2 6.97-3.27.47-3.05-2.55-1.9-4.23-1.27-1.6.6-3.24 1.24-4.75 2.05-.5.27-1.83.93-2.21.99z" stroke="#25384f" stroke-linecap="round" stroke-linejoin="round" stroke-width="1.76"/><path d="m428.32 32.78c6.72 1.95 2.38 32.95 2.48 32.63" stroke="#25384f" stroke-linecap="round" stroke-linejoin="round" stroke-width="1.76"/><path d="m427.97 32.66c4.04-1.57 8.37-2.25 12.38-4.18 2.27-1.09 4.6-2.14 6.8-3.37.95-.53 3.64-1.79 4.14-2.77 1.29-2.49-10.23-4.45-12.16-4.87-2.15-.48-4.16-.93-6.34-.61-1.45.21-2.88.47-4.3.76" stroke="#25384f" stroke-linecap="round" stroke-linejoin="round" stroke-width="1.76"/><path d="m469.52 30.78c2.46-.82 3.79 1.12 3.24 3.42-.58 2.45-1.67 4.38-4.17 4.54" stroke="#25384f" stroke-linecap="round" stroke-linejoin="round" stroke-width="1.76"/><path d="m474.64 29.54c2.44-1.78 4.81-2.64 6.9-4.3-1.07-1.93-2.74-4.01-1.69-6.31 1.36-2.99 4.6-2.48 6.81-.88.43-2.92 4.04-4.5 6.8-4 2.95.54 6.85 4.2 3.4 6.87 2.19-.06 4.14 1.17 4.86 3.39.89 2.72-.41 3.68-2.64 4.54 1.11.66 1.51 1.78.81 3.05-.74 1.36-1.74 1.09-3.14.91.12 2.61-1.88 4-4.49 3.63-3.2-.46-3.44-2.26-4.54-5.08-2.37 2.02-5.97 0-5.83-2.14l-5.58 3.61" stroke="#25384f" stroke-linecap="round" stroke-linejoin="round" stroke-width="1.76"/><path d="m589.26 410c.84-10.64 6.02-17.47 18.06-16.38 4.35.4 9.25 2.45 11.99 5.61 1.83 2.11 2.89 5.98 2.18 8.62" stroke="#25384f" stroke-linecap="round" stroke-linejoin="round" stroke-width="1.76"/><path d="m609.23 393.44c.68-3.19 1.22-6.42.16-9.42 1.76.4 3.93.67 5.57.45.8 2.68-.8 8.1-1.1 9.81" stroke="#25384f" stroke-linecap="round" stroke-linejoin="round" stroke-width="1.76"/><path d="m614.37 394.36c4.13-5 8.13-8.93 15.49-9.88-.91 3.77-1.48 8.32-6.06 10.4-2.73 1.24-7.95 1.13-9.43-.52" stroke="#25384f" stroke-linecap="round" stroke-linejoin="round" stroke-width="1.76"/><path d="m579.82 409.36c1.29-6.65 1.44-13.9-2.38-19.27-3.75-5.28-5.09-8.33-5.74-15.11-.43-4.42.65-10.43-5.58-10.28-8.25.19-2.8 8.66-4.09 13.85-1.47 5.88-5.34 9.5-2.93 16.29" stroke="#25384f" stroke-linecap="round" stroke-linejoin="round" stroke-width="1.76"/><path d="m561.74 374.25c2.04 2.32 9.16 2.47 9.53.13" stroke="#25384f" stroke-linecap="round" stroke-linejoin="round" stroke-width="1.76"/><path d="m576.33 387.5c1.57-7.25 11.38-10.49 14.51-2.47 1.27 3.26.59 13.88-1.58 24.98" stroke="#25384f" stroke-linecap="round" stroke-linejoin="round" stroke-width="1.76"/><path d="m585.06 380.36c-5.94.12-9.07-7.66-8.28-12.37 3.79 6.54 7.19-4.18 9.96-5.77 1.69 6.36 1.22 7.06 8.13 7.46-.52 1.12-2.49 3.47-2.37 4.8.2 2.33 2.81 2.35 3.04 3.86.56 3.65-3.3 1.75-6.31 4.01" stroke="#25384f" stroke-linecap="round" stroke-linejoin="round" stroke-width="1.76"/><path d="m595.24 379.77c3.93-1.12 9.37-5.14 13.01-2.96 2.21 1.32 3.41 6.73 3.25 6.96" stroke="#25384f" stroke-linecap="round" stroke-linejoin="round" stroke-width="1.76"/><path d="m615.12 387.55c2.05-8.74 5.62-28.49 16.95-26.44 9.93 1.79 8.09 17.9 7.3 23.98-.7 5.33-2.57 17.34-3.01 19.77" stroke="#25384f" stroke-linecap="round" stroke-linejoin="round" stroke-width="1.76"/><path d="m638.52 392.88c2.79 2.22 7.73 7.93 5.84 9.41-2.02 1.58-20.69 5.49-24.82 6.28-12.57 2.41-33.33 3.51-45.9-.33-1.54-.75-6.02-5.62-8.42-7.89-3.68-3.5-7.56-6.54-11.68-9.63.09-2.74 4.23-2.11 5.39-3.85" stroke="#25384f" stroke-linecap="round" stroke-linejoin="round" stroke-width="1.76"/><path d="m553.55 390.73c-2.79 15.61-5.14 30.86-7.76 46.49-1.56 9.33-7.28 18.61-9.66 27.09.98 3.56 7.5 10.67 9.71 13.37 1.57 1.92 14.72 12.33 14.72 12.33s-1.33-7.83-1.2-10.2c.45-8.1 0-16.03 1.21-24.12 1.36-9.06 3.8-18 6.74-26.68 1.54-4.54 3.14-9.34 4.01-14.06.37-2.05.33-4.99 1.41-6.74" stroke="#25384f" stroke-linecap="round" stroke-linejoin="round" stroke-width="1.76"/></g><path d="m559.05 424.45c-.62 6.47-1.13 12.99-2.76 19.3-1.53 6.29-3.91 12.29-4.6 18.77-.17 1.14-1.89.93-1.75-.23.66-6.5 3.14-12.63 4.6-18.95 1.34-6.23 2.86-12.72 4.51-18.88z" fill="#25384f"/><path d="m541.07 463.41c1.96-.44 9.47-3.4 10.59-1.24 1.57 5.33 2.76 10.75 5.21 15.69 1.56 2.94 3.34 6.06 4.13 9.36.12.47-.18.95-.65 1.07s-.95-.18-1.07-.65c-.5-2.06-1.4-4.05-2.41-6-3.46-5.82-5.1-12.59-6.91-18.98 0 0 .79.64.79.64-3.11.17-6.5.62-9.69.12z" fill="#25384f"/><path d="m560.55 490.01c1.83.21 13.01 3 21.37 2.84 24.45.05 52.69-9.31 52.29-10.65s-.9-6.21-1.18-9.17c-.65-6.79-1.26-13.65-.59-20.48 1.06-10.74 2.78-21.57 6.05-31.85 1.99-6.25 3.77-12.34 5.86-18.41" fill="none" stroke="#25384f" stroke-linecap="round" stroke-linejoin="round" stroke-width="1.76"/><path d="m602.98 291.02c-2.03 6.12-1.75 12.16.21 16.13 5.06 10.27 43.79 8.22 52.15 8.91s27.64 7.01 52.15 4.27c22.63-2.53 46.76-25.15 38-34.48" fill="none" stroke="#25384f" stroke-linecap="round" stroke-linejoin="round" stroke-width="1.76"/><path d="m602.98 291.02c3.06 12.94 40.5 11.83 47.08 13.22 6.58 1.38 35.46 7.43 50.22 7.46 30.07.06 58.08-22.55 39.31-32.43-9.72-5.11-32.47-3.46-50.38-10.36-16.69-6.42-25.84-19.33-33.14-18.54-10.38 1.12-9.49 10.75-19.31 12.5-10.42 1.86-15.41-15.31-25.08-8.88-6.89 4.58-11 27.31-8.7 37.02z" fill="none" stroke="#25384f" stroke-linecap="round" stroke-linejoin="round" stroke-width="1.76"/><path d="m615.08 252.61c-7.65 6.3 1.92 9.75 3.19 13.02 1.27 3.26 5.04 24.84 27.63 1.55 15.19-15.66 57.97 33.53 68.85 14.35 2.65-4.68-3.11-7.5-3.11-7.5" fill="none" stroke="#25384f" stroke-linecap="round" stroke-linejoin="round" stroke-width="1.76"/><path d="m656.07 250.38s-17.63 6.98-4.61 12.89" fill="none" stroke="#25384f" stroke-linecap="round" stroke-linejoin="round" stroke-width="1.76"/><path d="m602.53 279.91c1.82 4.94 12.47 12.68 11.85 15.69-.63 3-3.94 2.62-3.94 2.62" fill="none" stroke="#25384f" stroke-linecap="round" stroke-linejoin="round" stroke-width="1.76"/><path d="m605.35 265.02c3.93 21.91 39.95 33.52 42.67 38.93" fill="none" stroke="#25384f" stroke-linecap="round" stroke-linejoin="round" stroke-width="1.76"/><path d="m714.75 281.53c-11.87 24.23-64.49-17.61-73.66-2.76-9.16 14.85 35.29 30.41 35.29 30.41" fill="none" stroke="#25384f" stroke-linecap="round" stroke-linejoin="round" stroke-width="1.76"/><path d="m696.17 311.56s-7.72-1.07-5.91-5.97c2.47-7.64 39.49-.17 47.93-17.64 3.06-6.88-.49-9.53-.49-9.53" fill="none" stroke="#25384f" stroke-linecap="round" stroke-linejoin="round" stroke-width="1.76"/><path d="m641.88 288.64s1.79-6.94 9.65-12.9" fill="none" stroke="#25384f" stroke-linecap="round" stroke-linejoin="round" stroke-width="1.76"/><path d="m645.56 292.71s5.49-10.7 14.51-14.94" fill="none" stroke="#25384f" stroke-linecap="round" stroke-linejoin="round" stroke-width="1.76"/><path d="m647.7 294.31s5.99-8.84 19.27-14.22" fill="none" stroke="#25384f" stroke-linecap="round" stroke-linejoin="round" stroke-width="1.76"/><path d="m650.37 296.51s14.83-10.96 24.62-13.53" fill="none" stroke="#25384f" stroke-linecap="round" stroke-linejoin="round" stroke-width="1.76"/><path d="m654.23 298.91s18.77-9.72 30.64-12.6" fill="none" stroke="#25384f" stroke-linecap="round" stroke-linejoin="round" stroke-width="1.76"/><path d="m658.48 301.29s24.03-10.15 35.04-12.8" fill="none" stroke="#25384f" stroke-linecap="round" stroke-linejoin="round" stroke-width="1.76"/><path d="m656.92 270.92s7.93-9.82 17.19-11.92" fill="none" stroke="#25384f" stroke-linecap="round" stroke-linejoin="round" stroke-width="1.76"/><path d="m668.8 255.03s1.18 10.67-2.55 18.89" fill="none" stroke="#25384f" stroke-linecap="round" stroke-linejoin="round" stroke-width="1.76"/><path d="m668.18 273.82s9.04-6.94 12.77-10.63" fill="none" stroke="#25384f" stroke-linecap="round" stroke-linejoin="round" stroke-width="1.76"/><path d="m677.41 261.47-2.58 15.67" fill="none" stroke="#25384f" stroke-linecap="round" stroke-linejoin="round" stroke-width="1.76"/><path d="m676.47 274.95s7.47-6.05 12.39-8.16" fill="none" stroke="#25384f" stroke-linecap="round" stroke-linejoin="round" stroke-width="1.76"/><path d="m682.61 265.36-1.17 16.73" fill="none" stroke="#25384f" stroke-linecap="round" stroke-linejoin="round" stroke-width="1.76"/><path d="m682.34 279.34s8.93-7.96 14.76-9.39" fill="none" stroke="#25384f" stroke-linecap="round" stroke-linejoin="round" stroke-width="1.76"/><path d="m691.44 268.72s.46 11.64-.37 15.35" fill="none" stroke="#25384f" stroke-linecap="round" stroke-linejoin="round" stroke-width="1.76"/><path d="m692.03 282.8s4.89-6.93 13.05-9.76" fill="none" stroke="#25384f" stroke-linecap="round" stroke-linejoin="round" stroke-width="1.76"/><path d="m698.68 271.13s.05 12.31-.69 14.54" fill="none" stroke="#25384f" stroke-linecap="round" stroke-linejoin="round" stroke-width="1.76"/><path d="m698.99 284.33s3.96-5.6 8.04-5.79c0 0-1.31-4.22-.66-7.21" fill="none" stroke="#25384f" stroke-linecap="round" stroke-linejoin="round" stroke-width="1.76"/><path d="m561.48 86.53c3.46-10.53 6.03-18.23 6.03-18.23" fill="none" stroke="#25384f" stroke-linecap="round" stroke-linejoin="round" stroke-width="1.76"/><path d="m606.6 148.91c-3.83 9-6.84 15.64-7.7 16.46-2.96 2.8-14.44.83-29.6-4.69-15.16-5.53-25.21-11.41-25.68-15.46-.14-1.18 1.84-8.2 4.7-17.55" fill="none" stroke="#25384f" stroke-linecap="round" stroke-linejoin="round" stroke-width="1.76"/><path d="m630.12 91.12s-2.99 7.55-7.12 17.84" fill="none" stroke="#25384f" stroke-linecap="round" stroke-linejoin="round" stroke-width="1.76"/><rect fill="none" height="9.8" rx="3.53" stroke="#25384f" stroke-linecap="round" stroke-linejoin="round" stroke-width="1.76" transform="matrix(.93951341 .34251212 -.34251212 .93951341 62.07 -201.17)" width="77.84" x="561.7" y="70.25"/><path d="m635.68 82.72s2.24-11.47-.2-12.36c-2.45-.89-29.35-10.7-29.35-10.7s-26.91-9.81-29.35-10.7-8.11 9.33-8.11 9.33" fill="none" stroke="#25384f" stroke-linecap="round" stroke-linejoin="round" stroke-width="1.76"/><path d="m575.63 143.31c19.08 6.96 34.03 5.48 34.03 5.48l16.34-39.49s-14.04-.96-34.85-8.55-32.17-15.88-32.17-15.88l-12.91 40.74s10.49 10.75 29.57 17.71z" fill="none" stroke="#25384f" stroke-linecap="round" stroke-linejoin="round" stroke-width="1.76"/><path d="m222.77 185.61 42.82-10.25-5.14-74.58-67.79-40.85-41.93 67.13 29.21 68.81z" fill="none" stroke="#25384f" stroke-linecap="round" stroke-linejoin="round" stroke-width="1.76"/><path d="m260.45 100.78 13.15-.03-82.92-50.21-.51.12-51.17 82.33 11.73-5.93" fill="none" stroke="#25384f" stroke-linecap="round" stroke-linejoin="round" stroke-width="1.76"/><path d="m207.74 189.21-12.56-52.44 30.05-7.2 12.56 52.45" fill="none" stroke="#25384f" stroke-linecap="round" stroke-linejoin="round" stroke-width="1.76"/><path d="m215.37 65.49-3.2-13.36 14.47-3.46 6.29 26.28" fill="none" stroke="#25384f" stroke-linecap="round" stroke-linejoin="round" stroke-width="1.76"/><path d="m187.74 179.38 6.85-1.64 2.13-9.63-11.05 2.64-11.04 2.64 6.26 7.63z" fill="none" stroke="#25384f" stroke-linecap="round" stroke-linejoin="round" stroke-width="1.76"/><path d="m193.02 168.99-8.68-36.26-7.35 1.76-7.35 1.76 8.69 36.26" fill="none" stroke="#25384f" stroke-linecap="round" stroke-linejoin="round" stroke-width="1.76"/><path d="m176.99 134.49 8.68 36.26" fill="none" stroke="#25384f" stroke-linecap="round" stroke-linejoin="round" stroke-width="1.76"/><path d="m173.98 154.38 14.7-3.52" fill="none" stroke="#25384f" stroke-linecap="round" stroke-linejoin="round" stroke-width="1.76"/><path d="m251.17 164.19-6.86 1.64-6.25-7.63 11.04-2.64 11.04-2.65-2.12 9.64z" fill="none" stroke="#25384f" stroke-linecap="round" stroke-linejoin="round" stroke-width="1.76"/><path d="m241.75 157.32-8.69-36.26 7.35-1.76 7.35-1.77 8.69 36.27" fill="none" stroke="#25384f" stroke-linecap="round" stroke-linejoin="round" stroke-width="1.76"/><path d="m240.41 119.3 8.69 36.26" fill="none" stroke="#25384f" stroke-linecap="round" stroke-linejoin="round" stroke-width="1.76"/><path d="m252.1 135.67-14.69 3.52" fill="none" stroke="#25384f" stroke-linecap="round" stroke-linejoin="round" stroke-width="1.76"/><path d="m201.81 139.16h21.33v9.25h-21.33z" fill="none" stroke="#25384f" stroke-linecap="round" stroke-linejoin="round" stroke-width="1.76" transform="matrix(.97249202 -.2329362 .2329362 .97249202 -27.65 53.45)"/><path d="m209.39 170.8h21.33v9.25h-21.33z" fill="none" stroke="#25384f" stroke-linecap="round" stroke-linejoin="round" stroke-width="1.76" transform="matrix(.97249202 -.2329362 .2329362 .97249202 -34.81 56.08)"/><circle cx="208.64" cy="162.75" fill="none" r="2.9" stroke="#25384f" stroke-linecap="round" stroke-linejoin="round" stroke-width="1.76"/><circle cx="201.94" cy="97.64" fill="none" r="14.64" stroke="#25384f" stroke-linecap="round" stroke-linejoin="round" stroke-width="1.76"/><path d="m198.53 83.41 6.82 28.47" fill="none" stroke="#25384f" stroke-linecap="round" stroke-linejoin="round" stroke-width="1.76"/><path d="m216.17 94.23-28.47 6.82" fill="none" stroke="#25384f" stroke-linecap="round" stroke-linejoin="round" stroke-width="1.76"/><path d="m213.47 57.56 14.47-3.47" fill="none" stroke="#25384f" stroke-linecap="round" stroke-linejoin="round" stroke-width="1.76"/><circle cx="246.18" cy="496.23" fill="#e6e7e8" r="4.94" stroke="#25384f" stroke-linecap="round" stroke-linejoin="round" stroke-width="1.76"/><path d="m197.49 290.42c-.1.26-.26.9.17 1.34h2.35c.42-.44.26-1.08.17-1.34-.26-.7-.84-1.24-1.34-1.24s-1.08.55-1.34 1.24z" fill="#fdbe2a"/><path d="m197.59 298.27c-.18.3-.67 1.25-1.15 3.52-.56 2.61-1.22 7.57-1.22 16.32 0 2.02 2.37 3.5 3.61 3.5s3.61-1.48 3.61-3.5c0-15.24-1.96-19.18-2.37-19.84h-2.47z" fill="#fdbe2a"/><path d="m197.12 299.32c.66-.32 2.01-.75 3.46.07-.22-.63-.41-.97-.51-1.13h-2.47c-.09.15-.27.47-.48 1.05z" fill="#e8a91b"/><path d="m195.33 313.38c-.07 1.72-.11 2.57-.11 4.72 0 2.02 2.37 3.5 3.61 3.5s3.61-1.48 3.61-3.5c0-2.15-.04-3-.11-4.73-.43 2.64-1.39 4.03-3.5 4.03s-3.07-1.38-3.5-4.02z" fill="#e8a91b"/><path d="m173.55 282.51c-4.29-2.49-19.68-6.08-36.31-6.08s-32.02 3.6-36.31 6.08c-1.61.93-4.16 5.68-7.18 22.99-1.37 7.85-2.34 15.53-2.74 18.89 4.47-4.37 25.66-6.92 46.24-6.92s41.77 2.56 46.23 6.92c-.94-7.81-4.97-39.01-9.93-41.88z" fill="#4495d7"/><path d="m137.24 318.13c-27.16 0-45.6 3.95-46.41 7.74-.02.14-.03.23-.03.27.04 3.86 18.69 7.98 46.44 7.98s46.4-4.13 46.44-7.98c0-.04-.01-.13-.03-.27-.81-3.78-19.25-7.73-46.41-7.73z" fill="#4495d7"/><path d="m197.75 294.32v3.29h2.16v-4.47-.73h-2.16v1.9z" fill="#e8a91b"/><path d="m198.56 294.32v3.29h.54v-4.47-.73h-.54v1.9z" fill="#fdcb55"/><path d="m198.65 273.29s0 .04 0 .06c.12 2.48.14 6.98-.09 15.2.09-.02.18-.03.27-.03.13 0 .26.02.38.06 0-1.6.06-9.95.04-14.72 0-.95 0-1.75-.02-2.33" fill="#fdbe2a"/><path d="m221.49 283.65s0 .04 0 .07c-.06.16-.14.27-.23.31 0 0-.01 0-.02 0l-20.66 8.61v-.53c.4-.49.49-1.19.22-1.93-.18-.48-.51-.97-.93-1.29 0-.02-.7.49-.7.47 0-.5-1.05-10.69-1.06-15.94l23.13 9.83c.24.1.26.32.26.39zm-24.39 8.47c-.4-.49-.49-1.19-.22-1.93.19-.52.56-1.04 1.03-1.36.24-8.4.21-12.88.11-15.28l-59.86-25.04c-.58-.24-1.25-.24-1.83 0l-83.07 34.75c-.24.1-.26.32-.26.39v.07c.06.16.14.27.23.31h.02l40.52 16.89c.05.02.1.06.13.11 1.78-9.11 4.09-17.57 6.7-19.09 4.35-2.52 19.9-6.17 36.64-6.17s32.29 3.65 36.64 6.17c2.62 1.52 4.92 9.97 6.7 19.09.03-.04.07-.08.13-.11l16.38-6.83v-1.98z" fill="#4495d7"/><path d="m200 291.76c.38-.4.29-.94.2-1.24 0 0 .04.72-1.37.72s-1.4-.63-1.4-.63c-.08.31-.12.8.22 1.16h2.35z" fill="#e8a91b"/><ellipse cx="137.24" cy="326.12" fill="#357fc1" rx="46.77" ry="8.32" stroke="#25384f" stroke-linecap="round" stroke-linejoin="round" stroke-width="1.76"/><path d="m184.01 326.12s-4.44-40.5-10.29-43.89c-4.53-2.63-20.28-6.13-36.47-6.13s-31.94 3.5-36.47 6.13c-5.85 3.4-10.29 43.89-10.29 43.89" fill="none" stroke="#25384f" stroke-linecap="round" stroke-linejoin="round" stroke-width="1.76"/><path d="m198.33 273.32-60.05-25.12c-.67-.28-1.42-.28-2.09 0l-83.07 34.75c-.61.26-.61 1.12 0 1.38l40.52 16.89" fill="none" stroke="#25384f" stroke-linecap="round" stroke-linejoin="round" stroke-width="1.76"/><path d="m200.24 293.14 21.12-8.8c.61-.26.61-1.12 0-1.38l-21.77-9.11" fill="none" stroke="#25384f" stroke-linecap="round" stroke-linejoin="round" stroke-width="1.76"/><path d="m180.84 301.23 16.58-6.92" fill="none" stroke="#25384f" stroke-linecap="round" stroke-linejoin="round" stroke-width="1.76"/><path d="m196.33 271.72s2.39-1.17 2.5.44 0 16.68 0 16.68" fill="none" stroke="#25384f" stroke-linecap="round" stroke-linejoin="round" stroke-width="1.76"/><path d="m200.14 292.09c1.18-1-.09-3.24-1.31-3.24s-2.5 2.24-1.31 3.24" fill="none" stroke="#25384f" stroke-linecap="round" stroke-linejoin="round" stroke-width="1.76"/><path d="m198.83 297.94h1.41v-5.85h-1.41-1.41v5.85z" fill="none" stroke="#25384f" stroke-linecap="round" stroke-linejoin="round" stroke-width="1.76"/><path d="m200.24 297.94s2.53 2.88 2.53 20.17c0 2.19-2.53 3.83-3.94 3.83s-3.94-1.64-3.94-3.83c0-17.29 2.53-20.17 2.53-20.17" fill="none" stroke="#25384f" stroke-linecap="round" stroke-linejoin="round" stroke-width="1.76"/><path d="m451.5 513c-.57.77-1.35 1.84-1.35 2.18.05.28.44.57 1.07.79 1.8.62 4.18.28 4.55-.05 1.67-1.76 4.16-8.55 3.87-12.65-.05-.73-.24-1.65-.72-2.24-1.74-.31-3.5-.59-5.28-.82 3.29 5.37-.05 9.95-2.14 12.8z" fill="#a7a9ac"/><path d="m355.75 536.73c-.34 0-.83.03-1.5.15-5.03.86-12.93 4.66-13.71 5.76-.18 1.73 4.45 13.7 8.84 19.5.49-.17 1-.35 1.52-.52 3.17-1.07 6.45-2.17 7.51-4.69 1.32-3.15-.65-16.15-1.88-20.11 0 .02-.18-.08-.76-.08z" fill="#fff"/><path d="m436.99 562.48s.36-.64-.44-3.25c-2.18-7.07-9.71-19.57-12.59-20.9-1.76-.81-4.2.03-6.35.78-.17.06-.32.1-.49.16 4.04 8.94 8.97 19.5 13.4 28.41 1.08-.56 5.65-3.83 6.48-5.21z" fill="#fff"/><path d="m345.95 514.58c-.09-.19-.19-.38-.29-.58-1.35-2.74-3.39-6.87-5.86-6.87-.02 0-.03 0-.05 0-3.95.09-5.4.33-10.56 2.56-1.61.69-1.26 3.88-.84 5.73 6.02-1.9 12.98-2.54 17.59-.84z" fill="#fff"/><path d="m461.09 501.42c.16.51.28 1.07.33 1.72.33 4.74-2.44 11.98-4.36 14.01-.61.65-2.01.94-3.46.94-.94 0-1.89-.12-2.68-.36-1.84-.54-2.38-1.53-2.51-2.25-.19-1.02.59-2.07 1.66-3.53 2.21-3.02 5.2-7.12 1.18-12.04-14.08-1.59-29.21-.93-42.72 1.96-9.67 2.07-17 6.25-24.76 10.67-3.81 2.17-7.74 4.41-12.05 6.45-10.29 4.85-15.64 2.31-24.5-1.91l-1.08-.51c-6.29-2.98-19.36-.02-25.25 4.4-.4.3-.58.7-.56 1.29.15 4.91 13.02 16.72 18.47 20.67-.02-.3-.02-.57.03-.76.59-2.34 12.35-7.09 16.71-7.21 1.87-.06 2.49.69 2.69 1.32.41 1.33.98 3.98 1.46 7 .97-.28 1.91-.57 2.76-.83 1.3-.4 2.42-.74 3.32-.97 12.75-3.21 24.14-4.48 40.05-6.04 2.19-.22 4.59-.4 7.4-.57-1.07-2.4-1.71-3.87-1.75-3.95l-.26-.59.48-.43c4.52-4.06 20.08-10 26.06-6.81 2.88 1.54 5.27 4.63 7.15 9.24 3.44-.6 6.56-1.33 9.5-2.23 8.55-2.64 25.85-10.85 28.43-17.14.43-1.06.39-2.03-.12-2.98-2.67-4.92-16.29-7.55-21.6-8.56z" fill="#fff"/><path d="m436.89 524.66c-4.83-2.58-18.91 2.54-23.54 6.16.91 2.08 1.93 4.38 3.03 6.82.22-.07.42-.13.64-.21 2.47-.86 5.27-1.83 7.68-.71 3.59 1.66 11.37 14.91 13.55 21.99.71 2.32.8 3.81.27 4.69-1.07 1.78-5.85 5.13-7.22 5.88 4.69 9.37 8.69 16.58 10.22 17.52 5.72-2.7 6.88-6.54 6.89-11.86.05-20.11-1.91-45.15-11.52-50.27z" fill="#fff"/><path d="m449.92 561.89c2.14.44 6.31-.65 7.83-2.06 2.21-2.05 2.33-6.75.34-13.59-.5-1.72-1.23-2.8-2.23-3.31-1.88-.95-4.74.08-7.77 1.18.9 5.07 1.51 10.99 1.84 17.78z" fill="#fff"/><path d="m402.53 485.63c3.58 4.72 7.36 9.98 8.89 13.84 5.94-1.09 12.13-1.77 18.38-2.05-1.09-1.01-2.72-2.62-5.3-5.16-2.98-2.94-6.37-6.27-7.89-7.53-11.17-9.2-21.72-17.89-24.66-15.24-1.93 2.3-4.07 5.45-4.01 6.39.07 1.13.89 3.73 2.07 6.97 2.04-.49 4.16-.8 5.34-.94 4.02-.49 5.02.82 7.2 3.71z" fill="#fff"/><path d="m425.73 491c.83.81 1.72 1.69 2.57 2.52.57-.27.94-.65 1.1-1.15.68-2.13-1.84-6.23-4.44-9.36-2.21-2.68-6.18-2.7-9.34-1.37.69.57 1.38 1.13 2.1 1.73 1.59 1.31 4.86 4.52 8.01 7.63z" fill="#fff"/><path d="m408.15 500.13c.49-.1.99-.2 1.48-.3-1.75-4.17-6.25-10.12-8.52-13.12-2.12-2.8-2.57-3.38-5.57-3.02-1.1.14-3.04.41-4.93.86 2.31 6.16 5.59 13.93 7.65 18.61 3.07-1.23 6.32-2.27 9.9-3.04z" fill="#fff"/><path d="m441.73 587.67c-2.95 1.94-24.93-46.72-29.47-57.11 4.36-3.91 19.61-9.59 25.05-6.69 11.89 6.34 12.02 40.04 11.99 51.06-.01 5.06-.93 9.67-7.57 12.74z" fill="none" stroke="#25384f" stroke-miterlimit="10" stroke-width="1.78"/><path d="m340.04 544.8c-.29-.16-.57-.32-.85-.51-4.98-3.28-24.14-20.08-18.85-24.04 6.25-4.68 19.62-7.6 26.17-4.49 9.66 4.58 14.53 7.28 24.83 2.42 12.94-6.11 22.37-14.05 37-17.18 16.59-3.55 35.48-3.79 52.19-.59 5.96 1.14 26.45 4.76 23.11 12.89-2.94 7.16-21.74 15.41-28.99 17.65-3.36 1.04-6.8 1.8-10.3 2.38" fill="none" stroke="#25384f" stroke-miterlimit="10" stroke-width="1.78"/><path d="m414.53 535.68c-2.91.17-5.79.36-8.64.65-15.14 1.49-26.95 2.76-39.92 6.02-1.67.42-4.16 1.26-7.03 2.07" fill="none" stroke="#25384f" stroke-miterlimit="10" stroke-width="1.78"/><path d="m397.62 503.94c-1.8-4.09-10.33-23.91-10.6-27.98-.12-1.89 4.3-7.11 4.3-7.11 3.41-3.08 12.61 4.33 25.83 15.21 3.42 2.81 15.2 15.07 14.77 13.87" fill="none" stroke="#25384f" stroke-miterlimit="10" stroke-width="1.78"/><path d="m327.73 516.55s-1.95-6.35 1.12-7.67c5.16-2.22 6.69-2.54 10.89-2.63 4.53-.1 7.06 9.53 8.56 10.37" fill="none" stroke="#25384f" stroke-miterlimit="10" stroke-width="1.78"/><path d="m339.67 542.38c-.48 1.91 4.8 15.13 9.39 20.81 3.66-1.38 8.66-2.38 10.15-5.93 1.52-3.63-.73-17.11-1.85-20.73-.9-2.88-17.2 3.93-17.68 5.84z" fill="none" stroke="#25384f" stroke-miterlimit="10" stroke-width="1.78"/><path d="m413.81 481.57c3.63-2.17 8.98-2.58 11.84.88 2.11 2.56 8.15 10.61 2.19 12.19" fill="none" stroke="#25384f" stroke-miterlimit="10" stroke-width="1.78"/><path d="m447.62 543.34c4.91-1.78 9.52-3.52 11.32 2.66 1.14 3.92 2.84 11.31-.59 14.49-1.76 1.63-6.22 2.77-8.61 2.28" fill="none" stroke="#25384f" stroke-miterlimit="10" stroke-width="1.78"/><path d="m389.15 484c1.95-.55 4.3-.95 6.28-1.19 3.49-.43 4.23.52 6.38 3.36 3.05 4.02 7.84 10.47 9.1 14.57" fill="none" stroke="#25384f" stroke-miterlimit="10" stroke-width="1.78"/><path d="m415.58 538.84c2.65-.78 6.12-2.53 8.75-1.32 4.2 1.94 15.32 22.26 13.42 25.41-1 1.67-6.2 5.3-7.05 5.64" fill="none" stroke="#25384f" stroke-miterlimit="10" stroke-width="1.78"/><path d="m451.58 498.91c7.02 7.9-2.72 14.18-2.31 16.41s6.15 2.25 7.13 1.22c2.33-2.46 6.18-13.81 2.84-16.47" fill="none" stroke="#25384f" stroke-miterlimit="10" stroke-width="1.78"/><path d="m430.06 578.48c-3.67 2.35-7.36 4.36-11.45 5.78-2.97 1.18-9.02 3.41-12.05 4.44-.1.04-.17-.12-.07-.16 0 0 11.54-5.58 11.54-5.58 3.83-1.96 7.62-4.12 11.96-4.65.09-.01.15.12.06.17z" fill="#25384f"/><path d="m423.95 569.28c-4.69 2.84-9.76 4.73-14.94 6.39-3.82 1.34-11.54 3.97-15.39 5.23-.1.04-.17-.12-.06-.17 3.71-1.63 11.2-4.84 14.94-6.39 4.97-2.22 10-4.21 15.39-5.23.09-.02.15.12.06.17z" fill="#25384f"/><path d="m418.31 558.57c-2.25 2.06-4.92 3.2-7.75 4.13-2.76.95-5.61 2.28-8.37 2.94 2.39-1.59 5.22-2.83 7.79-4.24 2.58-1.48 5.22-2.7 8.26-2.99.08-.01.14.11.07.16z" fill="#25384f"/><path d="m413.77 548.68c-4.6 2.69-9.38 4.61-14.27 6.7-4.83 2.08-9.83 4.33-14.69 6.11 4.45-2.69 9.44-4.86 14.07-7.39 4.6-2.61 9.54-4.72 14.82-5.58.09-.02.15.12.06.17z" fill="#25384f"/><path d="m389.12 500.7c-2.86 1.74-6 2.5-9.24 3.03-3.18.56-6.51 1.48-9.65 1.75 2.93-1.26 6.23-2.09 9.3-3.13 3.09-1.11 6.2-1.96 9.55-1.82.09 0 .12.13.04.17z" fill="#25384f"/><path d="m386.48 491.68c-4.83 2.41-9.97 3.82-15.19 4.99-3.86.98-11.66 2.87-15.54 3.77-.1.03-.16-.14-.05-.17 3.78-1.28 11.39-3.77 15.2-4.96 5.06-1.74 10.16-3.25 15.53-3.79.09-.01.14.13.05.17z" fill="#25384f"/><path d="m383.11 481.85c-2.58 1.74-5.46 2.52-8.45 3.07-2.93.57-6.01 1.51-8.9 1.8 2.66-1.26 5.7-2.11 8.51-3.17 2.83-1.12 5.68-1.98 8.8-1.87.09 0 .12.12.05.17z" fill="#25384f"/></svg>